<svg width="104" height="119" viewBox="0 0 104 119" fill="none" xmlns="http://www.w3.org/2000/svg">
<path d="M103.184 29.6218L51.5918 0.00219727L0 29.6218V56.2113L11.937 49.3234V36.4757L51.5918 13.7097L91.2467 36.4757V41.5756L103.184 34.6863V29.6218Z" fill="#23155B"/>
<path d="M91.2467 82.0051L51.5918 104.771L11.937 82.0051V70.6718L29.3447 60.6261L43.7862 68.9618L56.8929 61.3969L42.4499 53.0626L29.3432 45.4962L16.2365 53.0626L11.9413 55.5417L0.00424194 62.431V88.8576L51.5961 118.477L103.188 88.8576V62.2681L91.2509 69.1574L91.2467 82.0051Z" fill="#23155B"/>
<path d="M91.2466 47.8041L62.2909 64.5206L49.1842 72.0856L62.2909 79.6521L75.3975 72.0856L91.2423 62.9411L103.179 56.0518V40.9161L91.2466 47.8041Z" fill="#8053FF"/>
</svg>
