<svg width="1920" height="1282" viewBox="0 0 1920 1282" fill="none" xmlns="http://www.w3.org/2000/svg">
<g clip-path="url(#clip0_54_1946)">
<rect width="1920" height="1282" fill="url(#paint0_linear_54_1946)"/>
<path d="M1203.79 -412.463C1203.79 -460.75 1208.14 -495.436 1217.88 -524.927C1257.21 -637.297 1414.6 -720.935 1618.85 -737.995C1721.03 -745.742 1816.85 -732.138 1895.94 -698.652C1964.87 -668.897 2031.3 -618.69 2105.01 -540.645C2155.34 -486.705 2199.35 -423.941 2243.5 -343.124C2287.87 -261.15 2308.84 -195.684 2311.5 -130.859C2311.59 -127.913 2311.63 -124.967 2311.63 -121.852C2311.63 -48.0675 2285.59 69.0491 2241.97 191.434C2197.64 315.824 2143.12 421.907 2096.12 475.207C2012.64 619.532 1930.96 601.059 1807.33 573.108C1752.48 560.705 1690.32 546.656 1615.21 542.928C1561 540.25 1512.6 538.609 1469.89 537.16C1264.8 530.213 1171.2 527.048 1067.81 428.583C1043.81 404.619 1031.64 372.484 1031.64 333.092C1031.64 302.04 1039.19 266.21 1054.08 226.591C1067.74 190.652 1084.78 153.549 1102.84 114.269C1126.58 62.6058 1151.13 9.18673 1171.56 -49.1107C1195.55 -118.494 1207.21 -194.39 1207.21 -281.141C1207.21 -294.017 1206.96 -307.52 1206.45 -321.271C1206.22 -327.451 1205.98 -333.581 1205.74 -339.654C1204.74 -365.147 1203.79 -389.226 1203.79 -412.463ZM2312.78 -121.852C2312.78 -124.982 2312.74 -127.945 2312.65 -130.913C2309.98 -195.982 2288.95 -261.642 2244.48 -343.822C2200.27 -424.741 2156.2 -487.589 2105.79 -541.614C2031.97 -619.778 1965.42 -670.07 1896.35 -699.889C1817.09 -733.442 1721.11 -747.071 1618.77 -739.309C1414.08 -722.215 1256.3 -638.253 1216.8 -525.406C1207.01 -495.748 1202.64 -460.917 1202.64 -412.463C1202.64 -389.196 1203.59 -365.104 1204.59 -339.595C1204.83 -333.522 1205.07 -327.396 1205.3 -321.216C1205.8 -307.483 1206.06 -294 1206.06 -281.141C1206.06 -194.559 1194.43 -118.822 1170.5 -49.5926C1150.08 8.63035 1125.55 62.0172 1101.82 113.655C1083.75 152.956 1066.7 190.075 1053.03 226.065C1038.07 265.855 1030.49 301.862 1030.49 333.092C1030.49 372.884 1042.79 405.346 1067.06 429.587C1117.34 477.467 1165.93 504.042 1229.54 518.444C1291.31 532.434 1366.2 534.97 1469.86 538.482C1512.56 539.93 1560.96 541.567 1615.16 544.252C1690.18 547.968 1752.3 562.014 1807.1 574.404C1870.92 588.831 1921.33 600.232 1967.64 590.214C2017.71 579.392 2057.61 544.177 2097.01 476.034C2144.04 422.729 2198.65 316.479 2243.04 191.933C2286.71 69.3969 2312.78 -47.906 2312.78 -121.852Z" fill="#EDE9F6"/>
<path d="M2299.02 -122.717C2299.05 -120.968 2299.06 -119.233 2299.06 -117.446C2299.06 -46.9343 2273.66 65.8979 2231.09 184.364C2187.77 304.93 2134.51 408.122 2088.61 460.408C2007.18 600.607 1927.48 584.263 1806.84 559.518C1754.67 548.82 1695.54 536.696 1624.54 534.008C1572.79 531.9 1526.45 530.739 1485.56 529.711C1287.22 524.732 1196.69 522.459 1096 428.311C1069.97 403.508 1056.76 369.411 1056.76 326.948C1056.76 298.472 1062.72 266.062 1074.46 230.622C1087.11 186.913 1104.89 141.242 1123.7 92.8924C1141.38 47.4616 1159.67 0.477128 1175.63 -49.6272C1208.05 -153.621 1212.49 -253.998 1213.01 -320.454L1212.87 -332.174C1212.71 -346.401 1212.55 -359.841 1212.55 -373.214C1212.55 -430.099 1215.6 -476.359 1230.49 -517.23C1270.39 -625.243 1422.97 -707.107 1619.2 -725.781C1719.62 -735.95 1813.36 -725.062 1890.29 -694.297C1958.51 -666.667 2024.06 -618.499 2096.58 -542.706C2149.68 -487.476 2194.7 -422.596 2238.28 -338.523C2280.29 -256.619 2299.02 -190.288 2299.02 -123.45V-122.717ZM2300.22 -117.446C2300.22 -119.24 2300.21 -120.985 2300.17 -122.73L2300.17 -123.45C2300.17 -190.536 2281.39 -257.076 2239.26 -339.196C2195.63 -423.383 2150.54 -488.362 2097.36 -543.681C2024.72 -619.594 1959.04 -667.851 1890.68 -695.543C1813.59 -726.37 1719.68 -737.281 1619.11 -727.097C1422.45 -708.382 1269.5 -626.206 1229.43 -517.739C1214.46 -476.665 1211.39 -430.258 1211.39 -373.214C1211.39 -359.831 1211.56 -346.389 1211.72 -332.154L1211.86 -320.452C1211.34 -254.105 1206.9 -153.877 1174.55 -50.0765C1158.6 -0.0192645 1140.32 46.9428 1122.65 92.3587C1103.82 140.736 1086.04 186.434 1073.38 230.172C1061.59 265.742 1055.61 298.308 1055.61 326.948C1055.61 369.813 1068.95 404.263 1095.27 429.321C1196.27 523.769 1286.92 526.045 1485.53 531.032C1526.42 532.059 1572.75 533.221 1624.51 535.326C1695.42 538.009 1754.51 550.128 1806.64 560.818C1868.91 573.591 1918.09 583.678 1963.28 573.251C2012.13 561.98 2051.06 527.43 2089.5 461.242C2135.43 408.942 2188.78 305.578 2232.15 184.871C2274.78 66.2479 2300.22 -46.7705 2300.22 -117.446Z" fill="#EDE9F6"/>
<path d="M1081.89 320.381C1081.89 294.723 1086.37 265.964 1095.21 234.91C1105.97 181.7 1124.34 125.312 1143.8 65.6138C1155.94 28.3543 1168.49 -10.1721 1180 -50.3281C1207.52 -149.336 1215.59 -242.339 1219.85 -320.261L1219.93 -324.822C1221.15 -395.998 1222.2 -457.47 1243.37 -510.479C1283.82 -614.323 1431.49 -694.543 1619.59 -714.853C1719.59 -727.662 1808.71 -719.697 1884.51 -691.177C1951.02 -666.008 2017.54 -618.437 2087.89 -545.756C2142.96 -489.938 2190.33 -420.864 2232.69 -334.58C2272.44 -252.715 2289.25 -183.56 2286.15 -114.878L2286.16 -113.341C2286.16 -45.9983 2261.38 62.7173 2219.89 177.462C2177.6 294.392 2125.62 394.873 2080.84 446.257C2001.49 582.587 1923.79 568.362 1806.18 546.83C1756.75 537.783 1700.73 527.531 1633.91 525.839C1584.7 524.306 1540.51 523.618 1501.52 523.007C1309.94 520.009 1222.51 518.642 1124.55 428.613C1096.25 402.875 1081.89 366.46 1081.89 320.381ZM2287.66 -130.702C2287.66 -194.418 2270.51 -259.408 2233.69 -335.223C2191.27 -421.641 2143.83 -490.827 2088.66 -546.737C2018.2 -619.545 1951.53 -667.2 1884.87 -692.432C1808.92 -721.012 1719.62 -728.996 1619.48 -716.168C1526.7 -706.149 1442.25 -681.596 1375.27 -645.171C1308.29 -608.739 1262.31 -562.35 1242.33 -511.023C1221.06 -457.768 1220 -396.172 1218.78 -324.847L1218.7 -320.316C1214.44 -242.506 1206.38 -149.599 1178.91 -50.733C1167.4 -10.6168 1154.85 27.9047 1142.71 65.1542C1123.25 124.893 1104.86 181.322 1094.1 234.555C1085.24 265.693 1080.74 294.581 1080.74 320.381C1080.74 366.889 1095.24 403.65 1123.83 429.646C1222.09 519.954 1309.65 521.323 1501.5 524.321C1540.49 524.935 1584.68 525.623 1633.89 527.161C1700.63 528.847 1756.61 539.089 1806 548.139C1866.7 559.248 1914.64 568.025 1958.69 557.149C2006.32 545.399 2044.27 511.453 2081.73 447.09C2126.54 395.693 2178.61 295.048 2220.95 177.961C2262.5 63.0675 2287.31 -45.8344 2287.31 -113.341L2287.31 -114.849C2287.54 -120.083 2287.66 -125.428 2287.66 -130.702Z" fill="#EDE9F6"/>
<path d="M1107.01 312.104C1107.01 289.701 1110.17 264.999 1116.4 238.695C1124.06 174.014 1143.01 104.372 1163.06 30.6388C1170.26 4.20402 1177.69 -23.1316 1184.82 -50.9882C1209.75 -152.541 1219.79 -249.039 1227.13 -319.5C1230.32 -386.293 1233.32 -449.341 1256.68 -502.789C1276.87 -551.798 1321.56 -596.411 1385.93 -631.829C1450.44 -667.314 1531.49 -691.783 1620.35 -702.595C1718.48 -717.905 1805.51 -712.583 1879.04 -686.768C1944.76 -663.755 2010.33 -618.295 2079.5 -547.795C2137.27 -490.752 2185.64 -419.524 2227.37 -330.039C2259.8 -259.663 2274.91 -198.699 2274.91 -138.181C2274.91 -127.806 2274.45 -117.272 2273.54 -106.873C2272.98 -42.2312 2248.61 61.9472 2208.34 171.887C2166.6 285.855 2117.41 380.366 2073.36 431.186C1996.06 563.419 1920.35 551.379 1805.76 533.153C1759.11 525.733 1706.24 517.324 1643.63 516.607C1597.06 515.642 1555.08 515.423 1518.05 515.225C1333.16 514.247 1248.77 513.803 1153.54 428.039C1122.66 401.326 1107.01 362.318 1107.01 312.104ZM2276.06 -138.181C2276.06 -198.922 2260.91 -260.079 2228.39 -330.657C2186.59 -420.294 2138.14 -491.643 2080.26 -548.788C2010.97 -619.409 1945.26 -664.959 1879.38 -688.029C1805.69 -713.898 1718.49 -719.238 1620.21 -703.903C1531.24 -693.079 1450.05 -668.567 1385.43 -633.015C1320.82 -597.466 1275.94 -552.636 1255.65 -503.367C1232.18 -449.689 1229.17 -386.506 1225.98 -319.614C1218.66 -249.238 1208.62 -152.799 1183.71 -51.3505C1176.59 -23.5162 1169.16 3.8144 1161.96 30.2492C1141.89 104.032 1122.93 173.731 1115.28 238.43C1109.04 264.768 1105.86 289.582 1105.86 312.104C1105.86 362.752 1121.66 402.113 1152.83 429.086C1248.37 515.113 1332.88 515.565 1518.04 516.545C1555.08 516.738 1597.05 516.959 1643.61 517.922C1706.15 518.644 1758.98 527.046 1805.6 534.458C1864.74 543.86 1911.46 551.295 1954.38 539.979C2000.79 527.748 2037.76 494.447 2074.24 432.019C2118.32 381.18 2167.61 286.51 2209.41 172.391C2249.72 62.3169 2274.12 -42.0625 2274.69 -106.801C2275.6 -117.183 2276.06 -127.762 2276.06 -138.181Z" fill="#EDE9F6"/>
<path d="M1130.21 303.078C1130.21 284.389 1132.22 264.151 1136.2 242.905C1139.19 164.025 1158.91 77.605 1179.79 -13.8715C1182.62 -26.2942 1185.48 -38.8235 1188.33 -51.4769C1204.84 -128.578 1215.53 -200.688 1224.96 -264.307C1227.79 -283.446 1230.47 -301.523 1233.17 -318.813C1238.78 -388.305 1244.95 -445.394 1268.8 -495.36C1289.32 -542.379 1332.99 -585.492 1395.1 -620.056C1457.35 -654.701 1535.27 -679.159 1620.44 -690.783C1716.86 -708.637 1801.93 -705.947 1873.3 -682.784C1938.3 -661.926 2003 -618.532 2071.11 -550.12C2130.86 -492.624 2181.71 -417.083 2222.28 -325.586C2250.93 -260.173 2264.28 -203 2264.28 -145.67C2264.28 -130.164 2263.25 -114.379 2261.23 -98.7534C2259.72 -36.4268 2235.56 63.2124 2196.58 167.858C2156.05 276.7 2108.41 367.425 2065.88 416.76C1990.5 545.066 1916.64 535.236 1804.83 520.345C1760.93 514.497 1711.18 507.872 1652.72 508.081C1608.82 507.684 1569.07 507.917 1534 508.133C1355.4 509.202 1273.89 509.688 1181.18 428.094C1147.35 400.264 1130.21 358.21 1130.21 303.078ZM2265.43 -145.67C2265.43 -203.216 2252.05 -260.57 2223.3 -326.182C2182.67 -417.84 2131.72 -493.519 2071.86 -551.119C2003.63 -619.656 1938.78 -663.142 1873.61 -684.052C1802.08 -707.265 1716.85 -709.972 1620.28 -692.088C1535.01 -680.452 1456.96 -655.949 1394.59 -621.239C1332.26 -586.546 1288.41 -543.23 1267.78 -495.971C1243.84 -445.804 1237.64 -388.578 1232.03 -318.989C1229.34 -301.751 1226.66 -283.671 1223.82 -264.528C1214.4 -200.931 1203.71 -128.846 1187.21 -51.7969C1184.37 -39.1584 1181.51 -26.6266 1178.67 -14.2089C1157.78 77.3421 1138.04 163.824 1135.06 242.742C1131.08 263.957 1129.05 284.299 1129.05 303.078C1129.05 358.657 1146.36 401.07 1180.49 429.151C1273.5 511.013 1355.14 510.52 1534.01 509.443C1569.07 509.237 1608.82 508.994 1652.72 509.398C1711.11 509.195 1760.83 515.809 1804.69 521.657C1862.4 529.338 1907.98 535.405 1949.86 523.615C1995.13 510.867 2031.19 478.174 2066.77 417.592C2109.33 368.231 2157.05 277.367 2197.64 168.377C2236.67 63.5845 2260.87 -36.2308 2262.38 -98.6392C2264.4 -114.25 2265.43 -130.101 2265.43 -145.67Z" fill="#EDE9F6"/>
<path d="M1157.13 223.779C1157.13 140.73 1173.52 49.8407 1193.33 -51.8001C1200.94 -93.4099 1207.59 -132.889 1214.02 -171.068C1223.02 -224.564 1231.53 -275.095 1240.6 -318.214C1247.94 -381.438 1256.13 -437.819 1282.25 -488.177C1303.06 -533.253 1345.62 -574.902 1405.34 -608.646C1465.22 -642.484 1539.85 -666.949 1621.17 -679.401C1715.69 -699.851 1798.62 -699.789 1867.7 -679.222C1931.83 -660.528 1995.54 -619.159 2062.47 -552.752C2124.88 -493.96 2176.75 -416.069 2216.64 -321.229C2241.54 -261.26 2253.65 -206.187 2253.65 -152.875C2253.65 -132.348 2251.85 -111.367 2248.29 -90.5098C2243.33 31.1166 2148.42 297.27 2058.16 402.921C1984.81 527.47 1912.89 519.877 1804.02 508.388C1763.01 504.053 1716.52 499.146 1662.38 500.236C1621.33 500.38 1583.97 501.073 1551.02 501.676C1378.92 504.85 1300.37 506.302 1210.32 428.741C1173.18 399.673 1154.36 354.004 1154.36 293.002C1154.36 278.625 1155.45 263.335 1157.58 247.556C1157.28 239.754 1157.13 231.796 1157.13 223.779ZM2254.8 -152.875C2254.8 -206.388 2242.66 -261.644 2217.67 -321.8C2177.71 -416.816 2125.74 -494.858 2063.21 -553.76C1996.16 -620.296 1932.29 -661.757 1867.98 -680.499C1798.74 -701.117 1715.64 -701.184 1620.99 -680.702C1539.57 -668.238 1464.82 -643.731 1404.83 -609.83C1344.9 -575.963 1302.16 -534.117 1281.24 -488.822C1255.03 -438.276 1246.82 -381.759 1239.47 -318.455C1230.4 -275.373 1221.9 -224.827 1212.88 -171.318C1206.46 -133.14 1199.81 -93.6707 1192.21 -52.0807C1172.39 49.6297 1155.98 140.596 1155.98 223.779C1155.98 231.814 1156.13 239.791 1156.44 247.486C1154.3 263.201 1153.21 278.561 1153.21 293.002C1153.21 354.47 1172.2 400.5 1209.65 429.816C1253.26 467.381 1295.43 487.409 1350.63 496.763C1403.46 505.719 1465.36 504.582 1551.03 503C1583.99 502.392 1621.35 501.704 1662.39 501.552C1716.48 500.472 1762.93 505.374 1803.92 509.699C1860.1 515.626 1904.48 520.316 1945.25 508.013C1989.33 494.707 2024.42 462.555 2059.05 403.755C2100 355.831 2146.07 268.678 2185.37 164.716C2223.03 65.1334 2246.98 -30.2231 2249.43 -90.3559C2252.99 -111.198 2254.8 -132.261 2254.8 -152.875Z" fill="#EDE9F6"/>
<path d="M1173.69 177.296C1173.69 99.3604 1185.53 17.3482 1197.11 -52.5961C1211.45 -146.341 1227.11 -244.024 1246.87 -317.67C1257.24 -384.528 1268.83 -435.095 1294.58 -480.787C1337.87 -568.944 1463.06 -640.484 1621.31 -667.515C1714.07 -690.57 1794.99 -693.14 1861.87 -675.162C1925.22 -658.69 1988.03 -619.41 2053.9 -555.08C2118.17 -495.939 2172.58 -413.586 2211.29 -316.923C2233.29 -261.258 2243.99 -209.892 2243.99 -159.898C2243.99 -134.254 2241.28 -108.994 2235.7 -82.6792C2232.28 -24.9444 2208.59 65.6326 2172.31 159.733C2134.27 258.361 2089.88 341.529 2050.5 387.913C1979.02 508.578 1908.89 503.293 1802.71 495.299C1764.58 492.421 1721.36 489.164 1671.51 491.067C1633.37 491.744 1598.44 492.865 1567.63 493.865C1406.64 499.028 1325.83 501.624 1238.24 428.186C1197.81 398.202 1176.46 346.985 1176.46 280.065C1176.46 270.781 1176.87 261.102 1177.68 251.28C1175.03 228.121 1173.69 203.281 1173.69 177.296ZM2245.14 -159.898C2245.14 -210.085 2234.41 -261.625 2212.34 -317.472C2173.56 -414.323 2119.02 -496.839 2054.63 -556.095C1988.63 -620.554 1925.66 -659.928 1862.13 -676.447C1795.08 -694.468 1714 -691.902 1621.1 -668.813C1462.54 -641.727 1337.04 -569.937 1293.6 -481.466C1264.96 -430.661 1254.26 -372.845 1245.76 -317.98C1225.99 -244.337 1210.33 -146.612 1195.97 -52.8293C1184.38 17.1646 1172.54 99.2463 1172.54 177.296C1172.54 203.33 1173.88 228.235 1176.53 251.302C1175.72 261.018 1175.3 270.736 1175.3 280.065C1175.3 347.462 1196.84 399.056 1237.59 429.273C1325.47 502.951 1406.41 500.353 1567.66 495.175C1598.47 494.185 1633.39 493.066 1671.54 492.389C1721.34 490.483 1764.53 493.739 1802.64 496.609C1857.44 500.738 1900.71 504 1940.46 491.173C1983.44 477.304 2017.64 445.712 2051.39 388.739C2090.79 342.341 2135.28 259.028 2173.36 160.264C2209.69 66.0345 2233.43 -24.7087 2236.83 -82.4783C2242.42 -108.785 2245.14 -134.147 2245.14 -159.898Z" fill="#EDE9F6"/>
<path d="M1187.22 127.111C1187.22 74.7148 1191.8 15.6959 1201.22 -53.312C1215.27 -166.789 1232.37 -253.126 1253.5 -317.268C1265.48 -377.967 1279.2 -427.746 1307.29 -473.672C1351.15 -557.586 1471.66 -627.458 1621.82 -656.055C1712.83 -681.77 1791.75 -686.973 1856.43 -671.528C1918.97 -657.281 1980.9 -620.056 2045.72 -557.735C2130.39 -481.482 2179.81 -382.428 2206.35 -312.757C2225.82 -260.991 2235.29 -213.063 2235.29 -166.241C2235.29 -136.043 2231.44 -106.133 2223.51 -74.8012C2214.59 38.0882 2125.58 275.603 2043.24 373.332C1973.57 490.298 1905.14 487.38 1801.57 482.959C1766.39 481.458 1726.52 479.756 1681.02 482.411C1645.92 483.589 1613.54 485.118 1584.98 486.47C1429.69 493.819 1351.74 497.506 1266.54 428.086C1221.68 396.588 1197.99 340.279 1197.99 265.217C1197.99 261.959 1198.04 258.622 1198.12 255.297C1190.78 215.996 1187.22 174.114 1187.22 127.111ZM2236.44 -166.241C2236.44 -213.249 2226.95 -261.346 2207.41 -313.283C2180.81 -383.095 2131.29 -482.346 2046.45 -558.755C1981.48 -621.213 1919.4 -658.529 1856.66 -672.818C1791.82 -688.305 1712.72 -683.1 1621.59 -657.348C1471.15 -628.696 1350.33 -558.584 1306.32 -474.389C1278.15 -428.326 1264.39 -378.411 1252.39 -317.645C1231.26 -253.498 1214.14 -167.07 1200.08 -53.5131C1190.65 15.5569 1186.07 74.6428 1186.07 127.111C1186.07 174.211 1189.64 216.179 1196.99 255.419C1196.88 258.592 1196.84 261.944 1196.84 265.217C1196.84 340.76 1220.72 397.461 1265.9 429.18C1351.39 498.841 1429.47 495.149 1585.03 487.79C1613.59 486.44 1645.95 484.904 1681.07 483.721C1726.52 481.076 1766.37 482.775 1801.52 484.276C1905.48 488.713 1974.17 491.638 2044.12 374.161C2126.56 276.345 2215.72 38.4132 2224.64 -74.563C2232.57 -105.885 2236.44 -135.917 2236.44 -166.241Z" fill="#EDE9F6"/>
<path d="M1198.81 77.7621C1198.81 36.6764 1201.29 -6.34166 1206.4 -53.7307C1216.7 -162.183 1235.1 -250.693 1261.1 -316.811C1272.98 -365.65 1288.43 -417.532 1320.88 -466.645C1365.26 -546.414 1480.92 -614.685 1622.77 -644.856C1713.15 -673.7 1787.81 -681.325 1851.06 -668.172C1912.71 -656.166 1973.64 -620.964 2037.35 -560.561C2106.03 -499.818 2164.14 -410.315 2200.97 -308.528C2218.22 -260.262 2226.6 -215.471 2226.6 -171.599C2226.6 -137.124 2221.45 -102.791 2210.86 -66.6304C2199.96 41.7602 2115.35 264.013 2035.77 359.456C1967.95 472.928 1901.25 472.454 1800.28 471.734C1768.21 471.505 1731.85 471.247 1690.87 474.56C1659 476.207 1629.37 478.107 1603.22 479.793C1453.65 489.434 1378.57 494.27 1295.78 428.743C1235.84 388.887 1221.29 314.946 1219.63 259.932L1219.6 259.766C1205.61 205.224 1198.81 145.688 1198.81 77.7621ZM2227.75 -171.599C2227.75 -215.647 2219.34 -260.6 2202.04 -309.032C2165.12 -411.03 2106.89 -500.724 2038.07 -561.591C1974.21 -622.136 1913.11 -657.425 1851.27 -669.473C1787.84 -682.656 1713.01 -675.026 1622.51 -646.14C1480.41 -615.917 1364.46 -547.423 1319.94 -467.4C1287.4 -418.153 1271.9 -366.132 1260.02 -317.258C1234 -251.105 1215.57 -162.464 1205.26 -53.8872C1200.14 -6.45089 1197.66 36.6117 1197.66 77.7621C1197.66 145.787 1204.47 205.418 1218.48 260.061C1220.16 315.4 1234.84 389.743 1295.16 429.861C1378.24 495.611 1453.45 490.765 1603.29 481.114C1629.43 479.43 1659.06 477.518 1690.94 475.881C1731.89 472.563 1768.22 472.824 1800.27 473.057C1901.61 473.77 1968.56 474.249 2036.66 360.283C2116.32 264.75 2201.08 42.1054 2211.98 -66.3448C2222.58 -102.506 2227.75 -136.982 2227.75 -171.599Z" fill="#EDE9F6"/>
<path d="M1206.54 32.7003C1206.54 4.63393 1207.75 -24.7433 1210.14 -54.6246C1217.24 -160.276 1237.03 -250.826 1267.36 -316.5C1285.27 -377.273 1304.97 -420.033 1333.26 -459.573C1355.4 -496.756 1393.74 -532.42 1444.18 -562.751C1494.93 -593.263 1556.78 -617.687 1623.07 -633.378C1711.72 -665.005 1784.46 -675.187 1845.51 -664.518C1906.35 -654.791 1966.41 -621.659 2029.14 -563.232C2100.59 -501.317 2159.87 -409.421 2196.07 -304.453C2211.41 -259.411 2218.86 -217.548 2218.86 -176.469C2218.86 -138.061 2212.27 -99.6117 2198.71 -58.915C2185.63 45.9389 2104.53 252.623 2028.46 344.566C1962.27 454.534 1897.05 456.608 1798.32 459.743C1769.42 460.665 1736.65 461.702 1700.21 465.558C1671.71 467.604 1646.08 469.744 1621.31 471.815C1476.89 483.869 1404.41 489.923 1323.75 428.318C1263.1 390.303 1244.58 317.808 1239.71 263.689L1239.68 263.522C1217.69 195.693 1206.54 118.034 1206.54 32.7003ZM2220.02 -176.469C2220.02 -217.714 2212.53 -259.737 2197.15 -304.935C2160.87 -410.129 2101.45 -502.226 2029.85 -564.27C1966.97 -622.839 1906.72 -656.062 1845.68 -665.824C1784.46 -676.523 1711.55 -666.328 1622.78 -634.657C1556.45 -618.953 1494.48 -594.487 1443.65 -563.915C1393.04 -533.488 1354.56 -497.677 1332.34 -460.36C1303.98 -420.736 1284.23 -377.854 1266.3 -317.019C1235.93 -251.283 1216.1 -160.554 1208.99 -54.7339C1206.6 -24.8278 1205.39 4.59422 1205.39 32.7003C1205.39 118.156 1216.56 195.944 1238.57 263.907C1243.48 318.332 1262.13 391.199 1323.16 429.44C1404.09 491.268 1476.72 485.208 1621.39 473.131C1646.17 471.06 1671.78 468.92 1700.3 466.872C1736.72 463.018 1769.47 461.98 1798.36 461.064C1897.43 457.916 1962.89 455.835 2029.36 345.395C2064.11 303.402 2103.78 231.382 2138.15 147.888C2170.43 69.479 2193.48 -7.70833 2199.82 -58.5922C2213.4 -99.2939 2220.02 -137.897 2220.02 -176.469Z" fill="#EDE9F6"/>
<path d="M1213.31 -4.11536C1213.31 -20.7456 1213.76 -37.788 1214.64 -54.7734C1218.86 -160.182 1239.5 -250.353 1274.33 -315.558C1293.6 -370.441 1315.77 -412.469 1346.27 -451.928C1392.52 -524.411 1496.21 -587.754 1623.69 -621.414C1710.5 -655.884 1781.24 -668.626 1840.01 -660.384C1899.96 -652.951 1959.08 -621.874 2020.77 -565.378C2094.92 -502.276 2155.31 -407.942 2190.84 -299.743C2204.5 -257.597 2211.13 -218.379 2211.13 -179.847C2211.13 -137.763 2202.98 -95.4415 2186.21 -50.455C2171.23 48.6064 2092.08 243.802 2021.01 330.601C1956.39 437.291 1892.57 442.046 1795.97 449.225C1770.42 451.127 1741.47 453.275 1709.77 457.537C1684.88 459.896 1662.23 462.282 1640.33 464.592C1505.33 478.801 1430.96 486.63 1352.38 428.843C1291.11 392.677 1268.63 321.594 1260.54 268.324C1229.19 187.688 1213.31 96.0785 1213.31 -4.11536ZM2212.29 -179.847C2212.29 -218.536 2205.62 -257.907 2191.91 -300.202C2156.31 -408.64 2095.78 -503.182 2021.47 -566.42C1959.62 -623.066 1900.31 -654.235 1840.14 -661.692C1781.21 -669.962 1710.3 -657.2 1623.37 -622.678C1495.69 -588.968 1391.74 -525.44 1345.38 -452.755C1314.82 -413.227 1292.58 -371.079 1273.3 -316.149C1238.42 -250.858 1217.72 -160.465 1213.49 -54.8479C1212.61 -37.8377 1212.16 -20.763 1212.16 -4.11536C1212.16 96.2647 1228.07 188.05 1259.45 268.709C1267.54 322.113 1290.17 393.601 1351.81 429.985C1430.67 487.984 1505.18 480.142 1640.44 465.905C1662.34 463.598 1684.98 461.214 1709.89 458.843C1741.58 454.587 1770.51 452.438 1796.04 450.544C1892.98 443.332 1957.02 438.567 2021.91 331.428C2055.58 290.31 2092.66 223.819 2126.26 144.271C2157.15 71.1666 2179.97 -1.49303 2187.31 -50.0876C2204.1 -95.0913 2212.29 -137.582 2212.29 -179.847Z" fill="#EDE9F6"/>
<path d="M1219.1 -34.3534C1219.1 -41.4734 1219.19 -48.7027 1219.37 -55.8376C1220.8 -161.449 1242.27 -251.183 1281.48 -315.338C1301.76 -364.324 1326.51 -405.463 1359.43 -444.908C1406.24 -513.169 1505.25 -574.845 1624.31 -609.934C1710.42 -647.802 1777.16 -662.658 1834.4 -656.704C1893.41 -651.597 1951.56 -622.595 2012.19 -568.048C2087.9 -504.742 2150.98 -405.503 2185.29 -295.762C2197.48 -256.27 2203.4 -219.484 2203.4 -183.306C2203.4 -137.183 2193.87 -92.5768 2173.41 -42.9203C2156.46 50.866 2081.31 231.522 2013.35 315.419C1950.15 419.013 1887.55 426.594 1792.8 438.072C1770.87 440.733 1746.01 443.745 1719.29 448.198C1698.27 450.759 1678.88 453.28 1660.13 455.727C1529.66 472.727 1457.8 482.098 1381.14 428.081C1319.33 393.813 1292.88 324.179 1281.55 271.795C1240.68 181.317 1219.1 75.492 1219.1 -34.3534ZM2204.56 -183.306C2204.56 -219.638 2198.61 -256.568 2186.38 -296.204C2151.99 -406.19 2088.75 -505.655 2012.87 -569.1C1952.08 -623.799 1893.73 -652.89 1834.49 -658.017C1777.08 -663.99 1710.17 -649.11 1623.96 -611.187C1504.73 -576.051 1405.49 -514.204 1358.56 -445.769C1325.59 -406.272 1300.77 -365.021 1280.49 -316C1241.2 -251.721 1219.65 -161.735 1218.22 -55.8698C1218.04 -48.7299 1217.95 -41.4883 1217.95 -34.3534C1217.95 75.7079 1239.57 181.729 1280.49 272.252C1291.82 324.772 1318.43 394.779 1380.59 429.24C1457.53 483.455 1529.54 474.074 1660.26 457.037C1679.01 454.593 1698.4 452.064 1719.43 449.508C1746.15 445.056 1771 442.043 1792.92 439.385C1841.9 433.451 1880.58 428.768 1915.92 412.449C1954.08 394.828 1984.41 365.162 2014.24 316.248C2046.31 276.664 2081.79 213.904 2114.11 139.585C2143.57 71.8414 2166.14 3.77307 2174.5 -42.5009C2194.99 -92.1946 2204.56 -136.982 2204.56 -183.306Z" fill="#EDE9F6"/>
<path d="M1222.97 -65.0139C1222.97 -167.34 1245.34 -253.66 1287.68 -314.641C1309.15 -358.932 1335.06 -396.784 1371.77 -437.456C1419.28 -501.596 1513.78 -561.629 1624.58 -598.099C1708.93 -638.955 1773.81 -656.288 1828.82 -652.681C1886.17 -649.949 1945.08 -622.245 2003.96 -570.333C2082.44 -505.891 2146.75 -404.192 2180.4 -291.299C2191.33 -254.196 2196.63 -219.605 2196.63 -185.551C2196.63 -136.167 2185.39 -88.2644 2161.25 -34.8063C2141.63 56.8287 2071.11 219.808 2006.03 300.978C1943.91 401.868 1885.43 411.946 1788.53 428.646C1769.63 431.906 1750.1 435.273 1728.62 439.642C1711.78 442.213 1695.97 444.736 1680.67 447.163C1554.02 467.339 1484.26 478.45 1409.12 428.083C1346.72 395.714 1316.22 327.494 1301.6 275.958C1250.39 176.17 1223.24 61.3096 1223.03 -56.33C1222.99 -59.2478 1222.97 -62.1333 1222.97 -65.0139ZM2197.79 -185.551C2197.79 -219.751 2192.46 -254.482 2181.49 -291.721C2147.76 -404.872 2083.3 -506.806 2004.64 -571.39C1945.6 -623.456 1886.45 -651.254 1828.87 -653.996C1773.69 -657.616 1708.66 -640.25 1624.2 -599.339C1513.25 -562.83 1418.55 -502.638 1370.93 -438.357C1334.18 -397.637 1308.19 -359.691 1286.72 -315.373C1244.28 -254.246 1221.82 -167.643 1221.82 -65.0139C1221.82 -62.1283 1221.84 -59.2377 1221.88 -56.32C1222.08 61.5479 1249.29 176.637 1300.56 276.497C1315.19 328.159 1345.86 396.714 1408.59 429.249C1484.02 479.817 1553.93 468.679 1680.83 448.475C1696.13 446.036 1711.93 443.52 1728.79 440.945C1750.29 436.571 1769.82 433.211 1788.7 429.951C1837.11 421.607 1875.35 415.015 1910.19 397.694C1947.76 379.021 1977.59 349.449 2006.93 301.799C2037.45 263.741 2071.4 204.678 2102.49 135.557C2130.54 73.1645 2152.91 9.6454 2162.32 -34.3473C2186.5 -87.8525 2197.79 -135.949 2197.79 -185.551Z" fill="#EDE9F6"/>
<path d="M1226.83 -79.7006C1226.83 -176.469 1250.2 -257.524 1294.41 -314.103C1316.23 -352.832 1344.03 -388.646 1384.58 -430.307C1432.84 -490.484 1522.74 -548.949 1625.11 -586.745C1708.76 -631.309 1769.86 -650.565 1823.31 -649.212C1879.76 -648.805 1937.73 -623.188 1995.65 -573.076C2076.86 -507.428 2142.34 -403.15 2175.3 -286.958C2185.11 -251.991 2189.87 -219.358 2189.87 -187.205C2189.87 -134.655 2176.85 -83.5922 2148.89 -26.5097C2127.33 59.3041 2060.36 209.109 1998.64 287.1C1937.27 385.947 1879.11 399.259 1782.76 421.324C1768.56 424.582 1753.86 427.94 1738.12 431.817C1725.91 434.136 1714.16 436.416 1702.86 438.607C1579.46 462.54 1511.5 475.72 1437.57 428.804C1374.68 398.32 1340.12 331.428 1322.2 280.683C1263.39 177.823 1230.59 61.2139 1227.27 -56.6689C1226.98 -64.3924 1226.83 -72.1409 1226.83 -79.7006ZM2191.03 -187.205C2191.03 -219.497 2186.24 -252.259 2176.4 -287.366C2143.35 -403.823 2077.72 -508.347 1996.33 -574.142C1938.23 -624.414 1880.02 -650.121 1823.33 -650.531C1769.7 -651.887 1708.44 -632.593 1624.69 -587.972C1522.21 -550.136 1432.12 -491.537 1383.77 -431.243C1343.18 -389.548 1315.33 -353.652 1293.5 -314.9C1249.15 -258.158 1225.68 -176.799 1225.68 -79.7006C1225.68 -72.1211 1225.83 -64.3552 1226.12 -56.6118C1229.44 61.4945 1262.31 178.347 1321.19 281.286C1339.14 332.158 1373.87 399.353 1437.06 429.989C1511.29 477.103 1579.4 463.891 1703.05 439.91C1714.35 437.72 1726.1 435.44 1738.34 433.113C1754.09 429.232 1768.78 425.869 1782.99 422.621C1831.21 411.572 1869.29 402.857 1903.83 384.316C1941.03 364.336 1970.55 334.611 1999.53 287.922C2061.31 209.864 2128.4 59.8082 2149.94 -26.0055C2177.96 -83.1526 2191.03 -134.421 2191.03 -187.205Z" fill="#EDE9F6"/>
<path d="M1230.7 -91.2514C1230.7 -183.833 1255.14 -260.69 1301.37 -313.517C1327.03 -352.787 1358.38 -385.664 1397.58 -422.965C1447.43 -480.095 1530.56 -535.502 1625.71 -575.023C1680.76 -607.167 1752.28 -644.17 1817.79 -645.3C1873.28 -647.239 1930.29 -623.745 1987.24 -575.472C2069.91 -509.682 2138.23 -400.201 2170.01 -282.599C2178.83 -249.613 2183.11 -218.808 2183.11 -188.426C2183.11 -132.143 2168.69 -79.7306 2136.34 -18.4889C2112.45 62.8721 2048.44 199.166 1991.14 272.561C1929.95 370.141 1871.36 387.166 1774.29 415.378C1765.71 417.878 1756.84 420.453 1747.65 423.174C1740.63 424.82 1733.76 426.449 1727.03 428.028C1610.02 455.641 1539.39 472.301 1466.17 428.718C1402.89 400.162 1364.27 334.677 1343.01 284.763C1277.55 180.67 1238.07 59.2371 1231.78 -57.255C1231.06 -68.7212 1230.7 -80.1602 1230.7 -91.2514ZM2184.26 -188.426C2184.26 -218.942 2179.96 -249.874 2171.11 -282.987C2156.21 -338.125 2132.69 -393.199 2103.09 -442.267C2070.3 -496.644 2031.55 -541.821 1987.92 -576.542C1930.77 -624.987 1873.51 -648.567 1817.76 -646.621C1752.02 -645.486 1680.35 -608.408 1625.25 -576.232C1530.02 -536.679 1446.73 -481.157 1396.81 -423.941C1357.58 -386.617 1326.17 -353.681 1300.5 -314.378C1254.1 -261.37 1229.55 -184.19 1229.55 -91.2514C1229.55 -80.1304 1229.91 -68.6592 1230.63 -57.1656C1233.77 0.920258 1244.85 59.7536 1263.58 117.693C1282.55 176.402 1308.94 232.837 1342.02 285.438C1363.32 335.464 1402.12 401.235 1465.69 429.915C1539.22 473.69 1610 456.992 1727.27 429.327C1733.99 427.733 1740.86 426.114 1747.91 424.463C1757.12 421.726 1765.99 419.154 1774.57 416.659C1871.89 388.376 1930.64 371.303 1992.04 273.386C2049.39 199.915 2113.51 63.4184 2137.38 -17.9377C2169.78 -79.2687 2184.26 -131.887 2184.26 -188.426Z" fill="#EDE9F6"/>
<path d="M1234.57 -101.099C1234.57 -190.477 1260.12 -263.921 1308.47 -313.486C1337.02 -351.259 1372.8 -382.802 1410.68 -416.195C1461.68 -469.648 1540.27 -523.465 1626.35 -563.882C1683.42 -600.341 1750.08 -638.101 1812.23 -641.971C1866.74 -646.274 1922.76 -624.901 1978.74 -578.442C2064.04 -511.541 2133.49 -399.527 2164.56 -278.795C2172.49 -247.628 2176.34 -218.498 2176.34 -189.732C2176.34 -130.545 2160.09 -75.4215 2123.65 -11.0084C2097.51 65.4253 2037.99 186.694 1983.55 257.512C1921.47 355.423 1860.98 376.994 1760.77 412.736L1757.14 414.034L1754.16 414.896C1638.17 448.408 1568.15 468.641 1494.84 428.115C1431.26 401.51 1388.56 337.417 1363.93 288.331C1291 181.675 1245.75 58.5709 1236.46 -58.381C1235.2 -72.8669 1234.57 -87.2361 1234.57 -101.099ZM2177.5 -189.732C2177.5 -218.624 2173.62 -247.876 2165.66 -279.167C2134.53 -400.183 2064.9 -512.465 1979.41 -579.522C1923.21 -626.152 1866.94 -647.609 1812.16 -643.29C1749.78 -639.404 1682.97 -601.565 1625.84 -565.068C1539.71 -524.63 1461 -470.72 1409.94 -417.203C1372.05 -383.805 1336.22 -352.224 1307.65 -314.412C1259.1 -264.646 1233.42 -190.864 1233.42 -101.099C1233.42 -87.1939 1234.05 -72.78 1235.31 -58.2545C1244.62 58.9433 1289.96 182.293 1362.98 289.066C1387.66 338.261 1430.54 402.609 1494.39 429.332C1568.03 470.036 1638.2 449.761 1754.44 416.172L1757.45 415.3L1761.12 413.992C1861.56 378.171 1922.17 356.55 1984.44 258.339C2038.94 187.449 2098.55 66.0136 2124.67 -10.4127C2161.19 -74.9275 2177.5 -130.272 2177.5 -189.732Z" fill="#EDE9F6"/>
<path d="M1237.46 -108.338C1237.46 -195.152 1264.2 -265.688 1314.78 -312.329C1340.16 -341.332 1371.15 -366.319 1403.95 -392.774C1410.21 -397.825 1416.59 -402.969 1423.06 -408.246C1475.97 -458.581 1550.08 -510.787 1626.42 -551.496C1682.14 -590.317 1747.02 -630.844 1806.25 -637.357C1859.8 -644.031 1914.88 -624.788 1969.95 -580.152C2057.94 -512.176 2128.59 -397.681 2158.94 -273.878C2166.1 -244.398 2169.58 -216.816 2169.58 -189.562C2169.58 -127.576 2151.45 -69.8941 2110.78 -2.54382C2082.6 68.1757 2027.18 175.28 1975.66 243.339C1915.64 336.701 1856.48 366.95 1766.17 405.686C1661.5 443.038 1593.72 464.122 1522.84 428.306C1458.98 403.657 1412.14 340.983 1384.09 292.744C1303.63 183.7 1252.58 58.9884 1240.29 -58.4962C1238.41 -75.4814 1237.46 -92.2507 1237.46 -108.338ZM2170.73 -189.562C2170.73 -216.938 2167.24 -244.631 2160.06 -274.232C2129.62 -398.334 2058.8 -513.097 1970.61 -581.234C1915.31 -626.054 1859.97 -645.381 1806.13 -638.67C1746.68 -632.132 1681.65 -591.52 1625.88 -552.659C1549.5 -511.936 1475.3 -459.668 1422.36 -409.288C1415.92 -404.043 1409.55 -398.902 1403.29 -393.853C1370.44 -367.363 1339.42 -342.344 1314.01 -313.311C1289.61 -290.808 1270.5 -262.291 1257.29 -228.594C1243.37 -193.122 1236.31 -152.662 1236.31 -108.338C1236.31 -92.1961 1237.27 -75.3747 1239.14 -58.3349C1251.46 59.3978 1302.61 184.358 1383.17 293.536C1411.28 341.881 1458.3 404.783 1522.42 429.534C1593.63 465.521 1661.58 444.388 1766.54 406.932C1857.08 368.106 1916.38 337.778 1976.57 244.158C2028.12 176.049 2083.62 68.8083 2111.77 -1.89632C2152.53 -69.3806 2170.73 -127.29 2170.73 -189.562Z" fill="#EDE9F6"/>
<path d="M1241.33 -115.271C1241.33 -200.131 1269.27 -268.269 1322.13 -312.31C1345.31 -335.191 1372.64 -354.987 1401.57 -375.947C1412.88 -384.138 1424.57 -392.611 1436.46 -401.575C1477.55 -436.865 1544.01 -489.608 1627.47 -540.601C1684.54 -583.976 1745.04 -625.33 1801.2 -634.353C1853.77 -643.434 1907.89 -626.286 1962.05 -583.388C2052.72 -514.243 2124.54 -397.11 2154.18 -270.04C2160.55 -242.467 2163.78 -215.531 2163.78 -189.987C2163.78 -125.186 2143.73 -64.9777 2098.76 5.23696C2071.17 64.7421 2020.58 158.934 1968.67 228.83C1911.89 315.913 1857.2 355.201 1776.13 397.247C1678.02 440.922 1616.39 457.738 1551.82 428.427C1487.79 405.699 1436.79 344.364 1405.27 296.905C1317.3 185.423 1260.46 58.9142 1245.17 -59.3709C1242.62 -78.5206 1241.33 -97.3276 1241.33 -115.271ZM2164.94 -189.987C2164.94 -215.645 2161.69 -242.693 2155.29 -270.378C2141.54 -329.324 2117.64 -388.603 2086.16 -441.811C2051.94 -499.645 2009.25 -548.979 1962.7 -584.478C1908.29 -627.569 1853.9 -644.792 1801.03 -635.659C1744.66 -626.598 1684.02 -585.163 1626.89 -541.733C1543.4 -490.733 1476.89 -437.947 1435.79 -402.652C1423.95 -393.718 1412.26 -385.251 1400.96 -377.059C1371.99 -356.077 1344.63 -336.257 1321.42 -313.345C1295.91 -292.095 1275.95 -264.803 1262.12 -232.254C1247.56 -197.973 1240.18 -158.616 1240.18 -115.271C1240.18 -97.2606 1241.48 -78.389 1244.03 -59.1773C1259.35 59.3636 1316.3 186.116 1404.38 297.746C1435.97 345.313 1487.16 406.856 1551.44 429.664C1583.47 444.215 1616.44 447.751 1655.17 440.781C1694.07 433.773 1736.5 416.302 1776.57 398.464C1857.85 356.31 1912.66 316.928 1969.57 229.647C2021.51 159.711 2072.16 65.4199 2099.73 5.93471C2144.81 -64.4364 2164.94 -124.888 2164.94 -189.987Z" fill="#EDE9F6"/>
<path d="M1244.23 -120.856C1244.23 -204.006 1273.39 -269.933 1328.57 -311.511C1350.12 -329.812 1374.92 -345.693 1401.18 -362.507C1416.66 -372.421 1432.67 -382.671 1448.91 -393.984C1459.68 -402.245 1470.89 -410.925 1482.53 -419.935C1525.84 -453.459 1574.93 -491.452 1627.56 -528.579C1691.79 -581.714 1744.85 -619.295 1795.15 -630.082C1846.71 -641.563 1899.86 -626.543 1953.11 -585.431C2045.06 -516.276 2119.86 -393.679 2148.34 -265.481C2154.1 -239.339 2157.02 -213.776 2157.02 -189.505C2157.02 -121.127 2135.68 -60.4683 2085.68 13.3243C2071.12 40.1857 2019.19 133.882 1960.63 214.287C1909.17 291.807 1858.31 342.279 1785.08 388.531C1719.53 425.409 1649.28 455.752 1579.83 428.216C1529.07 411.774 1475.72 367.766 1425.51 300.934C1330.06 187.267 1267.43 59.1413 1249.16 -59.8505C1245.89 -80.8507 1244.23 -101.375 1244.23 -120.856ZM2158.17 -189.505C2158.17 -213.882 2155.24 -239.555 2149.45 -265.804C2136.09 -325.978 2112.05 -386.614 2079.95 -441.166C2045.12 -500.368 2001.47 -550.631 1953.75 -586.528C1900.24 -627.838 1846.8 -642.928 1794.94 -631.374C1744.43 -620.548 1691.24 -582.887 1626.92 -529.676C1574.31 -492.561 1525.21 -454.558 1481.89 -421.027C1470.25 -412.019 1459.03 -403.342 1448.29 -395.096C1432.09 -383.813 1416.09 -373.567 1400.62 -363.659C1374.33 -346.82 1349.5 -330.919 1327.91 -312.591C1301.28 -292.529 1280.45 -266.377 1266.01 -234.875C1250.79 -201.689 1243.08 -163.328 1243.08 -120.856C1243.08 -101.298 1244.74 -80.6943 1248.03 -59.6196C1266.34 59.6252 1329.07 187.992 1424.66 301.817C1474.99 368.818 1528.54 412.978 1579.48 429.474C1609.99 441.568 1642.02 443.573 1677.37 435.571C1707.85 428.677 1742.24 414.104 1785.61 389.699C1859.02 343.336 1909.98 292.762 1961.54 215.106C2020.12 134.663 2072.09 40.8979 2086.62 14.0762C2136.76 -59.9075 2158.17 -120.812 2158.17 -189.505Z" fill="#EDE9F6"/>
<path d="M1247.13 -125.893C1247.13 -206.527 1278.38 -272.277 1335.13 -311.032C1355.43 -325.782 1378.38 -338.608 1402.67 -352.189C1421.83 -362.903 1441.65 -373.982 1461.61 -386.798C1509.54 -419.317 1561.36 -462.083 1616.22 -507.354L1628.04 -517.107C1680.78 -564.559 1736.7 -612.077 1789.65 -626.462C1840.23 -640.375 1892.45 -627.462 1944.86 -588.077C2039.53 -517.809 2115.59 -392.555 2143.37 -261.191C2148.58 -236.353 2151.22 -212.043 2151.22 -188.935C2151.22 -99.5405 2111.89 -32.4227 2073.41 21.4369C2051.34 56.1302 2006.42 125.418 1953.3 199.985C1911.04 262.314 1862.57 327.28 1794.56 380.241C1723.68 431.864 1664.46 447.19 1608.2 428.461C1556.66 413.333 1502.09 371.893 1445.98 305.286C1342.95 189.393 1274.49 59.5311 1253.21 -60.3789C1249.17 -83.0353 1247.13 -105.076 1247.13 -125.893ZM2152.37 -188.935C2152.37 -212.145 2149.72 -236.561 2144.49 -261.501C2116.64 -393.18 2040.39 -518.74 1945.49 -589.182C1892.81 -628.773 1840.28 -641.748 1789.38 -627.748C1736.21 -613.298 1680.18 -565.689 1627.35 -518.164L1615.54 -508.426C1560.71 -463.168 1508.91 -420.424 1461.03 -387.943C1441.12 -375.149 1421.31 -364.08 1402.16 -353.376C1377.84 -339.775 1354.87 -326.934 1334.53 -312.154C1306.75 -293.181 1285.01 -268.045 1269.93 -237.448C1254.04 -205.204 1245.98 -167.674 1245.98 -125.893C1245.98 -104.992 1248.03 -82.859 1252.08 -60.1182C1273.41 60.045 1341.99 190.15 1445.16 306.217C1501.41 372.988 1556.17 414.552 1607.9 429.739C1664.48 448.568 1724 433.194 1795.2 381.341C1863.35 328.268 1911.9 263.213 1954.2 200.807C2007.33 126.224 2052.26 56.9172 2074.32 22.2462C2112.91 -31.7673 2152.37 -99.121 2152.37 -188.935Z" fill="#EDE9F6"/>
<path d="M1250.03 -130.299C1250.03 -209.793 1282.59 -273.745 1341.73 -310.375C1360.98 -322.258 1382.45 -332.6 1405.17 -343.55C1427.74 -354.418 1451.07 -365.658 1474.32 -379.408C1519.44 -406.089 1565.55 -443.767 1628.51 -505.392C1681.95 -557.637 1734.06 -605.907 1784.1 -622.556C1833.69 -638.906 1884.98 -628.105 1936.55 -590.449C2033.94 -519.095 2111.24 -391.224 2138.3 -256.738C2143.03 -233.133 2145.42 -210.004 2145.42 -187.99C2145.42 -95.2354 2102.77 -25.9367 2061.06 29.6144C2054.26 38.6504 2047.27 47.8849 2040.1 57.3478C2011.53 95.0728 1979.15 137.827 1945.9 185.67C1938.02 197.003 1929.99 208.789 1922.21 220.191C1885.9 273.438 1848.36 328.495 1804.02 371.895C1751.73 423.04 1692.26 443.189 1636.59 428.63C1585.06 415.037 1527.83 374.996 1466.48 309.614C1355.9 191.576 1281.61 60.0238 1257.29 -60.8219C1252.47 -84.9558 1250.03 -108.333 1250.03 -130.299ZM2146.58 -187.99C2146.58 -210.101 2144.17 -233.331 2139.43 -257.033C2112.3 -391.845 2034.8 -520.028 1937.17 -591.561C1885.31 -629.43 1833.7 -640.283 1783.79 -623.823C1733.52 -607.099 1681.3 -558.734 1627.76 -506.395C1564.87 -444.839 1518.83 -407.211 1473.79 -380.582C1450.58 -366.855 1427.27 -355.624 1404.72 -344.764C1381.97 -333.804 1360.48 -323.45 1341.18 -311.532C1312.23 -293.596 1289.58 -269.413 1273.85 -239.642C1257.28 -208.269 1248.88 -171.482 1248.88 -130.299C1248.88 -108.233 1251.33 -84.7572 1256.16 -60.5265C1268.27 -0.353185 1292.84 62.7023 1329.18 126.897C1365.24 190.576 1411.16 252.37 1465.69 310.58C1527.19 376.118 1584.61 416.268 1636.33 429.919C1692.37 444.572 1752.19 424.323 1804.77 372.895C1849.19 329.414 1886.78 274.299 1923.12 221.002C1930.89 209.603 1938.93 197.822 1946.8 186.5C1980.04 138.666 2012.41 95.9267 2040.97 58.2091C2048.14 48.7537 2055.13 39.5092 2061.93 30.4758C2103.79 -25.264 2146.58 -94.8035 2146.58 -187.99Z" fill="#EDE9F6"/>
<path d="M1264.52 -132.024C1264.52 -211.168 1295.6 -274.126 1352.03 -309.298C1372.01 -321.768 1394.06 -332.309 1417.4 -343.465C1438.18 -353.397 1459.66 -363.667 1481.29 -376.075C1491.42 -381.927 1501.93 -388.567 1512.56 -395.807C1547.78 -419.818 1584.73 -450.705 1632.38 -495.951C1684.71 -545.478 1735.73 -591.22 1784.73 -606.779C1833.19 -622.052 1883.16 -611.35 1933.25 -574.974C1991.01 -533.08 2040.05 -471.955 2075.08 -398.211C2097.93 -351.13 2115 -299.158 2124.45 -247.9C2128.75 -225.337 2130.93 -203.161 2130.93 -181.995C2130.93 -125.124 2115.77 -72.4458 2083.21 -16.2248C2074.24 -0.834855 2063.83 15.0641 2051.37 32.3709C2041.65 46.0401 2031.6 59.9774 2020.97 74.7367C1997.14 107.823 1970.12 145.312 1942.45 185.997C1937.95 192.664 1933.43 199.388 1928.89 206.152C1898 252.145 1866.06 299.71 1829.63 340.194C1820.98 349.813 1812.28 358.809 1803.77 366.924C1752.66 415.842 1694.52 435.063 1640.05 421.054C1589.23 407.914 1533.18 369.374 1473.45 306.524C1433.07 264.68 1396.55 217.174 1364.92 165.328C1342.69 129.329 1323.28 91.6834 1307.23 53.442C1291.15 15.0343 1279.86 -21.8537 1271.72 -62.6576C1266.95 -86.6587 1264.52 -109.999 1264.52 -132.024ZM2132.08 -181.995C2132.08 -203.255 2129.9 -225.525 2125.57 -248.178C2116.1 -299.557 2098.99 -351.659 2076.09 -398.844C2040.97 -472.782 1991.79 -534.076 1933.87 -576.089C1883.5 -612.674 1833.22 -623.426 1784.42 -608.051C1735.2 -592.422 1684.07 -546.59 1631.65 -496.967C1584.04 -451.765 1547.13 -420.916 1511.97 -396.94C1501.37 -389.717 1490.88 -383.092 1480.78 -377.252C1459.18 -364.866 1437.71 -354.606 1416.96 -344.684C1393.58 -333.513 1371.51 -322.96 1351.48 -310.455C1294.66 -275.042 1263.37 -211.672 1263.37 -132.024C1263.37 -109.9 1265.8 -86.465 1270.6 -62.3696C1278.76 -21.4664 1290.07 15.5185 1306.19 54.0132C1322.26 92.3216 1341.71 130.027 1363.97 166.088C1395.66 218.008 1432.23 265.591 1472.67 307.502C1532.55 370.507 1588.78 409.145 1639.8 422.343C1694.63 436.439 1753.12 417.123 1804.51 367.939C1813.04 359.8 1821.76 350.784 1830.43 341.142C1866.92 300.594 1898.89 252.994 1929.81 206.956C1934.34 200.192 1938.86 193.466 1943.37 186.806C1971.02 146.137 1996.87 110.266 2021.86 75.5734C2032.5 60.8167 2042.54 46.8794 2052.26 33.2078C2064.74 15.8637 2075.18 -0.0650895 2084.17 -15.4922C2116.86 -71.9417 2132.08 -124.848 2132.08 -181.995Z" fill="#EDE9F6"/>
<path d="M1279.02 -134.292C1279.02 -212.945 1308.57 -274.812 1362.24 -308.494C1382.98 -321.585 1405.6 -332.297 1429.56 -343.64C1448.51 -352.612 1468.1 -361.887 1488.03 -372.952C1497.86 -378.497 1508.13 -384.802 1518.55 -391.696C1553.12 -414.554 1589.3 -443.826 1635.85 -486.609C1686.99 -533.375 1736.85 -576.548 1784.76 -591.002C1832.06 -605.177 1880.66 -594.59 1929.2 -559.521C1986.47 -518.403 2033.47 -458.424 2065.14 -386.073C2086.02 -340.481 2100.99 -291.137 2109.62 -239.399C2113.5 -217.918 2115.47 -196.749 2115.47 -176.482C2115.47 -120.868 2101.21 -68.9804 2070.61 -13.1801C2062.2 1.97833 2052.45 17.5835 2040.79 34.5335C2027.44 54.5008 2013.22 75.2399 1998.17 97.1898C1979.03 125.115 1959.23 153.985 1938.24 185.582L1936.02 188.959C1902.86 239.539 1868.57 291.833 1828.32 335.448C1819.86 344.634 1811.31 353.251 1802.92 361.04C1753.06 407.679 1696.3 425.962 1643.1 412.511C1593.04 399.833 1538.23 362.847 1480.2 302.587C1440.54 262.692 1405.91 216.701 1374.31 161.985C1353.51 126.79 1335.57 90.2569 1319.48 50.3049C1304.94 14.0476 1294.98 -20.4405 1286.16 -65.0053C1281.42 -88.8758 1279.02 -112.185 1279.02 -134.292ZM2116.62 -176.482C2116.62 -196.839 2114.65 -218.094 2110.75 -239.657C2102.1 -291.512 2087.09 -340.98 2066.16 -386.673C2034.41 -459.23 1987.26 -519.393 1929.81 -560.64C1880.99 -595.905 1832.09 -606.552 1784.47 -592.277C1736.35 -577.759 1686.37 -534.494 1635.13 -487.637C1588.62 -444.898 1552.49 -415.66 1517.97 -392.837C1507.57 -385.959 1497.33 -379.669 1487.52 -374.135C1467.63 -363.091 1448.05 -353.821 1429.12 -344.858C1405.14 -333.506 1382.48 -322.776 1361.68 -309.65C1335.3 -293.087 1314.59 -269.606 1300.13 -239.855C1285.36 -209.436 1277.87 -173.919 1277.87 -134.292C1277.87 -112.089 1280.28 -88.6798 1285.04 -64.7125C1293.87 -20.0509 1303.86 14.5141 1318.43 50.8558C1334.55 90.8748 1352.52 127.467 1373.36 162.719C1405.01 217.53 1439.71 263.606 1479.43 303.57C1537.61 363.983 1592.59 401.074 1642.85 413.798C1696.4 427.339 1753.51 408.967 1803.65 362.063C1812.06 354.251 1820.62 345.616 1829.11 336.403C1869.43 292.717 1903.75 240.373 1936.95 189.746L1939.16 186.381C1960.14 154.799 1979.94 125.926 1999.08 98.0037C2014.13 76.0488 2028.35 55.3122 2041.7 35.3399C2053.37 18.3675 2063.15 2.72771 2071.59 -12.4729C2102.31 -68.4941 2116.62 -120.61 2116.62 -176.482Z" fill="#EDE9F6"/>
<path d="M1293.51 -136.76C1293.51 -213.872 1322.32 -276.324 1372.55 -308.106C1394.14 -321.902 1417.39 -332.781 1442 -344.301C1459.13 -352.318 1476.83 -360.603 1495.01 -370.362C1504.57 -375.624 1514.6 -381.609 1524.83 -388.152C1558.78 -409.896 1594.22 -437.609 1639.73 -478.012C1689.74 -522.104 1738.5 -562.791 1785.38 -576.172C1831.57 -589.279 1878.85 -578.775 1925.9 -544.96C1982.74 -504.54 2027.76 -445.596 2056.09 -374.493C2074.73 -331.044 2088.07 -282.83 2095.76 -231.175C2099.22 -210.766 2100.97 -190.598 2100.97 -171.22C2100.97 -116.743 2087.61 -65.5105 2058.93 -9.98002C2051.05 4.98328 2041.95 20.3317 2031.1 36.9372C2012.75 66.2602 1992.33 97.4961 1970.71 130.565C1959.14 148.257 1947.18 166.549 1934.79 185.696C1902.99 235.816 1868.53 288.355 1827.65 331.506C1819.34 340.31 1810.94 348.556 1802.68 356.024C1754 400.474 1698.56 417.845 1646.58 404.929C1597.21 392.691 1543.58 357.182 1487.19 299.395C1447.89 260.99 1415.05 216.425 1383.83 159.128C1364.76 125.311 1347.74 88.7834 1331.79 47.4312C1316.92 8.64279 1309.1 -24.0067 1300.61 -67.2993C1295.9 -91.1193 1293.51 -114.487 1293.51 -136.76ZM2102.13 -171.22C2102.13 -190.68 2100.36 -210.933 2096.89 -231.416C2089.19 -283.176 2075.81 -331.511 2057.13 -375.06C2028.71 -446.383 1983.54 -505.526 1926.5 -546.081C1879.19 -580.092 1831.61 -590.648 1785.1 -577.449C1738.01 -564.013 1689.13 -523.242 1639.03 -479.06C1593.56 -438.694 1558.16 -411.013 1524.27 -389.305C1514.06 -382.774 1504.05 -376.804 1494.52 -371.552C1476.37 -361.816 1458.68 -353.53 1441.57 -345.523C1416.92 -333.988 1393.64 -323.092 1372 -309.261C1321.39 -277.24 1292.36 -214.366 1292.36 -136.76C1292.36 -114.39 1294.76 -90.923 1299.49 -67.0086C1307.99 -23.6415 1315.83 9.07757 1330.73 47.9653C1346.71 89.3796 1363.76 125.972 1382.86 159.831C1414.14 217.24 1447.05 261.901 1486.43 300.387C1542.96 358.325 1596.77 393.93 1646.33 406.218C1698.67 419.214 1754.45 401.761 1803.4 357.058C1811.67 349.575 1820.1 341.302 1828.43 332.477C1869.39 289.242 1903.89 236.645 1935.71 186.476C1948.1 167.339 1960.06 149.044 1971.63 131.353C1993.26 98.2812 2013.68 67.0402 2032.02 37.7173C2042.89 21.082 2052.02 5.69634 2059.92 -9.30177C2088.71 -65.0484 2102.13 -116.497 2102.13 -171.22Z" fill="#EDE9F6"/>
<path d="M1307.04 -139.265C1307.04 -215.742 1334.36 -276.981 1382 -307.283C1404.52 -321.806 1428.44 -332.804 1453.76 -344.449C1469.06 -351.487 1484.89 -358.766 1501.27 -367.214C1510.56 -372.172 1520.37 -377.822 1530.41 -384.018C1563.79 -404.596 1598.53 -430.695 1643.06 -468.648C1690.04 -508.334 1739.74 -548.109 1785.63 -560.368C1830.77 -572.381 1876.78 -561.991 1922.39 -529.49C1978.87 -489.851 2021.95 -432.053 2046.99 -362.346C2063.42 -321.232 2075.15 -274.245 2081.89 -222.666C2084.93 -203.404 2086.48 -184.313 2086.48 -165.912C2086.48 -112.65 2073.99 -62.1274 2047.19 -6.92065C2039.85 7.80822 2031.39 22.8624 2021.32 39.113C1995.03 84.1091 1964 133.251 1931.14 185.28C1902.88 231.279 1868.37 284.053 1826.66 326.747C1818.49 335.143 1810.23 343.008 1802.08 350.135C1754.54 392.316 1700.36 408.743 1649.51 396.383C1600.77 384.615 1548.27 350.654 1493.44 295.448C1454.24 258.358 1423.11 215.286 1392.5 155.782C1374.92 123.157 1359.25 87.7311 1343.18 44.3041C1328.55 4.42704 1322.4 -27.1211 1314.61 -67.0701L1314.12 -69.6346C1309.42 -93.3925 1307.04 -116.818 1307.04 -139.265ZM2087.63 -165.912C2087.63 -184.392 2086.08 -203.56 2083.02 -222.882C2076.28 -274.563 2064.51 -321.669 2048.05 -362.87C2022.93 -432.818 1979.68 -490.827 1922.99 -530.612C1877.12 -563.305 1830.81 -573.751 1785.37 -561.654C1739.27 -549.336 1689.45 -509.476 1642.38 -469.708C1597.89 -431.792 1563.19 -405.726 1529.87 -385.178C1519.84 -378.996 1510.06 -373.353 1500.79 -368.413C1484.44 -359.977 1468.62 -352.706 1453.33 -345.673C1427.97 -334.013 1404.02 -322.998 1381.44 -308.435C1333.42 -277.895 1305.89 -216.233 1305.89 -139.265C1305.89 -116.721 1308.27 -93.1964 1312.99 -69.3442L1313.49 -66.7821C1321.29 -26.7735 1327.44 4.82418 1342.12 44.8178C1358.22 88.3119 1373.91 123.785 1391.51 156.46C1422.19 216.098 1453.4 259.27 1492.69 296.451C1547.66 351.796 1600.34 385.852 1649.27 397.674C1700.46 410.114 1754.98 393.6 1802.79 351.183C1810.95 344.036 1819.24 336.139 1827.43 327.728C1869.22 284.949 1903.78 232.103 1932.08 186.045C1964.94 134.015 1995.98 84.8588 2022.26 39.8478C2032.34 23.5897 2040.83 8.50084 2048.19 -6.27275C2075.1 -61.693 2087.63 -112.419 2087.63 -165.912Z" fill="#EDE9F6"/>
<path d="M1321.53 -141.493C1321.53 -217.313 1347.31 -277.34 1392.24 -306.19C1415.69 -321.51 1440.23 -332.595 1466.21 -344.33C1479.65 -350.399 1493.54 -356.672 1508.03 -363.858C1517.17 -368.588 1526.45 -373.768 1536.43 -379.688C1569.12 -399.111 1603.08 -423.627 1646.53 -459.173C1692.35 -496.251 1740.84 -533.386 1785.66 -544.556C1829.63 -555.481 1874.27 -545.194 1918.32 -513.973C1974.29 -475.078 2015.34 -418.375 2037.03 -349.99C2051.42 -310.749 2061.24 -266.211 2067.05 -213.805C2069.69 -195.722 2071.02 -177.747 2071.02 -160.355C2071.02 -108.222 2059.44 -58.3155 2034.58 -3.30666C2027.8 11.2123 2019.99 25.9894 2010.72 41.8765C1989.11 81.9344 1963.27 126.261 1926.91 185.613C1891.37 245.71 1859.09 289.328 1825.34 322.88C1817.35 330.879 1809.24 338.37 1801.23 345.162C1754.95 385.108 1702.15 400.605 1652.56 388.808C1605.26 377.646 1552.58 344.298 1500.21 292.368C1450.71 246.869 1421.68 194.078 1401.93 153.173C1381.49 113.175 1366.36 72.6351 1355.46 41.7871C1343.38 7.22682 1338.19 -20.4129 1332.19 -52.4131C1331.04 -58.539 1329.85 -64.861 1328.58 -71.4637C1323.9 -95.2348 1321.53 -118.795 1321.53 -141.493ZM2072.17 -160.355C2072.17 -177.819 2070.83 -195.866 2068.19 -213.996C2062.36 -266.499 2052.52 -311.146 2038.1 -350.469C2016.34 -419.11 1975.12 -476.048 1918.92 -515.098C1874.61 -546.5 1829.68 -556.847 1785.42 -545.842C1740.38 -534.621 1691.78 -497.403 1645.86 -460.251C1602.46 -424.739 1568.54 -400.253 1535.9 -380.86C1525.95 -374.95 1516.68 -369.78 1507.56 -365.065C1493.1 -357.893 1479.22 -351.621 1465.79 -345.557C1439.77 -333.804 1415.19 -322.707 1391.67 -307.337C1346.37 -278.254 1320.38 -217.805 1320.38 -141.493C1320.38 -118.698 1322.76 -95.0386 1327.46 -71.1782C1328.73 -64.578 1329.91 -58.2584 1331.07 -52.14C1337.08 -20.0777 1342.27 7.6117 1354.4 42.2763C1365.31 73.1714 1380.46 113.768 1400.92 153.826C1420.73 194.823 1449.83 247.746 1499.47 293.381C1551.97 345.447 1604.83 378.893 1652.33 390.096C1702.25 401.981 1755.37 386.397 1801.92 346.22C1809.95 339.408 1818.08 331.897 1826.1 323.879C1859.92 290.242 1892.26 246.554 1927.86 186.358C1964.23 126.993 1990.08 82.657 2011.69 42.5892C2020.97 26.6896 2028.79 11.8728 2035.6 -2.68584C2060.55 -57.9058 2072.17 -108.003 2072.17 -160.355Z" fill="#EDE9F6"/>
<path d="M1336.03 -144.317C1336.03 -218.18 1360.92 -278.367 1402.59 -305.327C1427.05 -321.489 1452.25 -332.587 1478.92 -344.338C1490.5 -349.441 1502.48 -354.721 1515.03 -360.669C1523.88 -365.092 1532.94 -369.948 1542.72 -375.513C1574.35 -393.514 1608.57 -417.109 1650.42 -449.773C1695.13 -484.206 1742.45 -518.664 1786.29 -528.727C1829.15 -538.557 1872.46 -528.38 1915.01 -498.477C1970.55 -460.367 2009.61 -404.815 2027.98 -337.825C2040.31 -300.74 2048.31 -258.635 2053.17 -205.281C2055.39 -188.459 2056.52 -171.684 2056.52 -155.395C2056.52 -104.399 2045.83 -55.0987 2022.88 -0.236182C2016.64 14.0526 2009.5 28.5449 2001.01 44.0569C1979.7 87.0497 1954.33 133.211 1923.45 185.2C1891.81 240.802 1858.58 285.522 1824.68 318.124C1816.85 325.709 1808.88 332.827 1800.99 339.28C1755.92 376.954 1704.45 391.508 1656.05 380.263C1609.43 369.57 1557.97 337.814 1507.23 288.427C1458.52 245.055 1431.49 194.031 1411.48 149.842C1393.62 112.953 1379.93 74.6094 1367.81 38.6753C1357.49 7.73072 1353.31 -16.227 1348.46 -43.9634C1346.82 -53.3743 1345.12 -63.1028 1343.07 -73.7666C1338.4 -97.5829 1336.03 -121.317 1336.03 -144.317ZM2057.68 -155.395C2057.68 -171.754 2056.54 -188.593 2054.31 -205.447C2049.44 -258.888 2041.42 -301.099 2029.06 -338.254C2010.63 -405.525 1971.39 -461.33 1915.61 -499.606C1872.8 -529.685 1829.22 -539.917 1786.06 -530.02C1742.02 -519.907 1694.58 -485.372 1649.78 -450.865C1607.97 -418.235 1573.79 -394.667 1542.21 -376.694C1532.44 -371.136 1523.4 -366.291 1514.58 -361.882C1502.06 -355.944 1490.08 -350.67 1478.51 -345.568C1451.79 -333.8 1426.56 -322.683 1402.02 -306.471C1380.51 -292.557 1363.65 -270.74 1351.93 -241.637C1340.77 -213.95 1334.88 -180.296 1334.88 -144.317C1334.88 -121.221 1337.26 -97.3868 1341.95 -73.4837C1344 -62.8249 1345.69 -53.1039 1347.33 -43.7029C1352.19 -15.9069 1356.38 8.10046 1366.73 39.1467C1378.88 75.1329 1392.58 113.518 1410.46 150.465C1430.53 194.765 1457.64 245.936 1506.5 289.445C1557.37 338.96 1609.01 370.815 1655.82 381.554C1704.54 392.875 1756.33 378.241 1801.66 340.347C1809.57 333.876 1817.57 326.733 1825.42 319.131C1859.4 286.45 1892.71 241.628 1924.41 185.937C1955.3 133.918 1980.68 87.7295 2002 44.7341C2010.49 29.2097 2017.66 14.6754 2023.91 0.344429C2046.95 -54.7166 2057.68 -104.195 2057.68 -155.395Z" fill="#EDE9F6"/>
<path d="M1350.52 -146.947C1350.52 -219.901 1373.86 -278.688 1412.96 -304.206C1438.47 -321.267 1463.11 -331.809 1491.64 -344.019C1501.39 -348.188 1511.47 -352.498 1522.05 -357.283C1530.64 -361.415 1539.46 -365.954 1549.03 -371.155C1580.01 -388.003 1613.47 -409.965 1654.32 -440.265C1697.9 -472.09 1744.04 -503.911 1786.91 -512.877C1828.67 -521.618 1870.66 -511.545 1911.71 -482.929C1966.8 -445.569 2003.87 -391.11 2018.92 -325.444C2032.04 -281.068 2036.69 -233.173 2039.28 -196.4C2041.11 -180.908 2042.03 -165.415 2042.03 -150.309C2042.03 -100.335 2032.22 -51.4941 2011.17 3.40153C2005.49 17.4772 1998.99 31.6968 1991.3 46.8496C1970.88 92.1215 1947.56 137.48 1919.99 185.547C1891.4 237.978 1858.21 282.478 1824.01 314.258C1816.35 321.442 1808.52 328.185 1800.75 334.312C1756.9 369.747 1706.75 383.373 1659.54 372.675C1601.49 359.741 1548.49 318.037 1514.25 285.345C1466.09 243.753 1440.99 194.384 1421.04 147.233C1404.85 111.786 1392.95 75.9638 1380.17 36.1737C1371.16 7.74436 1367.79 -13.6248 1363.89 -38.3714C1362.08 -49.9183 1360.2 -61.8623 1357.58 -75.5806C1352.9 -99.5281 1350.52 -123.54 1350.52 -146.947ZM2043.18 -150.309C2043.18 -165.474 2042.26 -181.027 2040.43 -196.539C2037.84 -233.354 2033.17 -281.353 2020.02 -325.829C2004.9 -391.787 1967.65 -446.522 1912.3 -484.061C1871.01 -512.845 1828.75 -522.977 1786.71 -514.173C1743.63 -505.164 1697.38 -473.273 1653.7 -441.377C1612.89 -411.104 1579.47 -389.169 1548.54 -372.346C1538.98 -367.152 1530.17 -362.623 1521.62 -358.504C1511.05 -353.729 1500.98 -349.419 1491.24 -345.252C1462.65 -333.023 1437.97 -322.466 1412.38 -305.345C1372.93 -279.599 1349.37 -220.382 1349.37 -146.947C1349.37 -123.441 1351.76 -99.3346 1356.46 -75.2953C1359.07 -61.6017 1360.94 -49.6726 1362.76 -38.1356C1366.67 -13.327 1370.04 8.09426 1379.09 36.6228C1391.89 76.4675 1403.8 112.327 1420.01 147.826C1440.02 195.108 1465.2 244.634 1513.53 286.377C1547.86 319.156 1601.03 360.977 1659.32 373.975C1706.84 384.74 1757.3 371.039 1801.41 335.396C1809.21 329.252 1817.06 322.479 1824.74 315.28C1859.03 283.414 1892.31 238.797 1920.96 186.254C1948.54 138.168 1971.88 92.7717 1992.31 47.4824C2000 32.3222 2006.52 18.0703 2012.22 3.94499C2033.35 -51.1343 2043.18 -100.149 2043.18 -150.309Z" fill="#EDE9F6"/>
<path d="M1364.05 -150.417C1364.05 -222.373 1385.85 -279.72 1422.37 -303.816C1448.93 -321.831 1474.15 -332.247 1503.34 -344.306C1511.28 -347.589 1519.49 -350.983 1528.11 -354.683C1536.42 -358.524 1545.01 -362.749 1554.38 -367.599C1584.7 -383.303 1617.38 -403.649 1657.26 -431.628C1699.7 -460.88 1744.64 -490.094 1786.57 -497.966C1827.22 -505.626 1867.89 -495.64 1907.42 -468.289C1962.06 -431.638 1997.14 -378.222 2008.87 -313.81C2018.52 -276.16 2022.06 -236.34 2024.41 -188.122C2025.84 -174.073 2026.57 -159.969 2026.57 -146.168C2026.57 -97.0878 2017.64 -48.5292 1998.48 6.64647C1993.36 20.5416 1987.51 34.499 1980.6 49.3011C1961.66 96.0433 1940.39 140.646 1915.55 185.694C1889.35 236.071 1857.14 279.165 1822.38 310.335C1814.87 317.129 1807.2 323.505 1799.55 329.297C1756.92 362.542 1708.1 375.256 1662.08 365.091C1604.87 352.717 1553.42 313.17 1520.32 282.172C1475.15 244.308 1451.41 199.705 1429.65 144.386C1415.03 110.242 1404.41 75.3869 1393.16 38.4847L1391.58 33.3087C1383.58 6.68624 1380.91 -12.7874 1377.81 -35.3397C1376.03 -48.3255 1374.19 -61.751 1371.14 -77.8776C1366.44 -102.067 1364.05 -126.471 1364.05 -150.417ZM2027.72 -146.168C2027.72 -160.019 2026.99 -174.172 2025.56 -188.236C2023.21 -236.507 2019.65 -276.411 2009.99 -314.128C1998.2 -378.865 1962.93 -432.582 1908.01 -469.422C1868.24 -496.937 1827.31 -506.983 1786.38 -499.27C1744.25 -491.359 1699.2 -462.075 1656.66 -432.756C1616.83 -404.804 1584.17 -384.483 1553.91 -368.802C1544.55 -363.956 1535.98 -359.744 1527.69 -355.915C1519.1 -352.223 1510.88 -348.826 1502.95 -345.549C1473.7 -333.465 1448.44 -323.031 1421.79 -304.956C1384.92 -280.627 1362.9 -222.853 1362.9 -150.417C1362.9 -126.376 1365.3 -101.876 1370.02 -77.5943C1373.06 -61.5124 1374.9 -48.1068 1376.68 -35.1384C1379.78 -12.524 1382.46 7.01175 1390.49 33.7386L1392.08 38.922C1403.33 75.864 1413.97 110.756 1428.61 144.942C1450.43 200.443 1474.26 245.208 1519.61 283.216C1552.79 314.289 1604.42 353.959 1661.86 366.391C1708.19 376.616 1757.31 363.834 1800.19 330.393C1807.86 324.586 1815.56 318.187 1823.09 311.371C1857.96 280.11 1890.27 236.889 1916.54 186.384C1941.39 141.305 1962.68 96.6521 1981.63 49.89C1988.54 35.0829 1994.4 21.0908 1999.55 7.15089C2018.77 -48.2062 2027.72 -96.9164 2027.72 -146.168Z" fill="#EDE9F6"/>
<path d="M1378.55 -154.012C1378.55 -224.611 1398.82 -280.266 1432.78 -302.881C1460.35 -321.81 1486.06 -331.963 1515.83 -343.723C1522.03 -346.173 1528.45 -348.71 1535.16 -351.424C1543.2 -354.971 1551.56 -358.869 1560.71 -363.352C1590.33 -377.867 1622.25 -396.55 1661.16 -422.157C1702.45 -448.766 1746.19 -475.316 1787.19 -482.071C1826.74 -488.63 1866.07 -478.757 1904.09 -452.728C1958.27 -416.869 1991.36 -364.613 1999.78 -301.603C2007.68 -264.755 2009.25 -226.173 2010.49 -179.559C2011.54 -167.159 2012.07 -154.678 2012.07 -142.412C2012.07 -94.2218 2004.02 -45.8731 1986.74 9.7443C1982.17 23.4277 1976.98 37.0936 1970.86 51.502C1953.73 99.1258 1934.5 142.882 1912.07 185.287C1888.44 233.03 1856.34 275.739 1821.7 305.573C1814.36 311.961 1806.82 317.961 1799.31 323.405C1757.92 354.381 1710.43 366.148 1665.58 356.546C1609.22 344.762 1559.31 307.453 1527.37 278.229C1482.46 241.781 1459.67 197.04 1439.26 141.072C1427.03 110.567 1418.12 79.4894 1408.69 46.5842C1407.14 41.1773 1405.58 35.7308 1403.99 30.2296C1396.8 5.00272 1394.63 -13.8517 1392.34 -33.8083C1390.74 -47.7176 1389.09 -62.0985 1385.7 -80.1387C1380.95 -104.621 1378.55 -129.473 1378.55 -154.012ZM2013.23 -142.412C2013.23 -154.717 2012.69 -167.244 2011.64 -179.644C2010.4 -226.292 2008.83 -264.944 2000.91 -301.858C1992.44 -365.221 1959.16 -417.805 1904.68 -453.863C1866.43 -480.051 1826.84 -489.98 1787.02 -483.38C1745.83 -476.59 1701.98 -449.98 1660.59 -423.304C1621.72 -397.722 1589.84 -379.056 1560.26 -364.563C1551.12 -360.09 1542.78 -356.195 1534.75 -352.662C1528.07 -349.954 1521.65 -347.422 1515.45 -344.972C1485.63 -333.19 1459.87 -323.012 1432.19 -304.021C1397.88 -281.167 1377.39 -225.088 1377.39 -154.012C1377.39 -129.379 1379.81 -104.427 1384.57 -79.8582C1387.95 -61.8752 1389.6 -47.519 1391.2 -33.6395C1393.5 -13.6183 1395.67 5.29564 1402.89 30.6392C1404.48 36.1454 1406.05 41.5869 1407.6 46.9938C1417.04 79.9362 1425.96 111.057 1438.2 141.601C1458.68 197.762 1481.57 242.677 1526.68 279.276C1558.7 308.575 1608.78 346.008 1665.37 357.844C1710.51 367.509 1758.3 355.675 1799.93 324.517C1807.47 319.061 1815.03 313.036 1822.39 306.621C1857.16 276.687 1889.36 233.837 1913.07 185.95C1935.52 143.502 1954.77 99.6917 1971.9 52.0456C1978.02 37.6348 1983.24 23.9366 1987.82 10.1985C2005.16 -45.5777 2013.23 -94.0679 2013.23 -142.412Z" fill="#EDE9F6"/>
<path d="M1393.04 -157.591C1393.04 -227.7 1411.33 -280.232 1443.21 -301.71C1471.72 -321.535 1496.56 -330.846 1528.02 -342.634C1532.6 -344.347 1537.32 -346.118 1542.21 -347.977C1550.01 -351.24 1558.14 -354.822 1567.05 -358.929C1595.96 -372.259 1627.1 -389.304 1665.08 -412.58C1703.41 -435.533 1747.69 -460.503 1787.8 -466.141C1826.25 -471.603 1864.25 -461.831 1900.75 -437.1C1954.46 -401.998 1985.55 -350.845 1990.66 -289.165C1996.35 -255.518 1996.43 -219.328 1996.51 -181.016L1996.54 -170.628C1997.23 -160.141 1997.58 -149.559 1997.58 -139.129C1997.58 -91.5982 1990.4 -43.124 1974.98 13.4218C1970.97 26.9134 1966.42 40.3081 1961.08 54.3285C1945.76 103.269 1929.08 144.988 1908.56 185.654C1886.99 231.712 1855.9 272.922 1821.02 301.71C1813.84 307.701 1806.46 313.334 1799.05 318.439C1758.92 347.18 1712.77 358.02 1669.09 348.965C1613.57 337.763 1565.22 302.643 1534.44 275.151C1484.75 236.082 1464.93 186.215 1448.89 138.491C1438.62 110.899 1431.15 82.8385 1423.24 53.1392C1421.02 44.7871 1418.77 36.3307 1416.42 27.7502C1409.91 3.55774 1408.31 -14.0752 1406.62 -32.7434C1405.31 -47.2603 1403.95 -62.2713 1400.29 -81.9152C1395.55 -106.488 1393.04 -132.656 1393.04 -157.591ZM1998.73 -139.129C1998.73 -149.591 1998.38 -160.208 1997.68 -170.683L1997.66 -181.019C1997.58 -219.398 1997.51 -255.647 1991.8 -289.356C1986.66 -351.416 1955.37 -402.922 1901.32 -438.242C1864.61 -463.12 1826.37 -472.949 1787.66 -467.45C1747.36 -461.784 1702.97 -436.76 1664.53 -413.744C1626.59 -390.49 1595.49 -373.463 1566.62 -360.158C1557.72 -356.049 1549.61 -352.474 1541.84 -349.226C1536.96 -347.369 1532.24 -345.601 1527.66 -343.888C1496.14 -332.072 1471.23 -322.742 1442.62 -302.845C1410.38 -281.123 1391.89 -228.182 1391.89 -157.591C1391.89 -132.562 1394.41 -106.294 1399.16 -81.6347C1402.82 -62.0677 1404.17 -47.089 1405.48 -32.6019C1407.17 -13.8691 1408.78 3.82337 1415.33 28.1424C1417.67 36.7279 1419.92 45.1769 1422.14 53.5216C1430.06 83.2631 1437.53 111.356 1447.82 138.977C1463.93 186.883 1483.83 236.956 1533.76 276.216C1564.62 303.776 1613.14 339.011 1668.88 350.261C1712.84 359.375 1759.28 348.471 1799.66 319.566C1807.08 314.439 1814.5 308.793 1821.69 302.777C1856.71 273.88 1887.92 232.512 1909.57 186.299C1930.11 145.576 1946.82 103.793 1962.15 54.8201C1967.49 40.7972 1972.05 27.3776 1976.07 13.829C1991.53 -42.8633 1998.73 -91.4567 1998.73 -139.129Z" fill="#EDE9F6"/>
<path d="M1406.57 -161.972C1406.57 -230.147 1423.42 -280.709 1452.8 -300.688C1482.14 -321.311 1506 -329.681 1539.02 -341.263C1542.13 -342.354 1545.31 -343.47 1548.59 -344.628C1556.16 -347.604 1564.06 -350.861 1572.75 -354.593C1600.92 -366.7 1631.34 -382.086 1668.49 -403.017C1714.71 -428.385 1752.75 -446.117 1788.11 -450.172C1825.54 -454.522 1862.26 -444.867 1897.28 -421.469C1950.61 -387.168 1979.76 -337.181 1981.57 -276.91C1983.26 -262.905 1984.05 -247.534 1984.05 -228.465C1984.05 -214.654 1983.65 -200.635 1983.23 -185.79C1983.01 -177.985 1982.78 -170.067 1982.61 -162.021C1982.99 -153.922 1983.18 -145.733 1983.18 -137.646C1983.18 -89.9206 1977.02 -42.3716 1963.21 16.5406C1959.81 29.6648 1955.8 43.1311 1951.29 56.5603C1938.13 105.895 1923.42 146.778 1904.96 185.255C1885.3 229.718 1855.16 269.374 1820.09 296.944C1813.05 302.548 1805.79 307.796 1798.53 312.54C1759.6 339.019 1714.71 348.914 1672.11 340.418C1617.33 329.811 1570.47 296.924 1540.81 271.206C1491.22 233.533 1473.19 185.376 1457.68 135.193C1449.02 110.061 1442.77 84.5346 1436.16 57.5027C1433.55 46.8685 1430.86 35.8623 1427.97 24.7123C1422.02 1.3383 1420.95 -15.2802 1419.82 -32.8683C1418.86 -47.7532 1417.87 -63.1366 1413.96 -84.1149C1409.13 -109.255 1406.57 -136.172 1406.57 -161.972ZM1985.2 -228.465C1985.2 -247.596 1984.41 -263.024 1982.72 -277.024C1980.89 -337.709 1951.55 -388.078 1897.86 -422.609C1862.63 -446.147 1825.67 -455.864 1788 -451.481C1752.46 -447.404 1714.32 -429.635 1667.99 -404.203C1630.87 -383.287 1600.48 -367.916 1572.35 -355.828C1563.67 -352.101 1555.78 -348.844 1548.23 -345.881C1544.97 -344.733 1541.78 -343.612 1538.68 -342.523C1505.58 -330.912 1481.66 -322.519 1452.21 -301.814C1422.48 -281.597 1405.42 -230.623 1405.42 -161.972C1405.42 -136.078 1407.98 -109.061 1412.84 -83.8371C1416.72 -62.9507 1417.71 -47.6119 1418.67 -32.7741C1419.81 -15.1116 1420.88 1.5714 1426.87 25.0842C1429.75 36.2318 1432.44 47.2281 1435.04 57.8573C1441.67 84.924 1447.92 110.485 1456.6 135.657C1472.17 186.036 1490.28 234.411 1540.14 272.285C1569.88 298.06 1616.9 331.061 1671.91 341.715C1714.78 350.263 1759.95 340.314 1799.11 313.681C1806.39 308.922 1813.68 303.655 1820.75 298.025C1855.97 270.336 1886.24 230.505 1905.98 185.862C1924.47 147.326 1939.21 106.369 1952.38 56.9893C1956.89 43.575 1960.91 30.0789 1964.32 16.9027C1978.16 -42.141 1984.33 -89.7991 1984.33 -137.646C1984.33 -145.758 1984.14 -153.966 1983.76 -162.041C1983.94 -170.029 1984.16 -177.948 1984.38 -185.748C1984.8 -200.603 1985.2 -214.632 1985.2 -228.465Z" fill="#EDE9F6"/>
<path d="M1971.78 -265.173C1972.24 -258.468 1972.45 -251.518 1972.45 -243.867C1972.45 -226.145 1971.26 -207.708 1970 -188.189C1969.28 -177.032 1968.53 -165.492 1967.99 -153.679C1968.1 -148.803 1968.16 -143.902 1968.16 -139.051C1968.16 -91.2165 1962.8 -42.2199 1950.8 19.8034C1947.96 32.7905 1944.63 45.9862 1940.89 59.0155C1929.89 109.427 1917.55 148.384 1900.88 185.369C1883.1 228.456 1854.01 266.648 1818.95 292.935C1812.08 298.159 1804.97 303.037 1797.85 307.447C1759.71 332.063 1717.35 340.807 1675.35 332.723C1621.46 322.695 1576.24 291.972 1547.79 267.966C1498.39 231.542 1482.13 184.981 1467.34 132.31C1460.05 109.184 1454.88 85.7197 1449.39 60.8875C1446.6 48.253 1443.72 35.1938 1440.47 21.8293C1435.03 -0.967024 1434.45 -16.7745 1433.84 -33.5031C1433.3 -48.608 1432.73 -64.2268 1428.64 -86.4099C1423.68 -112.357 1421.06 -140.283 1421.06 -167.165C1421.06 -233.211 1436.45 -281.711 1463.27 -300.237C1493.15 -321.583 1515.75 -328.959 1549.97 -340.124L1555.55 -341.947C1562.9 -344.65 1570.55 -347.592 1578.97 -350.949C1606.63 -361.987 1635.36 -375.344 1672.14 -394.258C1716.84 -416.58 1753.7 -432.069 1788.31 -435.103C1824.59 -438.358 1859.94 -428.792 1893.37 -406.676C1944.71 -374.018 1971.84 -326.675 1971.84 -269.749C1971.84 -268.23 1971.82 -266.7 1971.78 -265.173ZM1973.61 -243.867C1973.61 -251.553 1973.38 -258.535 1972.93 -265.206C1972.96 -266.678 1972.99 -268.217 1972.99 -269.749C1972.99 -327.182 1945.66 -374.927 1893.94 -407.823C1860.31 -430.068 1824.74 -439.694 1788.22 -436.419C1753.45 -433.37 1716.49 -417.843 1671.67 -395.464C1634.92 -376.563 1606.22 -363.221 1578.59 -352.193C1570.19 -348.841 1562.54 -345.902 1555.22 -343.208L1549.65 -341.393C1515.35 -330.198 1492.68 -322.802 1462.67 -301.362C1435.5 -282.597 1419.91 -233.683 1419.91 -167.165C1419.91 -140.188 1422.54 -112.168 1427.51 -86.1294C1431.58 -64.0604 1432.15 -48.4988 1432.7 -33.451C1433.31 -16.638 1433.89 -0.763443 1439.36 22.1794C1442.61 35.529 1445.49 48.5806 1448.28 61.2127C1453.77 86.0796 1458.96 109.574 1466.25 132.735C1480.56 183.678 1497.51 232.458 1547.14 269.051C1575.66 293.114 1621.05 323.952 1675.17 334.029C1717.43 342.158 1760.04 333.359 1798.4 308.604C1805.55 304.182 1812.68 299.281 1819.58 294.042C1854.81 267.621 1884.05 229.236 1901.91 185.952C1918.62 148.898 1930.98 109.847 1941.99 59.3879C1945.73 46.3685 1949.07 33.1406 1951.92 20.1113C1963.95 -42.0338 1969.31 -91.1147 1969.31 -139.051C1969.31 -143.912 1969.25 -148.828 1969.14 -153.662C1969.68 -165.41 1970.43 -176.94 1971.15 -188.09C1972.41 -207.636 1973.6 -226.095 1973.61 -243.867Z" fill="#EDE9F6"/>
<path d="M1434.59 -172.304C1434.59 -235.715 1448.57 -281.867 1472.93 -298.924C1503.17 -320.818 1524.37 -327.148 1559.49 -337.632L1561.89 -338.349C1569.06 -340.785 1576.48 -343.409 1584.61 -346.375C1611.31 -356.137 1639.31 -367.901 1675.4 -384.514C1712.81 -401.182 1752.38 -416.896 1788.35 -418.999C1823.59 -421.139 1857.62 -411.678 1889.52 -390.879C1937.46 -360.831 1962.79 -317.754 1962.79 -266.294C1962.79 -261.808 1962.6 -257.203 1962.22 -252.606C1962.23 -251.598 1962.23 -250.664 1962.23 -249.718C1962.23 -230.223 1960.02 -209.559 1957.68 -187.685C1956.2 -173.858 1954.67 -159.563 1953.59 -144.638C1953.51 -82.8111 1945.95 -24.9212 1938.58 23.5575C1936.3 36.412 1933.64 49.326 1930.64 61.9198C1924.85 96.0321 1915.79 140.904 1896.88 185.778C1881.11 226.928 1852.26 264.575 1817.72 289.095C1811 293.924 1804.04 298.43 1797.03 302.483C1760.2 324.841 1719.12 332.671 1678.22 325.149C1625.08 315.705 1581.41 287.176 1554.14 264.906C1504.87 229.778 1489.69 182.925 1476.19 129.77C1470.08 108.398 1465.82 86.7351 1461.31 63.8016C1458.5 49.4923 1455.59 34.699 1452.11 19.4241C1447.12 -2.90124 1447.01 -18 1446.9 -33.9849C1446.79 -49.163 1446.68 -64.8675 1442.43 -88.0915C1437.37 -114.692 1434.59 -144.596 1434.59 -172.304ZM1963.94 -266.294C1963.94 -318.266 1938.4 -361.745 1890.08 -392.029C1858 -412.952 1823.75 -422.472 1788.29 -420.317C1752.16 -418.2 1712.48 -402.45 1674.98 -385.743C1638.91 -369.135 1610.93 -357.383 1584.25 -347.631C1576.14 -344.667 1568.73 -342.046 1561.58 -339.623L1559.2 -338.91C1523.97 -328.392 1502.71 -322.044 1472.32 -300.042C1447.62 -282.746 1433.44 -236.184 1433.44 -172.304C1433.44 -144.504 1436.23 -114.5 1441.3 -87.8158C1445.53 -64.7284 1445.64 -49.0935 1445.75 -33.975C1445.86 -17.9056 1445.97 -2.73248 1451 19.7592C1454.48 35.0118 1457.38 49.7902 1460.19 64.0896C1464.71 87.0529 1468.97 108.743 1475.09 130.159C1488.65 183.556 1503.91 230.649 1553.5 266.008C1580.84 288.338 1624.68 316.969 1678.04 326.445C1719.18 334.016 1760.52 326.134 1797.57 303.66C1804.59 299.586 1811.58 295.063 1818.33 290.207C1853.06 265.563 1882.07 227.698 1897.92 186.329C1916.88 141.343 1925.97 96.3648 1931.77 62.2153C1934.75 49.6462 1937.43 36.7074 1939.71 23.8032C1947.1 -24.7474 1954.66 -82.7093 1954.74 -144.581C1955.82 -159.429 1957.34 -173.711 1958.82 -187.524C1961.28 -210.5 1963.59 -232.14 1963.37 -252.553C1963.75 -257.119 1963.94 -261.766 1963.94 -266.294Z" fill="#EDE9F6"/>
<path d="M1449.09 -179.064C1449.09 -214.501 1453.57 -277.135 1483.62 -298.487C1513.95 -320.752 1533.55 -326.026 1569.13 -335.602C1576.29 -337.811 1583.47 -340.114 1591.23 -342.675C1623.85 -353.457 1655.6 -365.961 1679.61 -375.643C1715.68 -389.668 1753.94 -402.785 1789.29 -403.763C1823.48 -404.783 1856.2 -395.428 1886.54 -375.953C1931.37 -348.267 1955.06 -309.013 1955.06 -262.43C1955.06 -255.448 1954.54 -248.216 1953.49 -240.931C1952.61 -223.717 1949.79 -205.569 1946.8 -186.354C1944.32 -170.465 1941.77 -154.034 1940.02 -136.505C1938.53 -84.8383 1933.82 -34.0284 1927.2 26.3815C1925.49 39.1435 1923.49 51.769 1921.25 63.8833C1916.86 100.258 1910.16 143.074 1893.74 185.229C1879.67 225.154 1851.84 261.246 1817.38 284.273C1810.82 288.711 1804.01 292.846 1797.12 296.556C1761.64 316.632 1721.85 323.559 1682.04 316.588C1629.65 307.747 1587.56 281.416 1561.48 260.881C1512.26 226.943 1498.7 181.789 1486.08 126.289C1480.98 106.426 1477.54 86.3299 1473.89 65.0474C1471.2 49.3095 1468.41 33.038 1464.8 16.094C1461.21 -1.07349 1460.73 -13.4905 1460.73 -23.3711C1460.73 -27.5308 1460.82 -31.4869 1460.92 -35.6839C1461.02 -39.8312 1461.12 -44.1348 1461.12 -48.5973C1461.12 -58.3215 1460.68 -71.8951 1457.26 -90.6883C1451.99 -118.617 1449.09 -150.004 1449.09 -179.064ZM1956.21 -262.43C1956.21 -309.529 1932.31 -349.18 1887.09 -377.107C1857.01 -396.419 1823.18 -406.093 1789.26 -405.083C1753.76 -404.1 1715.4 -390.951 1679.24 -376.888C1655.23 -367.207 1623.51 -354.715 1590.91 -343.943C1583.16 -341.382 1575.98 -339.079 1568.95 -336.91C1533.16 -327.28 1513.49 -321.986 1483.01 -299.604C1452.49 -277.919 1447.94 -214.774 1447.94 -179.064C1447.94 -149.912 1450.85 -118.429 1456.13 -90.4128C1459.54 -71.7413 1459.97 -58.2619 1459.97 -48.5973C1459.97 -44.1497 1459.87 -39.8659 1459.77 -35.7161C1459.67 -31.7029 1459.57 -27.5481 1459.57 -23.3711C1459.57 -13.4111 1460.06 -0.904724 1463.68 16.4042C1467.28 33.3185 1470.07 49.58 1472.76 65.3079C1476.41 86.6103 1479.86 106.741 1484.97 126.639C1497.65 182.417 1511.3 227.814 1560.86 261.995C1587.01 282.585 1629.27 309.013 1681.87 317.893C1721.91 324.905 1761.94 317.94 1797.63 297.742C1804.54 294.024 1811.38 289.87 1817.96 285.41C1852.64 262.238 1880.64 225.913 1894.79 185.743C1911.27 143.456 1917.99 100.526 1922.38 64.1142C1924.63 52.0123 1926.62 39.3669 1928.34 26.5652C1934.96 -33.9019 1939.68 -84.7465 1941.17 -136.408C1942.91 -153.843 1945.46 -170.251 1947.93 -186.123C1950.93 -205.378 1953.76 -223.565 1954.64 -240.787C1955.68 -248.072 1956.21 -255.376 1956.21 -262.43Z" fill="#EDE9F6"/>
<path d="M1462.62 -186.207C1462.62 -243.781 1473.58 -283.408 1493.48 -297.792C1523.65 -320.266 1542.18 -324.678 1575.8 -332.687C1582.84 -334.629 1589.81 -336.617 1597.11 -338.763C1627.04 -347.552 1656.15 -357.33 1683.15 -366.588C1716.2 -377.469 1754.7 -388.563 1789.66 -388.372C1822.38 -388.268 1854.68 -378.748 1883.06 -360.842C1925.71 -334.9 1947.33 -300.005 1947.33 -257.121C1947.33 -248.043 1946.32 -238.556 1944.33 -228.92C1942.62 -214.442 1939.42 -199.267 1936.03 -183.199C1932.34 -165.725 1928.54 -147.655 1926.01 -127.916C1924.18 -97.3805 1922.06 -67.2027 1919.82 -35.2512C1918.33 -14.081 1916.8 7.80702 1915.35 29.8467C1914.23 42.6004 1912.9 54.9468 1911.39 66.5404C1908.67 104.889 1904.22 145.803 1890.11 185.5C1877.68 224.313 1850.85 258.89 1816.49 280.381C1810.08 284.445 1803.41 288.209 1796.65 291.567C1762.52 309.396 1723.97 315.425 1685.19 308.999C1633.48 300.736 1592.95 276.58 1568.05 257.762C1518.83 224.942 1506.78 181.431 1495.13 123.552C1490.93 105.015 1488.2 86.2623 1485.32 66.4137C1482.84 49.417 1480.29 31.8389 1476.64 13.3765C1474.41 1.9543 1473.38 -8.39727 1473.38 -19.1836C1473.38 -25.399 1473.7 -31.0604 1474.03 -37.0497C1474.37 -43.0391 1474.72 -49.2421 1474.72 -56.0513C1474.72 -67.9852 1473.62 -79.6584 1471.24 -92.7799C1465.76 -122.043 1462.62 -156.094 1462.62 -186.207ZM1948.48 -257.121C1948.48 -300.534 1926.65 -335.819 1883.6 -362C1855.07 -380.01 1822.58 -389.584 1789.66 -389.691C1754.56 -389.887 1715.96 -378.763 1682.82 -367.855C1655.83 -358.599 1626.73 -348.824 1596.83 -340.04C1589.53 -337.896 1582.57 -335.911 1575.55 -333.974C1541.8 -325.937 1523.2 -321.508 1492.86 -298.902C1472.62 -284.278 1461.46 -244.25 1461.46 -186.207C1461.46 -156.007 1464.62 -121.855 1470.11 -92.5065C1472.47 -79.4795 1473.57 -67.8958 1473.57 -56.0513C1473.57 -49.2893 1473.22 -43.1086 1472.89 -37.1342C1472.55 -31.125 1472.22 -25.4412 1472.22 -19.1836C1472.22 -8.29542 1473.27 2.14061 1475.51 13.6647C1479.16 32.0923 1481.71 49.6505 1484.18 66.6249C1487.07 86.5107 1489.8 105.289 1494.01 123.868C1505.72 182.052 1517.85 225.811 1567.45 258.885C1592.41 277.753 1633.1 302.008 1685.03 310.298C1724.03 316.764 1762.79 310.703 1797.12 292.772C1803.9 289.401 1810.61 285.62 1817.05 281.546C1851.64 259.894 1878.67 225.066 1891.19 185.98C1905.34 146.136 1909.81 105.1 1912.54 66.692C1914.04 55.1232 1915.38 42.7544 1916.5 29.9634C1917.95 7.90639 1919.49 -13.9867 1920.97 -35.1419C1923.21 -67.1009 1925.33 -97.2811 1927.15 -127.777C1929.67 -147.404 1933.47 -165.442 1937.15 -182.888C1940.54 -198.991 1943.75 -214.199 1945.46 -228.679C1947.46 -238.35 1948.48 -247.939 1948.48 -257.121Z" fill="#EDE9F6"/>
</g>
<defs>
<linearGradient id="paint0_linear_54_1946" x1="960" y1="381.127" x2="960" y2="1282" gradientUnits="userSpaceOnUse">
<stop stop-color="#FBFAFF"/>
<stop offset="1" stop-color="white"/>
</linearGradient>
<clipPath id="clip0_54_1946">
<rect width="1920" height="1282" fill="white"/>
</clipPath>
</defs>
</svg>
