<svg width="1920" height="1282" viewBox="0 0 1920 1282" fill="none" xmlns="http://www.w3.org/2000/svg">
<g clip-path="url(#clip0_54_1732)">
<rect width="1920" height="1282" fill="url(#paint0_linear_54_1732)"/>
<path d="M-287.797 -345.999C-312.388 -389.77 -326.399 -423.143 -333.222 -454.21C-357.358 -573.565 -267.536 -719.391 -104.38 -825.711C-22.363 -878.183 65.1798 -908.473 148.778 -913.302C221.923 -916.991 303.383 -901.03 405.136 -863.069C474.953 -836.563 543.941 -799.245 622.244 -745.626C701.318 -691.054 752.302 -641.04 787.551 -583.46C789.128 -580.83 790.668 -578.181 792.255 -575.357C829.831 -508.474 867.567 -390.728 893.195 -260.387C919.245 -127.911 927.398 -7.49737 915.005 61.7213C918.271 229.682 840.144 249.269 721.889 278.929C669.432 292.082 609.98 306.997 544.887 337.029C497.919 358.713 456.361 378.755 419.692 396.44C243.608 481.369 163.246 520.137 26.1145 476.872C-6.27863 465.823 -32.8821 442.107 -52.9434 406.399C-68.757 378.252 -80.6536 342.415 -88.302 299.878C-95.1172 261.226 -99.6688 220.011 -104.486 176.374C-110.821 118.982 -117.369 59.6378 -129.867 -2.29618C-145.019 -75.8606 -173.861 -149.845 -218.04 -228.482C-224.598 -240.154 -231.691 -252.279 -239.12 -264.518C-242.462 -270.018 -245.787 -275.467 -249.078 -280.868C-262.904 -303.53 -275.963 -324.936 -287.797 -345.999ZM793.22 -575.867C791.626 -578.704 790.079 -581.371 788.492 -584.022C753.111 -641.818 701.982 -691.984 622.709 -746.693C544.309 -800.379 475.226 -837.746 405.304 -864.297C303.393 -902.314 221.79 -918.299 148.488 -914.603C64.7204 -909.763 -22.973 -879.423 -105.118 -826.865C-268.624 -720.32 -358.61 -574.028 -334.369 -454.167C-327.508 -422.925 -313.442 -389.409 -288.766 -345.487C-276.917 -324.396 -263.852 -302.979 -250.017 -280.301C-246.721 -274.903 -243.399 -269.458 -240.06 -263.957C-232.642 -251.733 -225.558 -239.626 -219.009 -227.969C-174.916 -149.485 -146.133 -75.6575 -131.011 -2.25802C-118.534 59.5995 -111.987 118.907 -105.655 176.271C-100.838 219.931 -96.286 261.167 -89.4579 299.87C-81.7766 342.591 -69.8174 378.602 -53.9128 406.912C-33.6478 442.982 -6.76449 466.936 25.9988 478.113C92.6797 499.152 147.092 501.629 207.95 486.385C267.042 471.59 331.342 440.576 420.336 397.653C457.001 379.971 498.556 359.924 545.522 338.25C610.528 308.249 669.946 293.349 722.363 280.202C783.399 264.894 831.615 252.806 865.474 223.126C902.088 191.044 917.722 141.376 916.172 62.0767C928.588 -7.15965 920.429 -127.766 894.35 -260.41C868.684 -390.91 830.878 -508.837 793.22 -575.867Z" fill="#EDE9F6"/>
<path d="M781.44 -570.562C782.358 -568.99 783.252 -567.423 784.162 -565.804C820.061 -501.898 856.135 -388.335 880.643 -262.033C905.595 -133.498 913.336 -16.2852 901.351 51.516C904.236 214.798 828.881 235.431 714.814 266.657C665.49 280.163 609.584 295.471 548.5 324.612C503.896 345.719 464.326 365.277 429.414 382.53C260.055 466.229 182.758 504.429 50.1391 463.881C15.6126 452.981 -12.8524 427.949 -34.4708 389.465C-48.9685 363.656 -60.4617 331.634 -68.6284 294.291C-80.2376 249.049 -88.543 199.753 -97.3324 147.564C-105.59 98.5251 -114.134 47.8109 -126.217 -4.69923C-151.894 -113.37 -199.261 -206.32 -232.656 -266.783L-238.74 -277.343C-246.124 -290.163 -253.1 -302.274 -259.908 -314.394C-288.87 -365.951 -309.856 -409.233 -318.139 -452.899C-339.57 -568.539 -252.915 -710.593 -97.3743 -814.791C-18.0971 -868.664 66.2916 -900.487 146.663 -906.82C218.103 -912.116 297.761 -897.613 397.35 -861.176C470.123 -834.732 541.026 -795.955 620.479 -739.137C697.513 -683.59 747.041 -631.804 781.067 -571.225L781.44 -570.562ZM785.133 -566.317C784.22 -567.944 783.321 -569.52 782.399 -571.083L782.037 -571.738C747.882 -632.54 698.206 -684.493 620.968 -740.186C541.407 -797.081 470.399 -835.919 397.509 -862.407C297.76 -898.899 217.951 -913.427 146.351 -908.12C65.818 -901.774 -18.7201 -869.899 -98.1254 -815.94C-254.001 -711.519 -340.814 -569.013 -319.294 -452.886C-310.966 -409.005 -289.922 -365.581 -260.88 -313.88C-254.066 -301.751 -247.086 -289.64 -239.7 -276.813L-233.627 -266.267C-200.287 -205.904 -152.988 -113.092 -127.354 -4.62588C-115.287 47.837 -106.747 98.5265 -98.4878 147.547C-89.6949 199.766 -81.386 249.093 -69.7679 294.365C-61.5711 331.844 -50.0191 364.019 -35.438 389.976C-13.6149 428.825 15.1444 454.115 50.0393 465.121C183.07 505.805 260.473 467.552 430.065 383.738C464.975 366.486 504.539 346.932 549.141 325.821C610.152 296.715 666.02 281.42 715.305 267.927C774.181 251.809 820.683 239.078 853.384 209.529C888.734 177.588 903.887 128.961 902.521 51.8775C914.522 -15.9494 906.775 -133.36 881.797 -262.048C857.255 -388.516 821.115 -502.263 785.133 -566.317Z" fill="#EDE9F6"/>
<path d="M-16.1752 372.13C-29.2335 348.88 -40.0996 320.827 -48.4745 288.759C-66.5115 235.761 -79.759 176.496 -93.7837 113.75C-102.538 74.5894 -111.589 34.0964 -122.348 -7.40834C-149.6 -109.358 -190.147 -197.22 -226.217 -269.725L-228.472 -273.893C-263.672 -338.928 -294.072 -395.099 -303.249 -452.545C-322.091 -564.627 -238.758 -702.979 -90.9409 -805.022C-13.3861 -861.09 65.6012 -893.502 143.842 -901.36C212.573 -908.127 292.715 -894.6 388.853 -860.022C463.563 -833.93 538.539 -792.4 618.067 -733.051C693.153 -676.546 742.485 -621.357 774.831 -557.743L775.616 -556.351C809.888 -495.33 844.385 -385.802 867.896 -263.378C891.853 -138.622 899.286 -24.4601 887.785 42.0132C890.447 200.831 817.882 222.489 708.04 255.272C661.878 269.052 609.559 284.672 552.517 312.849C510.363 333.341 472.856 352.368 439.761 369.152C277.161 451.618 202.951 489.258 74.7755 451.233C37.8774 440.497 7.27517 413.884 -16.1752 372.13ZM768.043 -572.751C735.616 -630.486 688.123 -681.751 618.586 -734.081C538.932 -793.522 463.834 -835.119 389.003 -861.255C292.7 -895.895 212.398 -909.436 143.507 -902.657C65.1037 -894.783 -14.0358 -862.314 -91.7057 -806.162C-164.618 -755.827 -223.124 -696.03 -260.9 -633.243C-298.677 -570.446 -313.722 -507.97 -304.407 -452.573C-295.188 -394.859 -264.725 -338.576 -229.453 -273.403L-227.212 -269.263C-191.194 -196.862 -150.688 -109.092 -123.474 -7.28836C-112.729 34.1771 -103.677 74.6633 -94.9277 113.815C-80.8911 176.601 -67.6347 235.911 -49.5863 288.929C-41.1913 321.086 -30.2742 349.264 -17.1438 372.643C6.52531 414.785 37.4244 441.648 74.6982 452.489C203.272 490.63 277.588 452.937 440.415 370.35C473.509 353.57 511.015 334.544 553.167 314.059C610.141 285.911 662.422 270.3 708.551 256.54C765.244 239.615 810.018 226.251 841.521 196.809C875.587 164.983 890.212 117.353 888.954 42.3731C900.472 -24.1236 893.034 -138.476 869.043 -263.399C845.507 -385.984 810.94 -495.693 776.584 -556.863L775.815 -558.229C773.347 -563.075 770.727 -567.972 768.043 -572.751Z" fill="#EDE9F6"/>
<path d="M1.24407 353.259C-10.1534 332.963 -20.066 309.178 -28.2109 282.578C-54.6816 220.574 -74.1882 149.058 -94.8422 73.3401C-102.245 46.1928 -109.901 18.1212 -118.088 -10.2823C-148.792 -113.374 -189.448 -205.262 -219.13 -272.359C-250.434 -334.288 -279.986 -392.743 -287.54 -451.553C-295.508 -504.927 -280.643 -565.213 -244.555 -625.919C-208.391 -686.743 -152.709 -744.947 -83.5277 -794.243C-8.83665 -851.739 67.0286 -885.61 141.963 -894.91C208.908 -903.277 287.148 -891.241 381.154 -858.119C458.736 -832.124 535.628 -789.096 616.225 -726.573C679.294 -677.234 723.005 -628.717 753.794 -573.89C759.072 -564.49 764.048 -554.744 768.575 -544.918C800.987 -486.103 833.505 -380.886 855.596 -263.383C878.494 -141.575 885.227 -34.0791 874.059 31.5445C876.365 185.708 806.605 208.457 701.012 242.89C658.028 256.906 609.308 272.793 556.321 299.976C516.69 319.803 481.296 338.267 450.064 354.552C294.163 435.862 223.009 472.974 99.3295 437.612C59.7892 427.136 26.7911 398.752 1.24407 353.259ZM754.764 -574.403C723.862 -629.432 680.012 -678.104 616.77 -727.587C536.033 -790.214 459.009 -833.315 381.285 -859.355C287.117 -892.533 208.713 -904.588 141.605 -896.202C66.5056 -886.879 -9.50418 -852.951 -84.3077 -795.367C-153.579 -746.009 -209.35 -687.709 -245.578 -626.772C-281.801 -565.84 -296.713 -505.275 -288.704 -451.617C-281.118 -392.553 -251.504 -333.973 -220.152 -271.952C-190.504 -204.937 -149.879 -113.102 -119.202 -10.1185C-111.023 18.2626 -103.369 46.3296 -95.9644 73.4759C-75.2977 149.245 -55.7725 220.819 -29.2929 282.838C-21.1387 309.474 -11.1818 333.367 0.276301 353.771C26.0443 399.657 59.3509 428.292 99.2699 438.874C223.34 474.339 294.601 437.178 450.731 355.751C481.959 339.462 517.348 321.003 556.976 301.175C609.909 274.026 658.59 258.152 701.542 244.143C756.036 226.369 799.085 212.335 829.406 183.002C862.19 151.29 876.321 104.685 875.226 31.9071C886.41 -33.7489 879.674 -141.429 856.747 -263.4C834.627 -381.045 802.036 -486.46 769.578 -545.364C765.055 -555.172 760.065 -564.963 754.764 -574.403Z" fill="#EDE9F6"/>
<path d="M16.6284 334.59C7.1228 317.66 -1.47558 298.432 -8.93761 277.419C-46.5474 204.64 -73.9301 117.593 -102.912 25.4514C-106.847 12.9379 -110.815 0.316803 -114.857 -12.4112C-140.198 -89.5895 -167.893 -159.658 -192.327 -221.477C-199.68 -240.073 -206.62 -257.64 -213.147 -274.501C-243.781 -339.94 -267.628 -394.397 -272.999 -450.259C-279.67 -501.97 -264.902 -560.434 -230.299 -619.346C-195.609 -678.4 -142.574 -735.189 -76.9198 -783.575C-4.98192 -842.605 67.8648 -877.979 139.619 -888.722C204.839 -898.716 281.281 -888.171 373.304 -856.474C452.751 -830.949 533.899 -785.125 614.521 -720.276C671.867 -673.76 712.159 -627.902 741.317 -575.972C749.203 -561.925 756.365 -547.169 762.618 -532.119C793.05 -474.992 823.425 -373.997 843.897 -261.881C865.19 -145.271 871.304 -41.9164 860.663 21.6752C862.579 171.402 795.515 195.329 693.992 231.537C654.131 245.753 608.956 261.867 559.945 288.037C522.854 307.191 489.572 325.07 460.214 340.853C310.686 421.207 242.443 457.877 123.042 425.175C80.4631 415.002 44.6682 384.529 16.6284 334.59ZM742.287 -576.485C713.02 -628.611 672.6 -674.614 615.08 -721.272C534.322 -786.238 453.013 -832.14 373.426 -857.713C281.237 -889.468 204.63 -900.034 139.235 -890.008C67.322 -879.24 -5.67332 -843.807 -77.7171 -784.687C-143.451 -736.244 -196.574 -679.356 -231.322 -620.195C-266.056 -561.063 -280.873 -502.334 -274.165 -450.359C-268.773 -394.272 -244.875 -339.682 -214.195 -274.154C-207.69 -257.342 -200.748 -239.773 -193.395 -221.171C-168.968 -159.375 -141.284 -89.3299 -115.958 -12.2043C-111.924 0.51017 -107.953 13.1325 -104.018 25.6403C-75.0134 117.857 -47.6117 204.967 -9.97668 277.776C-2.53612 298.765 6.10902 318.091 15.6601 335.102C43.927 385.446 80.0406 416.173 123.001 426.439C242.787 459.252 311.133 422.518 460.885 342.038C490.246 326.264 523.518 308.379 560.611 289.233C609.574 263.093 654.715 246.986 694.545 232.787C746.941 214.095 788.324 199.331 817.516 170.038C849.076 138.367 862.749 92.7242 861.831 22.034C872.486 -41.5945 866.372 -145.113 845.049 -261.882C824.547 -374.153 794.114 -475.324 763.64 -532.525C757.401 -547.566 750.205 -562.383 742.287 -576.485Z" fill="#EDE9F6"/>
<path d="M-0.54559 250.583C-42.7665 175.373 -75.201 85.7739 -110.236 -15.0775C-124.998 -56.142 -139.486 -94.8493 -153.499 -132.28C-173.133 -184.729 -191.674 -234.273 -205.975 -277.355C-231.953 -337.874 -253.735 -392.575 -257.405 -449.783C-262.837 -499.855 -248.263 -556.487 -215.259 -613.583C-182.17 -670.836 -131.92 -726.157 -69.9447 -773.572C-0.954888 -834.092 68.7371 -870.891 137.212 -882.961C200.582 -894.529 275.128 -885.377 365.106 -854.978C447.419 -829.47 530.579 -781.976 612.301 -713.813C663.707 -670.571 701.875 -626.076 728.978 -577.795C739.414 -559.206 748.566 -539.403 756.181 -518.933C813.846 -406.58 869.445 -123.372 847.34 12.4196C849.05 157.81 784.78 182.894 687.495 220.869C650.843 235.168 609.306 251.381 564.386 276.426C529.98 294.798 498.954 312.027 471.578 327.219C328.637 406.571 263.4 442.791 148.335 412.565C102.361 402.745 63.3359 369.748 32.3231 314.503C25.0143 301.483 18.1537 287.153 11.9259 271.914C7.70747 264.982 3.53045 257.844 -0.54559 250.583ZM729.947 -578.308C702.742 -626.771 664.447 -671.415 612.879 -714.79C531.01 -783.082 447.683 -830.666 365.216 -856.221C275.067 -886.68 200.349 -895.85 136.805 -884.245C68.1618 -872.147 -1.67233 -835.279 -70.7603 -774.669C-132.806 -727.202 -183.137 -671.788 -216.29 -614.429C-249.412 -557.124 -264.035 -500.236 -258.577 -449.921C-254.893 -392.499 -233.06 -337.664 -207.047 -277.07C-192.762 -234.024 -174.21 -184.468 -154.576 -132.005C-140.564 -94.5737 -126.081 -55.8754 -111.325 -14.8311C-76.2628 86.0877 -43.7996 175.762 -1.51046 251.094C2.57443 258.371 6.76156 265.526 10.9319 272.358C17.1206 287.542 24.0166 301.935 31.3582 315.013C62.6083 370.681 101.956 403.93 148.317 413.837C204.049 428.476 249.65 427.874 300.771 411.815C349.698 396.449 401.11 367.913 472.265 328.41C499.637 313.214 530.663 295.991 565.065 277.613C609.942 252.601 651.45 236.398 688.076 222.101C738.282 202.501 777.943 187.027 805.927 157.771C836.188 126.131 849.318 81.419 848.508 12.7815C858.54 -48.8172 852.929 -148.218 833.09 -259.836C814.093 -366.755 785.728 -463.753 757.22 -519.302C749.612 -539.758 740.427 -559.64 729.947 -578.308Z" fill="#EDE9F6"/>
<path d="M-9.83737 201.034C-49.4499 130.462 -81.194 50.9392 -107.021 -17.5413C-142.621 -108.804 -179.122 -204.214 -199.959 -279.682C-225.234 -344.83 -241.206 -395.767 -242.8 -448.586C-251.259 -547.647 -182.492 -668.052 -63.3414 -762.842C2.83629 -824.934 69.4849 -863.217 134.78 -876.651C196.356 -889.886 269.063 -882.223 357.075 -853.239C441.102 -828.24 528.657 -777.848 610.29 -707.515C657.061 -666.886 692.15 -625.126 717.561 -579.856C730.595 -556.634 741.156 -532.556 749.845 -506.248C776.324 -452.452 802.468 -359.907 819.825 -258.576C838.018 -152.368 843.007 -57.331 833.514 2.16724C834.824 143.188 773.24 169.567 680.019 209.502C646.534 223.839 608.585 240.093 567.691 263.965C536.003 281.527 507.244 298.061 481.876 312.657C349.307 388.864 282.767 427.119 171.891 399.536C122.701 390.349 78.7368 353.459 44.7234 292.862C40.0044 284.455 35.4268 275.51 31.1138 266.256C17.1211 246.461 3.36974 224.563 -9.83737 201.034ZM718.528 -580.367C693.019 -625.813 657.812 -667.715 610.893 -708.478C529.099 -778.948 441.363 -829.436 357.174 -854.483C268.99 -883.528 196.092 -891.2 134.35 -877.933C68.8874 -864.459 2.09654 -826.107 -64.1761 -763.925C-183.557 -668.948 -252.461 -548.176 -243.975 -448.763C-242.202 -390.033 -221.799 -332.926 -201.052 -279.468C-180.219 -204.001 -143.705 -108.548 -108.092 -17.2485C-82.2461 51.2802 -50.4751 130.87 -10.8045 201.546C2.4278 225.12 16.2161 247.074 30.1664 266.784C34.4189 275.944 39.0126 284.928 43.7542 293.375C78.0097 354.403 122.32 391.553 171.895 400.81C283.14 428.481 349.789 390.166 482.569 313.829C507.939 299.243 536.696 282.713 568.389 265.149C609.235 241.299 647.162 225.054 680.62 210.723C728.736 190.113 766.737 173.838 793.597 144.561C822.635 112.908 835.302 69.103 834.682 2.51949C844.19 -57.0044 839.199 -152.209 820.981 -258.564C803.598 -360.033 777.405 -452.747 750.9 -506.57C742.221 -532.874 731.617 -557.049 718.528 -580.367Z" fill="#EDE9F6"/>
<path d="M-23.7648 149.482C-50.3899 102.043 -76.5354 46.5728 -103.689 -20.0937C-149.56 -129.076 -179.076 -214.84 -193.929 -282.302C-214.711 -342.583 -228.487 -393.748 -228.245 -447.806C-234.06 -543.269 -168.387 -660.07 -56.8536 -752.671C6.48816 -816.385 70.0992 -856.155 132.245 -870.903C191.998 -885.792 262.899 -879.598 348.994 -851.973C458.823 -820.548 550.645 -752.818 608.336 -701.533C650.986 -663.313 683.289 -624.125 707.081 -581.733C722.426 -554.392 734.388 -525.599 743.652 -493.708C793.532 -387.538 839.495 -132.95 820.022 -7.88287C820.971 128.966 762.038 156.725 672.833 198.737C642.537 213.006 608.199 229.177 571.354 251.792C542.48 268.454 516.076 284.221 492.782 298.135C366.142 373.779 302.574 411.746 195.766 386.745C142.103 378.154 93.5972 337.698 55.4549 269.737C53.7995 266.788 52.1434 263.746 50.529 260.696C24.3932 228.375 0.11939 192.038 -23.7648 149.482ZM708.048 -582.245C684.161 -624.805 651.748 -664.133 608.954 -702.478C551.146 -753.867 459.137 -821.728 349.083 -853.218C262.806 -880.907 191.722 -887.112 131.784 -872.174C69.4784 -857.391 5.71857 -817.539 -57.7065 -753.737C-169.448 -660.962 -235.257 -543.807 -229.421 -448.026C-229.664 -393.807 -215.854 -342.5 -195.046 -282.154C-180.195 -214.685 -150.649 -128.829 -104.746 -19.7704C-77.5672 46.9555 -51.3939 102.489 -24.7322 149.994C-0.798861 192.638 23.5274 229.049 49.6338 261.312C51.1609 264.231 52.8246 267.286 54.4875 270.249C92.8744 338.646 141.738 379.373 195.789 388.019C302.962 413.108 366.636 375.079 493.492 299.31C516.783 285.4 543.178 269.63 572.057 252.958C608.876 230.369 643.19 214.207 673.467 199.949C763.001 157.78 822.15 129.916 821.187 -7.52641C840.692 -132.712 794.647 -387.747 744.724 -493.996C735.465 -525.877 723.457 -554.789 708.048 -582.245Z" fill="#EDE9F6"/>
<path d="M-38.9572 99.5351C-59.8278 62.3427 -79.5956 22.2981 -99.383 -22.8681C-145.827 -125.62 -175.344 -213.916 -187.115 -285.313C-201.949 -334.804 -215.338 -388.631 -213.049 -447.504C-216.326 -539.426 -153.93 -652.603 -50.2091 -742.917C10.997 -809.175 69.7831 -849.238 129.554 -865.428C187.393 -881.942 256.411 -877.139 340.563 -850.757C429.064 -826.277 523.296 -771.065 605.918 -695.285C644.909 -659.253 674.695 -622.429 696.981 -582.714C714.494 -551.506 727.613 -518.14 737.093 -480.702C783.006 -377.741 824.894 -138.969 806.583 -17.2199C807.309 115.62 751.087 144.818 665.976 189.015C638.943 203.054 608.3 218.968 575.589 240.169C549.678 255.815 525.773 270.697 504.684 283.838C384.044 359.004 323.487 396.729 220.719 374.185C150.167 364.728 100.395 304.257 71.0523 255.196L70.9491 255.055C31.4997 211.897 -4.45261 161.024 -38.9572 99.5351ZM697.945 -583.224C675.57 -623.098 645.678 -660.057 606.559 -696.217C523.76 -772.15 429.326 -827.48 340.643 -852.009C256.296 -878.455 187.088 -883.26 129.064 -866.696C69.136 -850.458 10.2046 -810.312 -51.0779 -743.965C-154.985 -653.491 -217.511 -539.983 -214.226 -447.768C-216.519 -388.735 -203.097 -334.762 -188.248 -285.238C-176.476 -213.801 -146.921 -125.37 -100.422 -22.5017C-80.6152 22.7094 -60.8247 62.7945 -39.9213 100.045C-5.36623 161.624 30.6403 212.579 70.156 255.822C99.6786 305.17 149.763 365.948 220.768 375.471C323.892 398.09 384.554 360.297 505.409 285.006C526.494 271.87 550.392 256.977 576.312 241.338C609.002 220.142 639.622 204.243 666.644 190.216C752.057 145.85 808.489 116.547 807.752 -16.868C826.083 -138.732 784.121 -377.926 738.178 -480.94C728.706 -518.383 715.53 -551.888 697.945 -583.224Z" fill="#EDE9F6"/>
<path d="M-55.3034 55.279C-69.558 29.8745 -83.4616 2.74508 -96.6377 -25.361C-144.339 -124.145 -173.724 -214.897 -181.626 -287.814C-197.459 -350.78 -202.646 -398.234 -198.989 -446.587C-199.296 -490.078 -185.231 -539.39 -158.31 -589.245C-131.227 -639.4 -91.7222 -688.981 -44.0652 -732.626C14.2631 -800.626 70.132 -842.149 126.781 -859.606C182.772 -877.82 250.002 -874.507 332.311 -849.479C423.718 -825.171 520.136 -768.318 603.83 -689.385C639.573 -655.425 667.093 -620.844 687.957 -583.661C707.464 -548.896 721.46 -511.164 730.748 -468.303C773.029 -367.586 809.946 -144.484 792.812 -27.4771C793.119 101.461 739.441 132.304 658.187 178.991C634.397 192.663 607.429 208.155 578.81 227.829C555.929 242.34 535.511 255.659 515.773 268.537C400.708 343.588 342.955 381.261 243.985 361.32C173.779 353.849 121.418 296.455 89.8493 249.629L89.7377 249.493C36.8357 197.862 -11.963 132.52 -55.3034 55.279ZM688.924 -584.172C667.976 -621.506 640.354 -656.22 604.485 -690.297C520.614 -769.402 423.98 -826.376 332.382 -850.735C249.872 -875.823 182.441 -879.137 126.259 -860.863C69.4515 -843.357 13.4451 -801.747 -44.9563 -733.655C-92.6487 -689.977 -132.219 -640.312 -159.349 -590.062C-186.361 -540.045 -200.472 -490.536 -200.162 -446.891C-203.83 -398.432 -198.632 -350.841 -182.775 -287.815C-174.872 -214.825 -145.433 -123.893 -97.658 -24.9493C-84.4693 3.17931 -70.543 30.3491 -56.2682 55.7897C-12.866 133.141 36.0108 198.593 89.0038 250.333C120.761 297.418 173.425 355.088 244.055 362.601C343.378 382.617 401.24 344.878 516.51 269.692C536.25 256.813 556.66 243.498 579.552 228.978C608.155 209.315 635.107 193.832 658.889 180.17C740.427 133.319 794.297 102.365 793.982 -27.1224C801.814 -80.5662 798.528 -163.377 784.964 -254.217C772.226 -339.525 752.367 -419.63 731.841 -468.503C722.569 -511.378 708.514 -549.259 688.924 -584.172Z" fill="#EDE9F6"/>
<path d="M-68.306 18.9247C-76.751 3.87291 -85.0262 -11.7526 -92.91 -27.5184C-142.898 -124.795 -171.372 -215.574 -175.262 -290.057C-186.963 -348.288 -189.7 -396.175 -184.147 -445.434C-182.158 -531.573 -127.323 -634.953 -37.4528 -722.033C17.8773 -791.783 70.7576 -834.729 124.253 -853.369C178.325 -873.265 243.713 -871.393 324.158 -847.653C418.418 -823.472 516.99 -764.911 601.741 -682.758C634.604 -650.679 660.088 -618.131 679.655 -583.255C701.025 -545.166 715.678 -503.241 724.451 -455.077C762.184 -358.764 794.903 -146.949 779.35 -36.8259C779.309 88.436 728.174 121.084 650.77 170.481C630.305 183.546 607.106 198.347 582.673 216.281C562.984 229.472 545.194 241.689 527.992 253.505C421.935 326.32 363.515 366.433 268.243 349.025C198.47 343.502 143.505 289.153 109.673 244.528C42.4168 185.471 -17.4266 109.609 -68.306 18.9247ZM680.623 -583.768C660.977 -618.785 635.392 -651.46 602.412 -683.652C517.477 -765.988 418.683 -824.676 324.22 -848.911C243.563 -872.713 177.965 -874.581 123.701 -854.613C70.0521 -835.924 17.036 -792.882 -38.3655 -723.034C-128.377 -635.82 -183.33 -532.159 -185.319 -445.784C-190.887 -396.436 -188.142 -348.413 -176.425 -290.135C-172.538 -215.548 -144 -124.544 -93.9123 -27.0753C-86.018 -11.286 -77.7264 4.36875 -69.2726 19.4363C-18.2986 110.289 41.6614 186.296 108.95 245.362C142.856 290.106 198.143 344.76 268.34 350.315C363.961 367.786 422.491 327.6 528.747 254.648C545.95 242.834 563.737 230.621 583.436 217.41C607.857 199.488 631.042 184.695 651.502 171.641C729.171 122.066 780.482 89.3135 780.52 -36.4745C787.891 -88.6423 785.239 -165.29 773.039 -252.212C761.828 -332.093 744.076 -407.989 725.559 -455.232C716.797 -503.423 702.086 -545.515 680.623 -583.768Z" fill="#EDE9F6"/>
<path d="M-78.7738 -11.0021C-82.389 -17.446 -85.9825 -24.0293 -89.4554 -30.5659C-141.884 -126.779 -169.43 -217.526 -169.11 -292.999C-176.975 -346.335 -177.096 -394.559 -169.506 -444.876C-164.892 -527.443 -113.149 -627.225 -31.0871 -711.85C21.9253 -784.36 70.372 -827.441 121.413 -847.471C173.511 -869.052 237.02 -868.628 315.579 -846.184C411.237 -822.512 514.548 -760.712 599.05 -676.629C629.326 -646.301 652.972 -615.638 671.341 -582.896C694.76 -541.154 709.414 -496.553 717.463 -442.528C750.859 -350.12 779.54 -153.251 765.125 -47.1445C764.704 74.6749 716.042 109.332 642.379 161.797C625.33 173.944 606.008 187.708 585.849 203.604C569.521 215.253 554.535 226.146 540.047 236.687C439.226 310.008 383.695 350.401 291.958 335.556C222.71 331.989 165.157 280.717 129.061 238.337C48.8334 174.602 -23.0009 88.4103 -78.7738 -11.0021ZM672.309 -583.408C653.862 -616.29 630.124 -647.073 599.735 -677.51C515.047 -761.783 411.49 -823.717 315.621 -847.442C236.85 -869.951 173.125 -870.366 120.828 -848.702C69.6308 -828.613 21.0573 -785.436 -32.0168 -712.829C-114.199 -628.086 -166.05 -528.045 -170.671 -445.27C-178.279 -394.883 -178.155 -346.529 -170.277 -293.159C-170.603 -217.537 -142.993 -126.527 -90.4374 -30.0839C-86.9621 -23.5428 -83.3601 -16.9493 -79.7374 -10.4921C-23.8549 89.1157 48.1142 175.466 128.398 239.224C164.57 281.725 222.442 333.264 292.083 336.851C384.162 351.748 439.807 311.282 540.821 237.815C555.307 227.278 570.288 216.38 586.631 204.729C606.791 188.831 626.107 175.07 643.146 162.932C681.223 135.812 711.298 114.395 732.661 83.9316C755.726 51.0404 766.104 10.7251 766.297 -46.7921C773.099 -96.8546 771.003 -169.412 760.378 -251.023C750.693 -325.412 735.069 -397.039 718.585 -442.629C710.545 -496.703 695.83 -541.484 672.309 -583.408Z" fill="#EDE9F6"/>
<path d="M-91.1311 -40.4427C-143.083 -133.047 -168.142 -221.099 -163.592 -295.083C-168.069 -344.698 -165.545 -390.462 -155.406 -443.569C-148.109 -522.714 -99.3212 -619.003 -24.8896 -701.208C25.128 -775.64 70.7514 -820.134 118.723 -841.294C168.219 -864.288 231.706 -865.377 307.451 -844.54C406.004 -821.07 511.581 -757.59 597.128 -670.366C625.131 -641.641 647.146 -612.693 664.435 -581.875C689.507 -537.183 704.399 -488.84 711.288 -429.741C741.354 -338.101 764.94 -159.291 751.558 -56.9357C750.669 61.9527 706.727 97.0425 633.927 155.181C619.728 166.523 605.05 178.244 589.248 191.737C576.429 201.54 564.446 210.845 552.849 219.832C456.85 294.33 403.969 335.363 315.368 323.146C246.586 321.563 186.363 273.368 147.94 233.218C54.3164 165.653 -26.7754 73.7616 -86.6785 -32.607C-88.187 -35.2333 -89.6687 -37.8358 -91.1311 -40.4427ZM665.406 -582.389C648.042 -613.339 625.937 -642.402 597.83 -671.233C512.088 -758.656 406.262 -822.282 307.489 -845.801C231.523 -866.701 167.798 -865.597 118.104 -842.509C69.9796 -821.284 24.2371 -776.688 -25.8423 -702.16C-100.372 -619.856 -149.257 -523.33 -156.568 -444.011C-166.722 -390.841 -169.252 -344.963 -164.766 -295.321C-169.333 -221.156 -144.205 -132.808 -92.0998 -39.9299C-90.6348 -37.3185 -89.1506 -34.7114 -87.638 -32.0874C-27.621 74.4889 53.6345 166.561 147.339 234.169C185.842 274.424 246.373 322.85 315.514 324.437C404.463 336.706 457.451 295.585 553.648 220.949C565.239 211.951 577.222 202.655 590.056 192.839C605.865 179.336 620.543 167.624 634.731 156.287C671.106 127.238 699.833 104.294 720.262 73.1505C742.297 39.5691 752.309 -0.441082 752.729 -56.5917C759.008 -104.585 757.505 -173.114 748.486 -249.47C740.346 -318.393 726.863 -385.811 712.419 -429.801C705.539 -488.96 690.589 -537.499 665.406 -582.389Z" fill="#EDE9F6"/>
<path d="M-95.3644 -55.4287C-144.488 -142.997 -166.035 -226.721 -157.679 -297.549C-159.032 -342.288 -153.901 -387.037 -141.034 -442.743C-131.106 -518.626 -85.3804 -611.45 -18.7048 -691.106C28.8344 -768.573 70.3084 -813.129 115.828 -835.637C163.378 -860.331 225.01 -862.892 299.031 -843.263C400.468 -819.912 508.322 -754.62 594.957 -664.113C620.933 -636.825 641.495 -609.41 657.818 -580.313C684.494 -532.759 699.49 -480.767 705.013 -416.696C730.493 -329.469 750.367 -164.17 738.192 -66.1903C736.896 50.508 694.873 88.3767 625.258 151.126C615.001 160.38 604.377 169.945 593.146 180.44C584.08 187.962 575.382 195.242 567.014 202.242C475.667 278.688 425.349 320.793 339.524 311.164C271.302 311.501 208.361 266.311 167.567 228.349C66.0269 161.379 -20.6826 70.4221 -83.3038 -34.7819C-87.4704 -41.641 -91.5268 -48.5877 -95.3644 -55.4287ZM658.784 -580.825C642.391 -610.047 621.747 -637.57 595.669 -664.968C508.832 -755.68 400.726 -821.127 299.059 -844.528C224.808 -864.225 162.928 -861.638 115.175 -836.84C69.5065 -814.255 27.916 -769.594 -19.6817 -692.028C-86.431 -612.287 -132.245 -519.259 -142.186 -443.232C-155.071 -387.476 -160.211 -342.625 -158.848 -297.865C-167.238 -226.828 -145.62 -142.785 -96.329 -54.9181C-92.4813 -48.0591 -88.4162 -41.0968 -84.2395 -34.2196C-21.5028 71.1855 65.3887 162.332 167.023 229.346C207.905 267.409 271.145 312.796 339.705 312.459C425.878 322.137 476.3 279.938 567.836 203.337C576.206 196.336 584.9 189.058 593.986 181.517C605.231 171.008 615.844 161.444 626.108 152.198C660.948 120.787 688.468 95.9909 708.024 63.8769C729.084 29.2794 738.753 -10.7253 739.361 -65.8446C751.55 -163.91 731.647 -329.488 706.157 -416.71C700.642 -480.862 685.579 -533.06 658.784 -580.825Z" fill="#EDE9F6"/>
<path d="M-97.9911 -67.5643C-144.984 -151.339 -163.504 -231.734 -151.543 -300.063C-149.957 -346.989 -140.35 -390.659 -126.406 -441.817C-113.599 -515.644 -71.999 -602.692 -12.2631 -680.697C17.5892 -734.225 58.7858 -799.46 113.153 -829.568C158.712 -855.962 218.453 -860.016 290.717 -841.619C393.44 -818.789 506.309 -750.056 592.655 -657.75C616.794 -631.817 636.023 -605.843 651.444 -578.352C680.013 -527.422 694.524 -473.594 698.475 -403.813C719.741 -319.587 735.237 -167.837 724.437 -75.9831C722.644 39.4846 682.149 80.9029 615.059 149.529C609.132 155.6 602.999 161.869 596.674 168.411C591.624 173.016 586.684 177.543 581.847 181.957C497.726 258.896 446.948 305.33 363.42 298.4C295.853 300.657 230.227 258.546 187.058 222.819C79.3255 157.69 -15.4237 65.3372 -79.829 -37.2812C-86.251 -47.3381 -92.3614 -57.528 -97.9911 -67.5643ZM652.41 -578.864C636.921 -606.476 617.615 -632.558 593.385 -658.591C552.897 -701.867 505.22 -741.262 455.49 -772.521C400.382 -807.163 344.956 -830.84 290.74 -842.888C218.218 -861.349 158.231 -857.267 112.464 -830.753C57.9033 -800.538 16.6133 -735.165 -13.2621 -681.587C-73.0546 -603.514 -114.724 -516.296 -127.551 -442.356C-141.505 -391.167 -151.13 -347.418 -152.708 -300.458C-164.715 -231.891 -146.132 -151.151 -98.9575 -67.0527C-93.3126 -56.9894 -87.1838 -46.7715 -80.748 -36.6899C-48.636 14.4794 -9.47777 62.7955 35.6374 106.909C81.3475 151.611 132.13 190.958 186.574 223.868C229.831 259.679 295.756 301.967 363.628 299.695C447.511 306.661 498.397 260.126 582.702 183.028C587.529 178.602 592.472 174.085 597.543 169.463C603.885 162.894 610.019 156.628 615.944 150.563C683.211 81.7599 723.814 40.2285 725.609 -75.6362C736.415 -167.581 720.902 -319.56 699.63 -403.777C695.675 -473.661 681.109 -527.703 652.41 -578.864Z" fill="#EDE9F6"/>
<path d="M-99.725 -78.1476C-145.086 -159.018 -160.928 -236.819 -145.54 -303.13C-140.774 -349.979 -126.777 -394.407 -111.955 -441.441C-96.3214 -512.444 -57.7299 -596.031 -6.06248 -670.813C23.2906 -729.138 60.0293 -792.9 110.178 -823.992C153.705 -852.085 211.535 -857.62 282.057 -840.436C387.534 -817.769 502.627 -747.253 589.949 -651.802C612.418 -627.123 630.437 -602.478 645.036 -576.45C675.074 -522.897 689.423 -465.805 691.554 -391.344C708.424 -310.58 720.061 -174.431 710.348 -86.1835C707.979 29.9696 668.208 76.3389 602.316 153.167L599.928 155.955L597.865 158.057C517.605 239.875 469.162 289.266 387.114 285.147C320.298 289.298 251.965 250.262 206.395 216.785C91.1115 152.656 -9.31198 61.3594 -76.4612 -40.3344C-84.864 -52.885 -92.6894 -65.6044 -99.725 -78.1476ZM646.004 -576.963C631.34 -603.105 613.245 -627.853 590.684 -652.628C503.16 -748.304 387.788 -818.987 282.067 -841.708C211.272 -858.95 153.196 -853.383 109.451 -825.154C59.1139 -793.945 22.2969 -730.049 -7.08722 -671.663C-58.7891 -596.836 -97.436 -513.113 -113.089 -442.023C-127.914 -394.981 -141.931 -350.501 -146.697 -303.604C-162.154 -237.021 -146.248 -158.857 -100.691 -77.6364C-93.6337 -65.0549 -85.7835 -52.2962 -77.3564 -39.7118C-10.0699 62.1977 90.5553 153.676 205.971 217.872C251.636 251.427 320.25 290.614 387.355 286.447C469.766 290.584 518.317 241.086 598.748 159.087L600.83 156.962L603.242 154.15C669.286 77.1491 709.144 30.6755 711.519 -85.8332C721.237 -174.168 709.592 -310.509 692.711 -391.258C690.589 -465.843 676.181 -523.162 646.004 -576.963Z" fill="#EDE9F6"/>
<path d="M-101.017 -85.9462C-145.072 -164.493 -158.448 -240.181 -139.704 -304.836C-133.143 -342.343 -119.841 -378.706 -105.763 -417.203C-103.073 -424.555 -100.339 -432.038 -97.5868 -439.687C-78.7731 -508.713 -43.1247 -588.848 0.231203 -659.572C27.2482 -719.43 61.0849 -784.901 107.442 -817.087C148.96 -846.9 204.907 -853.94 273.735 -838.002C382.005 -815.56 499.347 -743.332 587.625 -644.793C608.585 -621.298 625.502 -597.889 639.332 -573.23C670.788 -517.147 684.852 -456.907 684.929 -377.916C697.191 -301.422 705.071 -179.914 696.417 -95.4682C693.469 15.6471 659.211 69.2798 603.145 144.418C534.333 224.681 488.204 273.844 410.591 272.907C344.541 278.953 273.466 243.039 225.462 211.849C102.663 148.907 -3.43255 58.736 -73.3582 -42.1039C-83.5489 -56.6396 -92.8537 -71.3911 -101.017 -85.9462ZM640.298 -573.741C626.406 -598.51 609.424 -622.016 588.379 -645.609C499.882 -744.381 382.262 -816.776 273.735 -839.272C204.623 -855.275 148.412 -848.194 106.678 -818.223C60.1443 -785.914 26.2297 -720.302 -0.81507 -660.383C-44.1884 -589.633 -79.8803 -509.402 -98.7067 -440.317C-101.442 -432.714 -104.178 -425.233 -106.866 -417.885C-120.964 -379.337 -134.277 -342.93 -140.847 -305.383C-149.892 -274.188 -151.438 -239.907 -145.422 -203.55C-139.089 -165.279 -124.474 -125.539 -101.981 -85.436C-93.7897 -70.8315 -84.4542 -56.0352 -74.2337 -41.4511C-4.16344 59.6033 102.139 149.956 225.092 212.974C273.199 244.234 344.546 280.272 410.863 274.205C488.839 275.15 535.088 225.865 604.089 145.38C660.303 70.0582 694.633 16.294 697.588 -95.1274C706.252 -179.637 698.365 -301.302 686.094 -377.773C686.024 -456.925 671.899 -517.4 640.298 -573.741Z" fill="#EDE9F6"/>
<path d="M-101.237 -93.9073C-144.294 -170.68 -155.442 -244.727 -133.471 -308.034C-125.648 -339.025 -112.782 -369.064 -99.1599 -400.869C-93.8367 -413.299 -88.3314 -426.155 -82.9173 -439.54C-66.3754 -489.705 -37.4164 -566.925 6.6812 -650.105C32.5142 -714.677 62.2586 -778.948 104.761 -812.04C144.224 -843.589 198.296 -852.098 265.466 -837.329C376.564 -815.022 496.209 -740.935 585.526 -639.129C604.859 -617.014 621.237 -594.08 634.197 -570.97C667.077 -512.345 680.811 -448.973 678.737 -365.489C685.794 -299.406 691.173 -191.735 683.123 -105.46C679.704 -1.47185 653.79 58.3466 607.157 132.373C547.07 215.433 503.929 258.005 434.925 260.15C369.712 268.011 295.834 235.161 245.334 206.214C115.021 144.406 3.1746 55.1871 -69.6539 -45.0406C-81.5091 -61.2328 -92.1334 -77.6744 -101.237 -93.9073ZM635.163 -571.482C622.144 -594.694 605.699 -617.724 586.287 -639.928C544.853 -687.154 494.735 -730.173 441.349 -764.337C383.319 -801.471 322.492 -827.15 265.458 -838.604C197.984 -853.439 143.646 -844.876 103.957 -813.146C61.2923 -779.925 31.4771 -715.52 5.61561 -650.87C-38.4949 -567.673 -67.4761 -490.393 -84.0197 -440.22C-89.4176 -426.88 -94.9213 -414.03 -100.24 -401.602C-113.88 -369.761 -126.763 -339.684 -134.596 -308.654C-145.197 -278.107 -148.086 -244.554 -143.161 -208.972C-137.974 -171.494 -124.195 -132.61 -102.203 -93.3961C-93.0648 -77.1026 -82.4015 -60.6058 -70.5107 -44.3597C2.47468 56.0851 114.53 145.478 245.018 207.369C295.635 236.379 369.771 269.338 435.232 261.439C469.468 260.385 498.908 248.946 527.836 225.451C556.893 201.844 583.605 167.201 608.146 133.276C654.896 59.0631 680.866 -0.895704 684.291 -105.119C692.35 -191.446 686.968 -299.232 679.903 -365.287C681.995 -448.964 668.193 -512.586 635.163 -571.482Z" fill="#EDE9F6"/>
<path d="M-101.658 -100.201C-143.841 -175.421 -152.842 -248.004 -127.684 -310.108C-118.901 -336.23 -106.167 -361.605 -92.6867 -388.47C-84.7404 -404.309 -76.5181 -420.689 -68.6474 -438.13C-63.8121 -450.382 -58.8151 -463.212 -53.6279 -476.529C-34.3291 -526.08 -12.4537 -582.239 12.8204 -639.182C39.7069 -715.759 65.125 -773.31 101.813 -805.392C139.208 -838.664 191.378 -848.665 256.872 -835.11C369.03 -813.362 493.93 -735.659 582.839 -632.328C600.927 -611.235 616.345 -589.406 628.658 -567.45C663.347 -505.593 676.234 -441.249 671.757 -352.301C673.181 -321.539 677.179 -213.727 668.888 -115C665.076 -22.0317 648.051 46.2 610.123 120.548C573.89 183.002 530.399 241.63 458.207 247.549C407.319 255.204 340.272 239.073 264.282 200.899C126.601 140.442 9.10656 52.3313 -66.5768 -47.2017C-79.9717 -64.7478 -91.775 -82.5776 -101.658 -100.201ZM629.625 -567.962C617.258 -590.015 601.774 -611.936 583.608 -633.114C541.877 -681.617 490.971 -725.804 436.386 -760.904C377.151 -798.997 315.069 -825.097 256.85 -836.385C191.039 -850.006 138.592 -839.939 100.976 -806.466C64.1337 -774.255 38.656 -716.579 11.7274 -639.89C-13.5405 -582.965 -35.4192 -526.793 -54.7225 -477.231C-59.909 -463.916 -64.9071 -451.089 -69.7292 -438.861C-77.5838 -421.464 -85.7982 -405.094 -93.7409 -389.263C-107.237 -362.36 -119.987 -336.953 -128.784 -310.792C-140.926 -280.824 -145.121 -247.921 -141.246 -213.013C-137.165 -176.238 -124.17 -138.112 -102.623 -99.6903C-92.701 -81.997 -80.8532 -64.0976 -67.4102 -46.4896C8.43491 53.2547 126.141 141.535 264.017 202.076C340.199 240.346 407.484 256.529 458.557 248.84C490.265 246.24 518.133 233.836 543.706 210.906C565.756 191.143 587.192 162.694 611.161 121.369C649.182 46.8414 666.243 -21.5286 670.064 -114.662C678.355 -213.433 674.351 -321.323 672.927 -352.038C677.424 -441.221 664.474 -505.82 629.625 -567.962Z" fill="#EDE9F6"/>
<path d="M-101.766 -106.015C-142.666 -178.953 -149.824 -252.298 -121.919 -312.539C-112.388 -334.891 -99.6643 -356.676 -86.1918 -379.743C-75.5657 -397.938 -64.5732 -416.756 -54.3499 -437.206C-30.6671 -487.896 -8.93202 -549.577 14.0834 -614.874L19.0423 -628.942C39.1803 -695.275 61.9427 -763.074 99.0221 -799.585C134.358 -834.62 184.676 -846.116 248.578 -833.75C363.564 -812.204 490.846 -732.662 580.756 -626.163C597.726 -606.01 612.27 -585.193 623.992 -564.29C669.335 -483.428 670.414 -405.26 665.485 -339.464C664.583 -298.286 662.079 -215.675 655.382 -124.649C651.579 -49.5134 643.909 30.7631 613.773 108.853C580.549 187.008 538.689 227.154 482.039 235.18C431.17 244.371 364.411 231.106 283.599 195.759C138.466 136.652 15.2197 49.568 -63.444 -49.4495C-78.3149 -68.1542 -91.2071 -87.1846 -101.766 -106.015ZM624.957 -564.802C613.184 -585.796 598.575 -606.705 581.539 -626.942C491.408 -733.694 363.816 -813.43 248.544 -835.028C184.311 -847.46 133.705 -835.884 98.1472 -800.63C60.9091 -763.959 38.0977 -696.027 17.9254 -629.591L12.9736 -615.545C-10.0274 -550.27 -31.7571 -488.618 -55.413 -437.985C-65.6144 -417.574 -76.5973 -398.773 -87.2181 -380.591C-100.703 -357.494 -113.444 -335.683 -122.994 -313.286C-136.655 -283.795 -142.123 -251.41 -139.246 -217.039C-136.209 -180.82 -123.926 -143.295 -102.734 -105.502C-92.1318 -86.5959 -79.1847 -67.4868 -64.2584 -48.7124C14.5753 50.5121 138.04 137.766 283.385 196.965C364.398 232.397 431.374 245.692 482.432 236.472C539.402 228.393 581.49 188.07 614.861 109.566C645.063 31.3107 652.752 -49.0806 656.554 -124.306C663.248 -215.347 665.755 -297.983 666.657 -339.135C671.603 -405.121 670.513 -483.56 624.957 -564.802Z" fill="#EDE9F6"/>
<path d="M-101.559 -111.255C-141.874 -183.155 -147.017 -255.45 -116.041 -314.824C-105.933 -334.116 -93.1892 -352.996 -79.7008 -372.984C-66.304 -392.827 -52.4529 -413.348 -39.9391 -436.105C-15.6617 -480.259 3.87328 -534.803 25.3764 -618.48C43.6616 -689.449 62.8509 -756.235 96.3429 -793.502C129.604 -830.295 178.06 -843.286 240.375 -832.115C358.169 -810.793 487.798 -729.443 578.681 -619.812C594.612 -600.559 608.346 -580.701 619.511 -560.79C666.551 -476.895 665.958 -395.29 659.173 -326.532C658.059 -315.343 656.884 -303.888 655.674 -292.147C650.87 -245.349 645.419 -192.309 641.814 -134.277C640.961 -120.533 640.204 -106.305 639.471 -92.543C636.047 -28.2676 632.509 38.1913 617.362 97.1229C599.481 166.588 559.871 211.201 505.834 222.739C455.761 233.31 387.494 222.493 302.922 190.584C150.396 132.893 21.4245 46.8753 -60.2398 -51.6355C-76.517 -71.3259 -90.4183 -91.3863 -101.559 -111.255ZM620.478 -561.302C609.265 -581.301 595.469 -601.246 579.476 -620.579C488.37 -730.473 358.42 -812.021 240.329 -833.395C177.665 -844.632 128.916 -831.547 95.4344 -794.506C61.797 -757.075 42.5598 -690.153 24.2413 -619.056C2.75916 -535.471 -16.7427 -481.003 -40.9779 -436.932C-53.4697 -414.213 -67.3071 -393.711 -80.691 -373.884C-94.1974 -353.875 -106.954 -334.973 -117.087 -315.627C-132.253 -286.556 -138.97 -254.631 -137.052 -220.723C-135.023 -184.995 -123.41 -147.993 -102.524 -110.743C-91.3337 -90.7851 -77.3716 -70.6404 -61.0329 -50.8691C-20.3678 -1.81778 32.1966 44.3128 95.2082 86.2473C157.715 127.844 227.54 163.354 302.754 191.806C387.53 223.79 456.003 234.626 506.271 224.019C560.66 212.405 600.523 167.542 618.5 97.694C633.674 38.6517 637.219 -27.8776 640.647 -92.2133C641.376 -105.971 642.134 -120.193 642.992 -133.929C646.585 -191.943 652.035 -244.965 656.842 -291.755C658.051 -303.487 659.226 -314.953 660.343 -326.141C667.152 -395.133 667.738 -477.017 620.478 -561.302Z" fill="#EDE9F6"/>
<path d="M-90.336 -119.367C-130.461 -190.94 -136.347 -261.663 -106.905 -318.509C-96.4877 -338.652 -83.3609 -357.967 -69.4642 -378.412C-57.0944 -396.612 -44.3027 -415.433 -32.4701 -436.252C-26.9572 -446.036 -21.5126 -456.707 -16.2852 -467.968C1.04767 -505.31 16.3472 -549.639 33.3275 -611.699C52.0518 -679.704 71.602 -743.708 104.761 -779.519C137.62 -814.836 184.906 -827.329 245.307 -816.656C314.936 -804.398 387.01 -770.881 453.739 -719.733C496.751 -687.294 537.398 -647.867 571.303 -605.707C586.347 -587.211 599.417 -568.124 610.147 -548.984C638.98 -497.553 652.985 -443.187 654.215 -377.899C654.503 -360.001 653.836 -341.001 652.172 -319.821C650.966 -303.15 649.614 -286.088 648.188 -268.022C644.998 -227.527 641.371 -181.637 638.818 -132.567C638.425 -124.54 638.051 -116.455 637.676 -108.324C635.117 -53.0247 632.475 4.1619 622.478 56.9382C620.109 69.475 617.382 81.4703 614.366 92.5847C596.356 159.498 557.391 202.679 504.659 214.178C455.423 224.844 388.927 214.862 307.027 184.525C251.983 164.602 197.308 137.843 144.519 104.994C107.646 82.3018 72.2993 56.8702 39.4664 29.4084C6.52414 1.80939 -21.6294 -26.5437 -49.1356 -59.8322C-65.3055 -79.4177 -79.1699 -99.4497 -90.336 -119.367ZM611.111 -549.494C600.332 -568.72 587.21 -587.89 572.105 -606.458C538.124 -648.72 497.369 -688.242 454.262 -720.753C387.358 -772.035 315.084 -805.645 245.26 -817.938C184.516 -828.675 136.942 -816.087 103.861 -780.533C70.5495 -744.56 50.9551 -680.428 32.1967 -612.291C15.2312 -550.291 -0.0498105 -506.016 -17.3525 -468.731C-22.5699 -457.496 -28.0013 -446.849 -33.4996 -437.087C-45.3144 -416.303 -58.0945 -397.501 -70.4527 -379.318C-84.3689 -358.845 -97.5081 -339.509 -107.954 -319.311C-137.596 -262.076 -131.682 -190.885 -91.3016 -118.856C-80.0851 -98.8484 -66.1646 -78.7355 -49.9323 -59.0724C-22.3569 -25.704 5.86859 2.72456 38.8861 30.3856C71.7759 57.8959 107.18 83.3671 144.116 106.099C196.982 138.994 251.743 165.797 306.872 185.754C388.972 216.166 455.668 226.158 505.102 215.454C558.178 203.876 597.39 160.453 615.501 93.1746C618.521 82.029 621.256 70.0058 623.627 57.4421C633.645 4.57882 636.29 -52.6502 638.85 -108.002C639.223 -116.132 639.596 -124.219 639.994 -132.241C642.545 -181.291 646.01 -225.197 649.357 -267.66C650.787 -285.725 652.138 -302.787 653.343 -319.46C655.009 -340.684 655.678 -359.721 655.385 -377.66C654.154 -443.215 640.084 -497.814 611.111 -549.494Z" fill="#EDE9F6"/>
<path d="M-79.3899 -127.947C-119.252 -199.063 -125.856 -268.113 -97.9827 -322.375C-87.248 -343.413 -73.73 -363.135 -59.4175 -384.017C-48.0957 -400.536 -36.387 -417.615 -25.3065 -436.459C-19.8833 -445.835 -14.4813 -456.09 -9.24637 -466.946C8.11828 -502.949 23.5808 -545.466 40.8829 -604.801C60.0091 -669.772 79.8902 -730.929 112.684 -765.25C145.113 -799.051 191.174 -811.035 249.601 -800.862C318.401 -789.089 388.162 -755.709 451.346 -704.337C491.94 -672.378 529.484 -634.403 562.935 -591.452C577.072 -573.751 589.447 -555.483 599.718 -537.158C627.904 -486.872 642.264 -433.634 644.918 -369.606C645.555 -352.168 645.295 -333.731 644.124 -313.234C643.06 -289.256 641.667 -264.199 640.187 -237.675C638.307 -203.933 636.361 -169.048 634.797 -131.167L634.651 -127.129C632.516 -66.6866 630.303 -4.19165 618.694 53.1018C616.263 65.1614 613.471 76.7457 610.397 87.5081C592.274 151.799 554.01 193.507 502.642 204.944C454.289 215.692 389.645 206.563 310.506 177.821C257.078 159.341 204.767 133.119 150.573 97.6645C115.31 75.0725 81.7756 49.9964 48.0483 21.0129C17.5008 -5.32235 -8.32417 -32.0847 -38.2939 -68.4678C-54.361 -87.9482 -68.1863 -107.959 -79.3899 -127.947ZM600.685 -537.669C590.368 -556.076 577.941 -574.418 563.754 -592.188C530.223 -635.233 492.585 -673.304 451.895 -705.333C388.537 -756.854 318.564 -790.337 249.547 -802.146C190.788 -812.373 144.441 -800.308 111.793 -766.274C78.8546 -731.801 58.9266 -670.511 39.7596 -605.41C22.4744 -546.137 7.03162 -503.671 -10.307 -467.723C-15.5308 -456.89 -20.9237 -446.657 -26.3324 -437.303C-37.3938 -418.493 -49.0905 -401.426 -60.4027 -384.924C-74.7331 -364.021 -88.2694 -344.269 -99.0322 -323.175C-112.738 -296.493 -118.18 -266.075 -115.205 -232.763C-112.164 -198.704 -100.437 -163.266 -80.3542 -127.436C-69.1015 -107.36 -55.2156 -87.2657 -39.0848 -67.7055C-9.04946 -31.2437 16.8311 -4.42055 47.4547 21.9734C81.2367 51.0064 114.826 76.1232 150.143 98.7536C204.429 134.27 256.84 160.538 310.362 179.05C389.699 207.867 454.544 217.012 503.085 206.22C554.793 194.707 593.305 152.763 611.524 88.11C614.61 77.3153 617.401 65.7108 619.841 53.6144C631.469 -3.77384 633.683 -66.3269 635.823 -126.828L635.969 -130.851C637.534 -168.715 639.481 -203.603 641.358 -237.341C642.838 -263.87 644.234 -288.927 645.297 -312.91C646.467 -333.432 646.729 -351.911 646.091 -369.398C643.429 -433.681 629.001 -487.151 600.685 -537.669Z" fill="#EDE9F6"/>
<path d="M-68.5095 -136.719C-107.575 -206.429 -115.097 -275.663 -89.1464 -326.673C-78.0661 -348.718 -64.1162 -368.863 -49.3483 -390.193C-39.0698 -405.038 -28.4453 -420.381 -18.1724 -437.265C-12.8329 -446.262 -7.46704 -456.122 -2.22643 -466.57C15.1826 -501.286 30.8097 -542.056 48.441 -598.766C67.968 -660.806 88.1795 -719.215 120.645 -752.103C152.672 -784.439 197.571 -795.911 254.088 -786.21C322.15 -774.88 389.698 -741.561 449.44 -689.851C487.059 -658.842 522.652 -621.173 555.255 -577.886C568.495 -560.973 580.177 -543.517 589.994 -525.999C617.593 -476.752 632.362 -424.511 636.481 -361.589C637.467 -344.569 637.624 -326.657 636.953 -306.833C636.448 -272.188 635.175 -234.892 633.832 -195.41C633.109 -174.285 632.364 -152.445 631.688 -129.639C630.46 -70.2276 628.231 -7.44919 615.867 49.6919C613.369 61.3377 610.515 72.5166 607.382 82.9321C589.154 144.703 551.544 184.995 501.48 196.376C453.951 207.209 391.07 198.893 314.583 171.667C262.232 154.375 212.164 128.654 157 90.7051C123.901 68.5937 91.1475 43.1216 56.8449 12.8137C24.7471 -15.6565 1.65989 -41.7032 -27.3781 -77.0751C-43.389 -96.5192 -57.2262 -116.585 -68.5095 -136.719ZM590.958 -526.51C581.1 -544.102 569.364 -561.629 556.078 -578.605C523.41 -621.98 487.724 -659.742 450.023 -690.825C390.099 -742.697 322.321 -776.127 254.029 -787.492C197.186 -797.251 152.01 -785.692 119.766 -753.134C87.1489 -720.102 66.8845 -661.566 47.3218 -599.402C29.707 -542.745 14.101 -502.023 -3.27789 -467.365C-8.51024 -456.935 -13.865 -447.099 -19.1887 -438.121C-29.448 -421.271 -40.0622 -405.934 -50.329 -391.107C-65.1205 -369.747 -79.0887 -349.571 -90.1991 -327.47C-116.344 -276.076 -108.792 -206.364 -69.4756 -136.207C-58.1432 -115.986 -44.2453 -95.8355 -28.172 -76.3136C0.916177 -40.881 24.0553 -14.7802 56.2325 13.7643C90.5894 44.1163 123.399 69.6346 156.544 91.7711C211.812 129.796 261.99 155.573 314.451 172.899C391.13 200.201 454.21 208.525 501.93 197.649C552.325 186.186 590.178 145.669 608.508 83.5472C611.647 73.1116 614.507 61.8969 617.011 50.2244C629.397 -7.02722 631.633 -69.876 632.86 -129.345C633.537 -152.14 634.281 -173.983 635 -195.105C636.35 -234.594 637.62 -271.894 638.121 -306.538C638.795 -326.398 638.636 -344.352 637.651 -361.414C633.518 -424.582 618.682 -477.041 590.958 -526.51Z" fill="#EDE9F6"/>
<path d="M-58.516 -145.073C-97.248 -214.197 -105.399 -281.664 -80.8755 -330.178C-69.3854 -353.291 -54.939 -373.837 -39.6456 -395.592C-30.4025 -408.74 -20.8424 -422.338 -11.4108 -437.238C-6.14513 -445.84 -0.801805 -455.294 4.46873 -465.35C21.977 -498.749 37.833 -537.744 55.882 -591.797C75.1 -648.501 96.5501 -706.492 128.743 -737.92C160.435 -768.795 204.205 -779.808 258.836 -770.657C326.177 -759.875 391.509 -726.74 447.769 -674.839C482.337 -644.961 515.954 -607.695 547.711 -564.06C560.016 -548.001 570.978 -531.431 580.297 -514.799C607.272 -466.657 622.41 -415.456 627.937 -353.67C629.255 -337.103 629.795 -319.742 629.598 -300.588C630.392 -248.264 629.307 -190.084 628.158 -128.486C627.803 -74.3772 625.645 -11.3719 612.36 45.7149C609.782 56.9228 606.85 67.6956 603.64 77.7514C585.218 136.958 548.189 175.835 499.371 187.212C452.629 198.186 391.486 190.774 317.644 165.187C266.053 149.047 218.187 123.92 162.428 83.7143C131.198 62.0179 100.144 36.9462 64.6975 4.82226C32.2537 -24.7311 11.1327 -50.5209 -15.6157 -83.1765L-17.3304 -85.274C-33.2935 -104.665 -47.1476 -124.783 -58.516 -145.073ZM581.262 -515.311C571.903 -532.014 560.9 -548.653 548.552 -564.759C516.733 -608.481 483.028 -645.84 448.388 -675.78C391.94 -727.864 326.365 -761.118 258.773 -771.939C203.825 -781.146 159.781 -770.054 127.876 -738.968C95.5338 -707.391 74.0266 -649.271 54.7711 -592.451C36.7407 -538.452 20.9058 -499.506 3.42609 -466.157C-1.8395 -456.121 -7.16787 -446.683 -12.4194 -438.109C-21.8324 -423.233 -31.3858 -409.647 -40.6252 -396.507C-55.9402 -374.724 -70.409 -354.145 -81.9289 -330.971C-106.646 -282.074 -98.462 -214.13 -59.4811 -144.561C-48.0636 -124.185 -34.153 -103.98 -18.1255 -84.5123L-16.412 -82.417C10.3769 -49.713 31.5334 -23.8839 64.0697 5.75724C99.5683 37.9319 130.668 63.0352 161.946 84.7643C217.827 125.063 265.811 150.243 317.526 166.425C391.553 192.077 452.891 199.497 499.828 188.484C548.966 177.029 586.23 137.926 604.761 78.3853C607.976 68.3039 610.915 57.4898 613.504 46.2585C626.817 -10.942 628.975 -74.0323 629.329 -128.211C630.481 -189.81 631.564 -248.006 630.762 -300.344C630.966 -319.51 630.429 -336.913 629.107 -353.53C623.56 -415.556 608.354 -466.96 581.262 -515.311Z" fill="#EDE9F6"/>
<path d="M-47.5519 -153.619C-85.9338 -222.135 -94.7626 -287.804 -71.7753 -333.797C-59.912 -358.039 -44.9969 -378.934 -29.2047 -401.057C-21.0345 -412.499 -12.5874 -424.327 -4.11076 -437.241C1.14248 -445.569 6.2886 -454.367 11.6333 -464.137C29.1529 -496.184 45.1513 -533.395 63.5025 -584.778C83.0612 -638.598 104.825 -693.652 136.669 -723.618C167.92 -752.985 210.468 -763.478 263.124 -754.795C329.64 -744.463 392.684 -711.423 445.443 -659.239C477.345 -630.158 508.104 -594.264 539.496 -549.484C550.855 -534.312 561.068 -518.658 569.872 -502.942C596.263 -455.831 611.842 -405.6 618.892 -344.869C620.567 -328.741 621.517 -311.927 621.81 -293.463C624.008 -247.682 624.826 -196.168 624.461 -126.417C625.147 -56.3506 620.231 -2.62631 608.981 42.657C606.346 53.4271 603.352 63.7934 600.087 73.4829C581.594 130.098 545.276 167.508 497.819 178.833C452.598 189.718 391.644 182.939 321.551 159.228C257.107 140.06 206.1 105.223 168.866 77.0184C131.526 49.9317 98.3449 20.0063 73.6129 -3.03859C46.0091 -28.9121 27.6773 -51.5891 6.45699 -77.8454C2.39449 -82.8716 -1.79845 -88.0585 -6.20822 -93.4594C-22.1518 -112.868 -36.0615 -133.107 -47.5519 -153.619ZM570.838 -503.454C561.997 -519.235 551.742 -534.951 540.355 -550.163C508.901 -595.024 478.064 -631.005 446.099 -660.149C393.142 -712.527 329.84 -745.707 263.062 -756.08C210.091 -764.809 167.272 -754.242 135.812 -724.672C103.819 -694.565 82.0045 -639.388 62.4005 -585.457C44.0649 -534.123 28.0908 -496.96 10.5977 -464.962C5.26458 -455.209 0.127929 -446.428 -5.11207 -438.125C-13.5734 -425.236 -22.0142 -413.412 -30.1765 -401.979C-45.9953 -379.822 -60.9374 -358.898 -72.8315 -334.581C-96.008 -288.215 -87.1462 -222.068 -48.5155 -153.108C-36.976 -132.509 -23.0098 -112.184 -7.00225 -92.7039C-2.59583 -87.3042 1.59378 -82.1184 5.65458 -77.1C26.9167 -50.7931 45.2778 -28.0735 72.9676 -2.12336C97.738 20.9565 130.962 50.9258 168.357 78.0532C205.677 106.32 256.813 141.243 321.445 160.471C391.719 184.247 452.87 191.035 498.276 180.101C546.049 168.711 582.604 131.074 601.198 74.134C604.467 64.4189 607.474 54.0225 610.12 43.2234C621.387 -2.16812 626.324 -55.9849 625.629 -126.163C626 -195.932 625.183 -247.458 622.98 -293.248C622.692 -311.729 621.736 -328.587 620.058 -344.759C612.978 -405.722 597.34 -456.145 570.838 -503.454Z" fill="#EDE9F6"/>
<path d="M-36.87 -162.698C-74.2461 -229.432 -83.8916 -294.841 -62.6804 -337.673C-50.4055 -363.117 -34.9536 -384.311 -18.5968 -406.749C-11.4915 -416.495 -4.14721 -426.575 3.33881 -437.511C8.50062 -445.431 13.6142 -453.83 18.9832 -463.197C36.3207 -493.478 52.9985 -529.965 71.4665 -578.027C91.4244 -628.951 113.56 -681.059 145.127 -709.583C175.992 -737.461 217.359 -747.463 268.079 -739.311C333.8 -729.493 394.575 -696.618 443.835 -644.235C472.91 -616.194 500.906 -581.699 531.966 -535.648C542.343 -521.438 551.774 -506.782 560.016 -492.065C585.821 -445.99 601.825 -396.709 610.398 -336.97C612.414 -321.296 613.768 -305.034 614.523 -287.258C618.455 -238.967 620.6 -186.017 621.089 -125.36C622.761 -61.0975 617.605 -5.96618 605.753 38.5162C603.048 48.8372 599.984 58.8016 596.651 68.1301C578.021 122.147 542.347 158.109 496.187 169.402C451.789 180.406 392.686 174.526 325.265 152.396C262.592 134.797 214.169 100.679 175.071 69.6274C141.469 44.2154 110.624 15.638 82.3027 -11.4538C58.017 -34.8388 42.3962 -54.6301 24.3089 -77.5417C18.1747 -85.317 11.8279 -93.3516 4.7213 -102.08C-11.239 -121.525 -25.2315 -141.918 -36.87 -162.698ZM560.981 -492.577C552.704 -507.356 543.236 -522.068 532.837 -536.304C501.728 -582.432 473.657 -617.012 444.525 -645.104C395.068 -697.71 334.016 -730.736 268.008 -740.596C216.989 -748.797 175.364 -738.722 144.284 -710.651C112.57 -681.991 90.3797 -629.764 70.3743 -578.727C51.924 -530.716 35.2678 -494.272 17.9558 -464.036C12.5997 -454.685 7.49359 -446.301 2.34914 -438.408C-5.12115 -427.492 -12.4638 -417.419 -19.5642 -407.678C-35.9495 -385.204 -51.4245 -363.975 -63.7367 -338.453C-74.6871 -316.346 -77.7425 -289.164 -72.8198 -257.672C-68.1385 -227.713 -56.0391 -194.694 -37.8331 -162.188C-26.1457 -141.32 -12.0968 -120.841 3.92408 -101.326C11.0282 -92.6021 17.3671 -84.572 23.4963 -76.8056C41.6219 -53.8447 57.2741 -34.0118 81.6424 -10.5515C110.005 16.5797 140.885 45.1875 174.537 70.6401C213.735 101.77 262.301 135.984 325.174 153.637C392.766 175.827 452.069 181.717 496.649 170.669C543.118 159.303 579.024 123.124 597.751 68.7969C601.095 59.4428 604.168 49.4439 606.881 39.0985C618.762 -5.49197 623.937 -60.7527 622.263 -125.119C621.772 -185.81 619.623 -238.79 615.694 -287.085C614.935 -304.873 613.576 -321.182 611.553 -336.902C602.955 -396.86 586.89 -446.318 560.981 -492.577Z" fill="#EDE9F6"/>
<path d="M-26.0943 -171.608C-62.9933 -237.506 -73.2178 -300.95 -53.4478 -341.324C-40.7567 -368.039 -25.4923 -388.48 -7.81795 -412.153C-1.78026 -420.238 4.46599 -428.599 10.8896 -437.609C15.9812 -445.149 21.058 -453.157 26.4262 -462.097C43.8006 -491.044 60.6569 -525.708 79.4793 -571.181C99.8114 -619.24 122.282 -668.43 153.582 -695.528C184.064 -721.927 224.253 -731.434 273.038 -723.777C337.98 -714.442 396.512 -681.679 442.301 -629.032C475.718 -594.765 503.829 -553.563 524.592 -521.495C533.953 -508.309 542.565 -494.727 550.206 -481.082C575.482 -435.941 591.984 -387.477 602.152 -328.561C604.523 -313.33 606.281 -297.604 607.517 -280.509C613.346 -230.567 616.795 -179.261 618.068 -123.629C620.685 -63.5975 615.454 -8.69542 602.943 35.165C600.169 45.0515 597.037 54.6104 593.641 63.5881C574.911 115.028 539.885 149.56 495.016 160.816C439.951 174.858 374.557 160.675 329.402 146.318C268.107 130.092 222.159 96.6202 181.634 62.8715C150.179 38.0242 122.115 10.9396 91.3042 -19.3366C69.3909 -41.0218 55.7712 -58.8334 39.9971 -79.4593C32.6379 -89.0842 25.024 -99.039 15.9006 -110.272C-0.127126 -129.828 -14.2556 -150.465 -26.0943 -171.608ZM551.164 -481.59C543.494 -495.289 534.854 -508.926 525.481 -522.129C504.694 -554.234 476.52 -595.525 443.028 -629.868C397.033 -682.749 338.212 -715.681 272.962 -725.062C223.888 -732.764 183.441 -723.189 152.753 -696.605C121.306 -669.381 98.7728 -620.076 78.3962 -571.909C59.5952 -526.479 42.7583 -491.857 25.4128 -462.955C20.0512 -454.028 14.982 -446.035 9.91101 -438.521C3.49898 -429.528 -2.74313 -421.169 -8.77792 -413.089C-26.4838 -389.376 -41.7779 -368.901 -54.5033 -342.099C-74.4607 -301.358 -64.1996 -237.431 -27.057 -171.098C-15.1682 -149.865 -0.983694 -129.147 15.105 -109.516C24.2117 -98.3032 31.8139 -88.3595 39.168 -78.7437C54.9818 -58.0661 68.6362 -40.2117 90.6266 -18.4512C121.478 11.8677 149.575 38.9782 181.075 63.8627C221.714 97.7049 267.81 131.282 329.326 147.567C374.594 161.966 440.192 176.178 495.489 162.088C540.653 150.754 575.901 116.017 594.74 64.2761C598.149 55.2706 601.285 45.6749 604.07 35.7651C616.614 -8.21451 621.859 -63.2603 619.235 -123.42C617.967 -179.077 614.513 -230.424 608.681 -280.385C607.444 -297.488 605.684 -313.251 603.306 -328.537C593.104 -387.649 576.535 -436.281 551.164 -481.59Z" fill="#EDE9F6"/>
<path d="M-16.5655 -180.812C-52.9399 -245.792 -63.715 -307.238 -45.3871 -345.175C-32.3058 -373.21 -16.5074 -393.786 1.78307 -417.608C6.76005 -424.091 11.9045 -430.794 17.2325 -437.953C22.2379 -445.106 27.278 -452.726 32.6528 -461.256C50.04 -488.868 67.0634 -521.722 86.2318 -564.654C106.899 -609.87 129.678 -656.162 160.724 -681.845C190.815 -706.773 229.837 -715.771 276.695 -708.588C340.868 -699.696 397.176 -666.999 439.538 -614.029C466.627 -584.302 489.716 -549.913 516.054 -507.411C524.355 -495.359 532.092 -482.945 539.069 -470.482C563.879 -426.161 580.969 -378.355 592.853 -320.04C595.596 -305.223 597.762 -290.025 599.473 -273.598C607.28 -222.998 612.056 -173.296 614.08 -121.613C617.656 -64.5121 612.529 -11.3246 599.247 32.2216C596.41 41.6821 593.221 50.8403 589.76 59.4592C570.953 108.365 536.596 141.475 493.006 152.685C438.961 166.853 375.982 153.937 332.661 140.607C275.783 126.426 233.404 96.6646 187.264 56.3464C157.786 31.9912 131.293 5.22163 103.244 -23.1209L99.3107 -27.0967C79.1667 -47.5925 67.0891 -63.9937 53.1047 -82.9891C45.0512 -93.9263 36.7278 -105.235 26.0289 -118.448C9.86872 -138.207 -4.46045 -159.188 -16.5655 -180.812ZM540.029 -470.992C533.027 -483.499 525.265 -495.958 516.955 -508.022C490.59 -550.571 467.45 -585.032 440.312 -614.812C397.734 -668.048 341.119 -700.934 276.614 -709.872C229.476 -717.098 190.206 -708.039 159.911 -682.941C128.715 -657.133 105.878 -610.728 85.1617 -565.407C66.0127 -522.518 49.0078 -489.703 31.6487 -462.132C26.2839 -453.613 21.2499 -446.011 16.2631 -438.882C10.948 -431.739 5.80474 -425.034 0.829389 -418.557C-17.4962 -394.688 -33.3232 -374.076 -46.449 -345.948C-64.9553 -307.642 -54.1446 -245.714 -17.5278 -180.302C-5.37498 -158.592 9.0115 -137.528 25.2306 -117.693C35.9006 -104.517 44.214 -93.2261 52.2545 -82.3026C66.2787 -63.2554 78.3939 -46.8014 98.6156 -26.2246L102.559 -22.2454C130.636 6.12863 157.159 32.9264 186.676 57.3098C232.962 97.7632 275.497 127.631 332.6 141.862C376.022 155.225 439.214 168.174 493.483 153.954C537.354 142.665 571.934 109.358 590.849 60.165C594.319 51.5239 597.524 42.3311 600.364 32.8428C613.69 -10.8348 618.835 -64.1796 615.252 -121.426C613.225 -173.144 608.442 -222.901 600.633 -273.523C598.918 -289.954 596.745 -305.189 593.999 -320.058C582.069 -378.561 564.926 -426.515 540.029 -470.992Z" fill="#EDE9F6"/>
<path d="M-6.26449 -190.574C-41.935 -254.313 -53.1276 -313.537 -36.1943 -348.997C-22.7333 -378.299 -6.39503 -398.853 12.5205 -422.654C16.46 -427.612 20.54 -432.747 24.7652 -438.164C29.6923 -444.931 34.6995 -452.15 40.0802 -460.253C57.4812 -486.477 74.6955 -517.482 94.2481 -557.834C115.275 -600.142 138.385 -643.484 169.21 -667.743C198.923 -691.182 236.757 -699.689 281.654 -693.028C345.016 -684.651 399.047 -652.126 437.915 -598.969C463.13 -569.201 483.934 -535.063 508.517 -493.526C515.663 -482.798 522.409 -471.762 528.607 -460.688C552.955 -417.181 570.666 -369.968 584.337 -312.101C587.435 -297.724 590 -283.084 592.169 -267.364C601.928 -216.782 607.979 -168.761 610.676 -120.543C615.063 -66.971 609.845 -14.1993 595.991 28.0793C593.087 37.0979 589.826 45.8525 586.299 54.0974C567.393 100.393 533.681 132.051 491.379 143.245C438.363 157.568 377.836 145.989 336.396 133.753C280.481 120.738 238.844 90.4376 193.523 48.9483C167.905 26.821 144.761 2.70939 120.26 -22.8209C116.233 -27.0153 112.177 -31.2411 108.067 -35.502C89.3186 -55.0939 77.983 -71.1564 65.9867 -88.1592C57.6242 -100.009 48.9799 -112.261 37.0338 -127.047C20.7012 -147.048 6.1341 -168.419 -6.26449 -190.574ZM529.573 -461.201C523.355 -472.31 516.576 -483.381 509.432 -494.11C484.833 -535.679 463.992 -569.88 438.729 -599.7C399.643 -653.155 345.285 -685.889 281.57 -694.312C236.399 -701.014 198.326 -692.446 168.41 -668.85C137.441 -644.475 114.273 -601.031 93.192 -558.617C73.6599 -518.305 56.4659 -487.331 39.0888 -461.146C33.7155 -453.058 28.7174 -445.847 23.8035 -439.105C19.5945 -433.701 15.514 -428.572 11.5745 -423.614C-7.37945 -399.767 -23.7466 -379.169 -37.2591 -349.767C-54.3643 -313.937 -43.1375 -254.233 -7.2262 -190.064C5.22006 -167.824 19.8435 -146.367 36.2345 -126.295C48.1414 -111.555 56.7732 -99.3251 65.1186 -87.5011C77.1537 -70.4434 88.5257 -54.3303 107.362 -34.6485C111.473 -30.382 115.528 -26.1618 119.553 -21.9664C144.084 3.59208 167.254 27.7385 192.907 49.8941C238.386 91.5262 280.191 121.94 336.349 135.005C377.889 147.275 438.622 158.89 491.858 144.511C534.436 133.243 568.361 101.393 587.379 54.8267C590.921 46.5595 594.19 37.7715 597.098 28.7184C611.004 -13.7037 616.242 -66.6516 611.842 -120.385C609.142 -168.651 603.082 -216.731 593.318 -267.337C591.148 -283.059 588.581 -297.736 585.468 -312.169C571.76 -370.202 553.999 -417.555 529.573 -461.201Z" fill="#EDE9F6"/>
<path d="M4.04147 -200.325C-31.3609 -263.605 -42.6256 -319.115 -26.861 -352.619C-13.082 -383.134 2.95161 -402.538 23.2533 -427.107C26.2093 -430.68 29.2524 -434.367 32.3995 -438.213C37.2613 -444.611 42.2307 -451.441 47.6003 -459.097C64.9903 -483.925 82.3769 -513.1 102.314 -550.921C122.719 -588.613 147.059 -630.753 177.688 -653.603C207.018 -675.557 243.669 -683.563 286.617 -677.401C349.17 -669.501 400.944 -637.096 436.358 -583.689C458.099 -555.84 476.44 -523.212 495.85 -488.666L501.116 -479.301C506.99 -470.142 512.627 -460.747 517.894 -451.333C541.895 -408.432 560.381 -361.502 576.063 -303.636C579.531 -289.684 582.501 -275.581 585.122 -260.561C597.048 -209.604 604.193 -164.564 607.606 -118.777C612.857 -67.6516 607.72 -16.6915 593.149 24.735C590.182 33.321 586.864 41.6756 583.261 49.5616C564.282 93.2716 531.236 123.491 490.21 134.659C438.223 149.128 380.137 138.838 340.566 127.653C279.371 114.389 237.649 78.1557 200.159 42.185C177.655 21.8293 157.253 -0.191556 135.658 -23.4969C129.587 -30.0521 123.438 -36.6881 117.146 -43.3933C99.4918 -62.3436 89.2583 -77.5533 78.4213 -93.6546C69.9973 -106.177 61.2824 -119.124 48.3041 -135.231C31.9384 -155.31 16.6325 -177.82 4.04147 -200.325ZM518.855 -451.842C513.572 -461.286 507.919 -470.713 502.048 -479.859L496.81 -489.178C477.361 -523.782 458.995 -556.466 437.21 -584.364C401.583 -638.103 349.463 -670.738 286.521 -678.687C243.32 -684.886 206.44 -676.825 176.911 -654.722C146.139 -631.764 121.733 -589.526 101.275 -551.733C81.3531 -513.946 63.9887 -484.803 46.6214 -460.016C41.2634 -452.364 36.3007 -445.546 31.4541 -439.173C28.3202 -435.337 25.2759 -431.653 22.322 -428.081C1.97813 -403.457 -14.0952 -384.009 -27.9247 -353.383C-43.8627 -319.502 -32.5651 -263.529 3.0805 -199.815C15.7192 -177.225 31.0835 -154.63 47.5056 -134.479C60.4346 -118.436 69.1291 -105.516 77.538 -93.0203C88.4097 -76.8619 98.6815 -61.6028 116.427 -42.5525C122.722 -35.8428 128.866 -29.2135 134.932 -22.664C156.556 0.675065 176.982 22.7206 199.512 43.0978C237.146 79.2045 279.042 115.586 340.536 128.915C380.205 140.127 438.491 150.447 490.697 135.917C531.985 124.681 565.238 94.2754 584.336 50.3109C587.941 42.397 591.281 34.017 594.249 25.4008C608.881 -16.1858 614.039 -67.3432 608.775 -118.641C605.35 -164.489 598.199 -209.602 586.264 -260.592C583.634 -275.61 580.664 -289.742 577.18 -303.752C561.457 -361.767 542.927 -408.814 518.855 -451.842Z" fill="#EDE9F6"/>
<path d="M13.1181 -210.354C-21.2909 -271.874 -32.7533 -324.96 -18.3278 -355.994C-4.26293 -387.591 11.4135 -405.704 33.1142 -430.773C35.1547 -433.132 37.247 -435.548 39.3968 -438.045C44.2153 -444.084 49.1599 -450.518 54.5233 -457.732C71.9163 -481.13 89.5265 -508.479 109.952 -543.811C135.7 -587.16 158.482 -619.999 185.938 -639.314C214.962 -659.805 250.472 -667.351 291.493 -661.737C353.291 -654.391 402.835 -622.187 434.77 -568.603C443.246 -556.713 451.661 -543.191 461.286 -525.984C468.256 -513.521 475 -500.694 482.138 -487.11C485.895 -479.971 489.705 -472.726 493.623 -465.391C498.024 -458.248 502.314 -450.942 506.396 -443.644C530.484 -400.578 549.345 -354.945 567.56 -295.671C571.348 -282.323 574.797 -268.395 577.812 -254.28C591.739 -203.939 600.097 -160.533 604.121 -117.642C610.161 -68.8156 605.036 -19.6916 589.697 20.7108C586.649 28.887 583.242 36.8355 579.577 44.332C560.468 85.4581 528.015 114.258 488.192 125.448C437.139 140.127 381.451 131.192 343.728 121.115C283.346 109.071 244.003 73.595 205.736 35.1777C185.825 16.3336 167.731 -3.93664 148.57 -25.4014C141.03 -33.8446 133.23 -42.585 125.191 -51.3672C108.431 -69.8259 99.1502 -84.3479 89.3279 -99.7175C81.0151 -112.725 72.4258 -126.169 58.581 -143.371C41.8585 -163.916 26.1395 -187.074 13.1181 -210.354ZM462.247 -526.494C452.592 -543.757 444.146 -557.33 435.67 -569.214C403.514 -623.165 353.616 -655.628 291.396 -663.02C250.131 -668.667 214.393 -661.073 185.184 -640.446C157.594 -621.034 134.748 -588.117 108.932 -544.658C88.5247 -509.352 70.934 -482.03 53.5641 -458.668C48.2065 -451.463 43.2681 -445.032 38.4661 -439.016C36.33 -436.539 34.2361 -434.116 32.1943 -431.759C10.4423 -406.628 -5.27263 -388.469 -19.3936 -356.746C-33.9913 -325.342 -22.4931 -271.793 12.1563 -209.844C25.2252 -186.478 41.0025 -163.235 57.7821 -142.622C71.564 -125.494 80.1307 -112.09 88.4177 -99.1242C98.2817 -83.6898 107.597 -69.1106 124.459 -50.5432C132.492 -41.761 140.287 -33.0295 147.822 -24.5896C167.008 -3.09688 185.126 17.2003 205.07 36.0736C243.484 74.6425 283.01 110.277 343.715 122.385C381.531 132.479 437.417 141.442 488.682 126.705C528.754 115.445 561.416 86.47 580.638 45.104C584.314 37.5842 587.732 29.6068 590.79 21.3961C606.198 -19.1819 611.343 -68.5231 605.278 -117.545C601.249 -160.503 592.88 -203.99 578.939 -254.376C575.929 -268.476 572.471 -282.435 568.669 -295.836C550.411 -355.241 531.505 -400.978 507.356 -444.153C503.262 -451.473 498.961 -458.797 494.572 -465.918C490.684 -473.202 486.872 -480.445 483.122 -487.583C475.976 -501.174 469.229 -514.011 462.247 -526.494Z" fill="#EDE9F6"/>
<path d="M432.397 -553.706C436.16 -547.859 439.847 -541.686 443.707 -534.783C452.647 -518.796 460.952 -501.635 469.747 -483.468C474.776 -473.084 479.972 -462.342 485.478 -451.444C488.033 -447.096 490.552 -442.7 492.999 -438.323C517.129 -395.169 537.381 -348.598 558.662 -287.332C562.842 -274.358 566.719 -260.977 570.174 -247.568C586.431 -197.221 595.801 -156.62 600.552 -115.873C607.47 -69.1366 602.478 -21.807 586.504 17.4246C583.409 25.1785 579.95 32.7222 576.231 39.8545C556.849 78.9402 525.948 105.571 486.852 116.865C436.856 131.67 383.655 123.965 347.827 114.898C288.264 103.899 251.219 69.0908 212.318 28.1188C194.579 10.4788 178.427 -8.39907 161.329 -28.3749C152.631 -38.539 143.637 -49.0433 134.19 -59.664C118.152 -77.8207 109.698 -91.8268 100.751 -106.648C92.6741 -120.033 84.3216 -133.872 69.7203 -152.074C52.5027 -173.29 36.2313 -197.324 22.6705 -221.576C-10.6454 -281.159 -22.283 -331.722 -9.26418 -360.305C4.88055 -392.786 20.0051 -409.443 42.8998 -434.657L46.635 -438.771C51.4005 -444.464 56.2961 -450.504 61.6156 -457.254C79.1129 -479.455 96.3321 -504.221 117.455 -537.559C143.462 -577.477 166.384 -607.765 193.705 -625.815C222.317 -644.81 256.612 -651.822 295.639 -646.663C354.92 -639.921 401.42 -609.216 430.136 -557.86C430.902 -556.489 431.661 -555.103 432.397 -553.706ZM444.669 -535.294C440.792 -542.228 437.084 -548.428 433.34 -554.245C432.626 -555.589 431.869 -556.987 431.096 -558.369C402.124 -610.182 355.252 -641.16 295.537 -647.95C256.279 -653.137 221.769 -646.082 192.969 -626.964C165.519 -608.827 142.532 -578.462 116.457 -538.441C95.3511 -505.126 78.1471 -480.386 60.6738 -458.209C55.358 -451.467 50.4694 -445.433 45.7195 -439.761L41.995 -435.661C19.0388 -410.38 3.8726 -393.677 -10.3321 -361.054C-23.5224 -332.101 -11.8432 -281.075 21.7107 -221.067C35.3191 -196.729 51.6442 -172.614 68.9248 -151.323C83.4498 -133.214 91.7714 -119.426 99.8192 -106.093C108.811 -91.1963 117.301 -77.1309 133.442 -58.8574C142.88 -48.2491 151.865 -37.7493 160.562 -27.5874C177.684 -7.58354 193.861 11.3157 211.626 28.9826C249.252 68.6099 287.994 105.115 347.832 116.164C383.747 125.252 437.147 132.986 487.356 118.126C526.689 106.758 557.782 79.9611 577.275 40.6534C581.007 33.5 584.48 25.923 587.59 18.1435C603.639 -21.2847 608.655 -68.8537 601.707 -115.803C596.948 -156.627 587.557 -197.328 571.278 -247.719C567.832 -261.121 563.946 -274.534 559.748 -287.549C538.428 -348.936 518.14 -395.587 493.959 -438.833C491.507 -443.218 488.978 -447.627 486.446 -451.938C480.971 -462.776 475.778 -473.508 470.755 -483.887C461.95 -502.081 453.63 -519.259 444.669 -535.294Z" fill="#EDE9F6"/>
<path d="M31.3998 -232.335C-0.575437 -289.532 -12.2009 -337.344 -0.497152 -363.509C13.6669 -396.636 28.1462 -411.727 52.1287 -436.721L53.7716 -438.433C58.5182 -443.801 63.3827 -449.453 68.6558 -455.722C85.9895 -476.341 103.397 -499.343 125.098 -530.295C147.871 -561.881 172.932 -593.565 201.848 -611.375C230.139 -628.897 263.277 -635.422 300.355 -630.777C355.459 -624.883 398.296 -597.237 424.245 -550.82C426.508 -546.774 428.67 -542.535 430.668 -538.218C431.185 -537.313 431.657 -536.473 432.134 -535.619C441.965 -518.035 450.544 -498.418 459.621 -477.651C465.36 -464.524 471.292 -450.953 477.92 -437.014C509.035 -381.213 531.924 -325.652 550.224 -278.661C554.806 -266.058 559.096 -253.23 562.954 -240.547C575.325 -207.214 590.398 -162.73 597.266 -113.888C604.874 -69.7932 599.81 -23.0695 583.385 14.3303C580.22 21.6585 576.693 28.801 572.899 35.5569C553.473 72.021 523.181 97.2603 485.301 108.571C436.248 123.565 385.464 117.154 351.501 109.134C292.722 99.2488 256.448 63.7024 218.394 21.7281C202.522 5.15554 188.05 -12.5005 172.729 -31.1921C163.17 -42.8547 153.286 -54.9112 142.683 -67.1494C127.261 -85.0761 119.558 -98.6479 111.403 -113.016C103.66 -126.659 95.6498 -140.776 80.3932 -159.842C62.7699 -181.6 45.3714 -207.343 31.3998 -232.335ZM425.205 -551.33C398.998 -598.208 355.784 -626.124 300.241 -632.061C262.953 -636.74 229.604 -630.172 201.132 -612.537C172.091 -594.643 146.961 -562.881 124.126 -531.217C102.44 -500.278 85.0445 -477.297 67.7286 -456.699C62.4646 -450.437 57.605 -444.791 52.8729 -439.445L51.2441 -437.747C27.186 -412.672 12.6637 -397.538 -1.56526 -364.249C-13.4364 -337.716 -1.77195 -289.445 30.4399 -231.825C44.4578 -206.751 61.9127 -180.922 79.5929 -159.095C94.7621 -140.142 102.737 -126.088 110.45 -112.498C118.646 -98.0532 126.388 -84.4154 141.923 -66.3541C152.512 -54.1349 162.387 -42.0907 171.937 -30.4348C187.28 -11.7197 201.769 5.9588 217.672 22.5673C255.899 64.7312 292.367 100.456 351.523 110.412C385.577 118.453 436.55 124.883 485.805 109.819C523.913 98.4454 554.388 73.0483 573.936 36.3833C577.734 29.6018 581.281 22.4282 584.455 15.0633C600.979 -22.534 606.064 -69.525 598.415 -113.853C591.532 -162.818 576.424 -207.408 564.038 -240.777C560.189 -253.436 555.892 -266.289 551.289 -278.939C532.966 -326.001 510.044 -381.63 478.909 -437.472C472.317 -451.341 466.388 -464.899 460.656 -478.012C451.12 -499.825 442.136 -520.367 431.652 -538.68C429.667 -542.966 427.489 -547.245 425.205 -551.33Z" fill="#EDE9F6"/>
<path d="M40.2095 -245C22.3462 -276.959 -5.48732 -335.431 8.78432 -367.98C22.8313 -401.477 36.5007 -414.903 61.3186 -439.278C66.1718 -444.438 71.0001 -449.695 76.1719 -455.436C97.9146 -479.589 118.063 -504.91 133.196 -524.268C156.176 -552.871 181.442 -581.626 210.4 -598.145C238.378 -614.192 270.354 -620.23 305.448 -616.086C356.759 -610.95 396.287 -586.029 419.769 -544.018C423.288 -537.721 426.497 -530.967 429.299 -523.935C437.246 -508.022 444.041 -490.406 451.235 -471.753C457.182 -456.329 463.336 -440.381 470.715 -423.797C495.518 -376.543 517.203 -328.634 542.139 -271.224C547.152 -258.96 551.847 -246.688 556.086 -234.771C570.768 -200.025 586.765 -158.446 594.332 -113.163C602.735 -70.9329 597.738 -26.0703 580.638 9.93917C577.411 16.8424 573.818 23.5856 569.952 29.9779C550.504 63.7828 520.841 87.6329 484.156 98.9571C436.051 114.158 387.711 109.03 355.625 102.05C297.513 93.2136 263.449 58.4922 224.955 14.0218C210.699 -1.63848 197.698 -18.2382 183.93 -35.8179C173.751 -48.8188 163.224 -62.2592 151.68 -75.9461C140.031 -89.8387 133.373 -100.825 128.392 -109.736C126.295 -113.488 124.377 -117.096 122.344 -120.925C120.337 -124.709 118.254 -128.637 116.005 -132.661C111.103 -141.431 103.894 -153.478 91.5691 -168.913C73.0977 -191.769 54.8586 -218.791 40.2095 -245ZM420.73 -544.528C396.988 -587.005 357.086 -612.192 305.325 -617.37C270.529 -621.481 237.463 -615.239 209.711 -599.323C180.626 -582.732 155.296 -553.905 132.253 -525.225C117.129 -505.871 96.9949 -480.573 75.2658 -456.439C70.1023 -450.702 65.2781 -445.447 60.5104 -440.378C35.5462 -415.862 21.829 -402.388 7.71048 -368.716C-6.78439 -335.66 21.249 -276.696 39.2498 -244.491C53.9453 -218.199 72.2414 -191.094 90.769 -168.166C103.016 -152.832 110.175 -140.869 115.047 -132.153C117.289 -128.142 119.359 -124.231 121.369 -120.445C123.313 -116.784 125.325 -112.993 127.43 -109.226C132.451 -100.243 139.161 -89.1792 150.903 -75.171C162.43 -61.51 172.95 -48.0775 183.122 -35.0845C196.901 -17.4868 209.923 -0.857902 224.209 14.8271C262.891 59.5229 297.149 94.4253 355.668 103.33C387.839 110.33 436.371 115.469 484.673 100.209C521.569 88.8198 551.413 64.8295 570.97 30.825C574.851 24.416 578.457 17.6428 581.697 10.7063C598.907 -25.5296 603.93 -70.6795 595.468 -113.165C587.886 -158.594 571.842 -200.282 557.148 -235.064C552.917 -246.971 548.205 -259.258 543.181 -271.563C518.223 -329.027 496.52 -376.967 471.723 -424.22C464.382 -440.713 458.239 -456.64 452.296 -472.047C445.086 -490.737 438.28 -508.394 430.325 -524.311C427.521 -531.342 424.286 -538.167 420.73 -544.528Z" fill="#EDE9F6"/>
<path d="M47.9813 -257.575C18.9693 -309.49 8.13024 -350.071 17.4596 -371.844C31.2665 -405.455 44.4742 -417.627 68.4447 -439.721C73.3323 -444.588 78.1312 -449.46 83.1335 -454.626C103.632 -475.788 122.953 -497.481 140.779 -517.773C162.82 -542.2 189.304 -569.236 218.514 -584.524C245.828 -598.906 277.526 -604.607 310.189 -601.014C358.784 -596.484 394.375 -574.58 415.985 -535.911C420.56 -527.726 424.5 -518.725 427.7 -509.157C433.568 -495.343 438.55 -480.244 443.824 -464.256C449.561 -446.87 455.494 -428.892 463.335 -409.974C477.197 -381.629 490.643 -353.482 504.877 -323.68C514.306 -303.932 524.058 -283.517 533.958 -263.003C539.454 -251.008 544.564 -239.285 549.15 -228.164C566.21 -192.382 583.115 -153.517 591.366 -111.48C600.575 -70.9862 595.648 -27.9385 577.863 6.63499C574.572 13.1347 570.911 19.4799 566.972 25.4984C547.526 56.6723 518.457 79.1586 482.912 90.5188C435.677 105.94 389.746 102.084 359.526 96.1276C301.988 88.3037 270.028 54.3978 231.159 7.35962C218.313 -7.49408 206.593 -23.1987 194.188 -39.8209C183.564 -54.0539 172.579 -68.7748 160.234 -83.8074C152.624 -93.1225 146.547 -102 141.111 -111.726C137.979 -117.33 135.391 -122.576 132.655 -128.126C129.92 -133.678 127.086 -139.426 123.655 -145.566C117.641 -156.327 110.838 -166.364 102.243 -177.143C82.9321 -201.107 63.1557 -230.421 47.9813 -257.575ZM416.948 -536.422C395.071 -575.569 359.107 -597.73 310.057 -602.297C277.215 -605.917 245.326 -600.179 217.853 -585.715C188.517 -570.367 161.969 -543.262 139.865 -518.769C122.048 -498.485 102.736 -476.8 82.2521 -455.651C77.2527 -450.489 72.4547 -445.621 67.5893 -440.771C43.5271 -418.597 30.2681 -406.377 16.3828 -372.57C6.89128 -350.43 17.7725 -309.403 47.0211 -257.065C62.2394 -229.833 82.0753 -200.431 101.444 -176.399C109.972 -165.695 116.728 -155.738 122.697 -145.057C126.104 -138.96 128.927 -133.232 131.656 -127.695C134.401 -122.126 136.996 -116.858 140.149 -111.215C145.636 -101.397 151.766 -92.4491 159.444 -83.0509C171.763 -68.0452 182.738 -53.3422 193.347 -39.1272C205.774 -22.4737 217.511 -6.74887 230.383 8.14072C269.46 55.4259 301.609 89.5218 359.587 97.4082C389.891 103.378 436.008 107.252 483.432 91.7618C519.181 80.3396 548.412 57.7296 567.971 26.3771C571.921 20.3375 575.601 13.9625 578.914 7.43951C596.816 -27.385 601.774 -70.7425 592.507 -111.526C584.219 -153.714 567.267 -192.696 550.183 -228.535C545.607 -239.632 540.485 -251.376 534.975 -263.406C525.065 -283.935 515.313 -304.357 505.888 -324.089C491.65 -353.898 478.207 -382.05 464.359 -410.355C456.564 -429.167 450.643 -447.114 444.912 -464.471C439.627 -480.493 434.634 -495.625 428.765 -509.44C425.558 -519.045 421.575 -528.142 416.948 -536.422Z" fill="#EDE9F6"/>
</g>
<defs>
<linearGradient id="paint0_linear_54_1732" x1="960" y1="381.127" x2="960" y2="1282" gradientUnits="userSpaceOnUse">
<stop stop-color="#FBFAFF"/>
<stop offset="1" stop-color="white"/>
</linearGradient>
<clipPath id="clip0_54_1732">
<rect width="1920" height="1282" fill="white"/>
</clipPath>
</defs>
</svg>
